%TF.GenerationSoftware,KiCad,Pcbnew,10.0.0*%
%TF.CreationDate,2026-04-13T19:23:20+09:00*%
%TF.ProjectId,slimevr-nugget,736c696d-6576-4722-9d6e-75676765742e,rev?*%
%TF.SameCoordinates,Original*%
%TF.FileFunction,Legend,Top*%
%TF.FilePolarity,Positive*%
%FSLAX46Y46*%
G04 Gerber Fmt 4.6, Leading zero omitted, Abs format (unit mm)*
G04 Created by KiCad (PCBNEW 10.0.0) date 2026-04-13 19:23:20*
%MOMM*%
%LPD*%
G01*
G04 APERTURE LIST*
G04 Aperture macros list*
%AMRoundRect*
0 Rectangle with rounded corners*
0 $1 Rounding radius*
0 $2 $3 $4 $5 $6 $7 $8 $9 X,Y pos of 4 corners*
0 Add a 4 corners polygon primitive as box body*
4,1,4,$2,$3,$4,$5,$6,$7,$8,$9,$2,$3,0*
0 Add four circle primitives for the rounded corners*
1,1,$1+$1,$2,$3*
1,1,$1+$1,$4,$5*
1,1,$1+$1,$6,$7*
1,1,$1+$1,$8,$9*
0 Add four rect primitives between the rounded corners*
20,1,$1+$1,$2,$3,$4,$5,0*
20,1,$1+$1,$4,$5,$6,$7,0*
20,1,$1+$1,$6,$7,$8,$9,0*
20,1,$1+$1,$8,$9,$2,$3,0*%
G04 Aperture macros list end*
%ADD10C,0.100000*%
%ADD11C,0.120000*%
%ADD12RoundRect,0.140000X-0.140000X-0.170000X0.140000X-0.170000X0.140000X0.170000X-0.140000X0.170000X0*%
%ADD13RoundRect,0.140000X0.170000X-0.140000X0.170000X0.140000X-0.170000X0.140000X-0.170000X-0.140000X0*%
%ADD14RoundRect,0.250000X0.350000X-0.450000X0.350000X0.450000X-0.350000X0.450000X-0.350000X-0.450000X0*%
%ADD15RoundRect,0.135000X-0.135000X-0.185000X0.135000X-0.185000X0.135000X0.185000X-0.135000X0.185000X0*%
%ADD16RoundRect,0.135000X0.185000X-0.135000X0.185000X0.135000X-0.185000X0.135000X-0.185000X-0.135000X0*%
%ADD17RoundRect,0.140000X0.140000X0.170000X-0.140000X0.170000X-0.140000X-0.170000X0.140000X-0.170000X0*%
%ADD18C,1.000000*%
%ADD19RoundRect,0.140000X-0.170000X0.140000X-0.170000X-0.140000X0.170000X-0.140000X0.170000X0.140000X0*%
%ADD20RoundRect,0.135000X0.135000X0.185000X-0.135000X0.185000X-0.135000X-0.185000X0.135000X-0.185000X0*%
%ADD21RoundRect,0.062500X0.375000X0.062500X-0.375000X0.062500X-0.375000X-0.062500X0.375000X-0.062500X0*%
%ADD22RoundRect,0.062500X0.062500X0.375000X-0.062500X0.375000X-0.062500X-0.375000X0.062500X-0.375000X0*%
%ADD23R,1.600000X1.600000*%
%ADD24C,0.200000*%
%ADD25RoundRect,0.147500X0.147500X0.172500X-0.147500X0.172500X-0.147500X-0.172500X0.147500X-0.172500X0*%
%ADD26RoundRect,0.250000X0.450000X0.350000X-0.450000X0.350000X-0.450000X-0.350000X0.450000X-0.350000X0*%
%ADD27RoundRect,0.147500X-0.172500X0.147500X-0.172500X-0.147500X0.172500X-0.147500X0.172500X0.147500X0*%
%ADD28R,0.675000X0.250000*%
%ADD29R,0.250000X0.675000*%
%ADD30RoundRect,0.150000X-0.512500X-0.150000X0.512500X-0.150000X0.512500X0.150000X-0.512500X0.150000X0*%
%ADD31RoundRect,0.147500X0.172500X-0.147500X0.172500X0.147500X-0.172500X0.147500X-0.172500X-0.147500X0*%
%ADD32RoundRect,0.050000X-0.350000X-0.050000X0.350000X-0.050000X0.350000X0.050000X-0.350000X0.050000X0*%
%ADD33RoundRect,0.050000X-0.050000X-0.350000X0.050000X-0.350000X0.050000X0.350000X-0.050000X0.350000X0*%
%ADD34R,4.600000X4.600000*%
G04 APERTURE END LIST*
D10*
X93866390Y-150256265D02*
X93890200Y-150208646D01*
X93890200Y-150208646D02*
X93914009Y-150184836D01*
X93914009Y-150184836D02*
X93961628Y-150161027D01*
X93961628Y-150161027D02*
X94104485Y-150161027D01*
X94104485Y-150161027D02*
X94152104Y-150184836D01*
X94152104Y-150184836D02*
X94175914Y-150208646D01*
X94175914Y-150208646D02*
X94199723Y-150256265D01*
X94199723Y-150256265D02*
X94199723Y-150327693D01*
X94199723Y-150327693D02*
X94175914Y-150375312D01*
X94175914Y-150375312D02*
X94152104Y-150399122D01*
X94152104Y-150399122D02*
X94104485Y-150422931D01*
X94104485Y-150422931D02*
X93961628Y-150422931D01*
X93961628Y-150422931D02*
X93914009Y-150399122D01*
X93914009Y-150399122D02*
X93890200Y-150375312D01*
X93890200Y-150375312D02*
X93866390Y-150327693D01*
X93866390Y-150327693D02*
X93866390Y-150256265D01*
X94199723Y-150589598D02*
X93866390Y-150684836D01*
X93866390Y-150684836D02*
X94104485Y-150780074D01*
X94104485Y-150780074D02*
X93866390Y-150875312D01*
X93866390Y-150875312D02*
X94199723Y-150970550D01*
X93866390Y-151232456D02*
X93890200Y-151184837D01*
X93890200Y-151184837D02*
X93914009Y-151161027D01*
X93914009Y-151161027D02*
X93961628Y-151137218D01*
X93961628Y-151137218D02*
X94104485Y-151137218D01*
X94104485Y-151137218D02*
X94152104Y-151161027D01*
X94152104Y-151161027D02*
X94175914Y-151184837D01*
X94175914Y-151184837D02*
X94199723Y-151232456D01*
X94199723Y-151232456D02*
X94199723Y-151303884D01*
X94199723Y-151303884D02*
X94175914Y-151351503D01*
X94175914Y-151351503D02*
X94152104Y-151375313D01*
X94152104Y-151375313D02*
X94104485Y-151399122D01*
X94104485Y-151399122D02*
X93961628Y-151399122D01*
X93961628Y-151399122D02*
X93914009Y-151375313D01*
X93914009Y-151375313D02*
X93890200Y-151351503D01*
X93890200Y-151351503D02*
X93866390Y-151303884D01*
X93866390Y-151303884D02*
X93866390Y-151232456D01*
X102094360Y-140272419D02*
X102189598Y-140272419D01*
X102189598Y-140272419D02*
X102284836Y-140320038D01*
X102284836Y-140320038D02*
X102332455Y-140367657D01*
X102332455Y-140367657D02*
X102380074Y-140462895D01*
X102380074Y-140462895D02*
X102427693Y-140653371D01*
X102427693Y-140653371D02*
X102427693Y-140891466D01*
X102427693Y-140891466D02*
X102380074Y-141081942D01*
X102380074Y-141081942D02*
X102332455Y-141177180D01*
X102332455Y-141177180D02*
X102284836Y-141224800D01*
X102284836Y-141224800D02*
X102189598Y-141272419D01*
X102189598Y-141272419D02*
X102094360Y-141272419D01*
X102094360Y-141272419D02*
X101999122Y-141224800D01*
X101999122Y-141224800D02*
X101951503Y-141177180D01*
X101951503Y-141177180D02*
X101903884Y-141081942D01*
X101903884Y-141081942D02*
X101856265Y-140891466D01*
X101856265Y-140891466D02*
X101856265Y-140653371D01*
X101856265Y-140653371D02*
X101903884Y-140462895D01*
X101903884Y-140462895D02*
X101951503Y-140367657D01*
X101951503Y-140367657D02*
X101999122Y-140320038D01*
X101999122Y-140320038D02*
X102094360Y-140272419D01*
X95037217Y-139448609D02*
X95180074Y-139496228D01*
X95180074Y-139496228D02*
X95227693Y-139543847D01*
X95227693Y-139543847D02*
X95275312Y-139639085D01*
X95275312Y-139639085D02*
X95275312Y-139781942D01*
X95275312Y-139781942D02*
X95227693Y-139877180D01*
X95227693Y-139877180D02*
X95180074Y-139924800D01*
X95180074Y-139924800D02*
X95084836Y-139972419D01*
X95084836Y-139972419D02*
X94703884Y-139972419D01*
X94703884Y-139972419D02*
X94703884Y-138972419D01*
X94703884Y-138972419D02*
X95037217Y-138972419D01*
X95037217Y-138972419D02*
X95132455Y-139020038D01*
X95132455Y-139020038D02*
X95180074Y-139067657D01*
X95180074Y-139067657D02*
X95227693Y-139162895D01*
X95227693Y-139162895D02*
X95227693Y-139258133D01*
X95227693Y-139258133D02*
X95180074Y-139353371D01*
X95180074Y-139353371D02*
X95132455Y-139400990D01*
X95132455Y-139400990D02*
X95037217Y-139448609D01*
X95037217Y-139448609D02*
X94703884Y-139448609D01*
X95703884Y-139591466D02*
X96465789Y-139591466D01*
X96084836Y-139972419D02*
X96084836Y-139210514D01*
%TO.C,C21*%
D11*
X96012164Y-155040000D02*
X96227836Y-155040000D01*
X96012164Y-155760000D02*
X96227836Y-155760000D01*
%TO.C,C13*%
X105992164Y-144340000D02*
X106207836Y-144340000D01*
X105992164Y-145060000D02*
X106207836Y-145060000D01*
%TO.C,C22*%
X101087500Y-154740336D02*
X101087500Y-154524664D01*
X101807500Y-154740336D02*
X101807500Y-154524664D01*
%TO.C,Y1*%
X107240000Y-145660000D02*
X110660000Y-145660000D01*
X110660000Y-145660000D02*
X110660000Y-141540000D01*
%TO.C,R10*%
X94873859Y-153982500D02*
X95181141Y-153982500D01*
X94873859Y-154742500D02*
X95181141Y-154742500D01*
%TO.C,R7*%
X104020000Y-154843641D02*
X104020000Y-154536359D01*
X104780000Y-154843641D02*
X104780000Y-154536359D01*
%TO.C,R6*%
X105020000Y-154843641D02*
X105020000Y-154536359D01*
X105780000Y-154843641D02*
X105780000Y-154536359D01*
%TO.C,R1*%
X101320000Y-143353641D02*
X101320000Y-143046359D01*
X102080000Y-143353641D02*
X102080000Y-143046359D01*
%TO.C,C1*%
X109407836Y-145840000D02*
X109192164Y-145840000D01*
X109407836Y-146560000D02*
X109192164Y-146560000D01*
%TO.C,TP5*%
X101500000Y-140900000D02*
G75*
G02*
X100100000Y-140900000I-700000J0D01*
G01*
X100100000Y-140900000D02*
G75*
G02*
X101500000Y-140900000I700000J0D01*
G01*
%TO.C,C10*%
X100692164Y-144940000D02*
X100907836Y-144940000D01*
X100692164Y-145660000D02*
X100907836Y-145660000D01*
%TO.C,C6*%
X110040000Y-149212164D02*
X110040000Y-149427836D01*
X110760000Y-149212164D02*
X110760000Y-149427836D01*
%TO.C,C17*%
X100352500Y-143092164D02*
X100352500Y-143307836D01*
X101072500Y-143092164D02*
X101072500Y-143307836D01*
%TO.C,TP6*%
X98100000Y-140000000D02*
G75*
G02*
X96700000Y-140000000I-700000J0D01*
G01*
X96700000Y-140000000D02*
G75*
G02*
X98100000Y-140000000I700000J0D01*
G01*
%TO.C,C23*%
X110040000Y-154307836D02*
X110040000Y-154092164D01*
X110760000Y-154307836D02*
X110760000Y-154092164D01*
%TO.C,C20*%
X99740000Y-148027836D02*
X99740000Y-147812164D01*
X100460000Y-148027836D02*
X100460000Y-147812164D01*
%TO.C,C2*%
X109307836Y-140640000D02*
X109092164Y-140640000D01*
X109307836Y-141360000D02*
X109092164Y-141360000D01*
%TO.C,L5*%
X109736359Y-152420000D02*
X110043641Y-152420000D01*
X109736359Y-153180000D02*
X110043641Y-153180000D01*
%TO.C,R3*%
X99273641Y-145920000D02*
X98966359Y-145920000D01*
X99273641Y-146680000D02*
X98966359Y-146680000D01*
%TO.C,C11*%
X102040000Y-154727836D02*
X102040000Y-154512164D01*
X102760000Y-154727836D02*
X102760000Y-154512164D01*
%TO.C,U2*%
X96440000Y-142040000D02*
X96915000Y-142040000D01*
X96440000Y-142515000D02*
X96440000Y-142040000D01*
X96440000Y-145260000D02*
X96440000Y-144785000D01*
X96915000Y-145260000D02*
X96440000Y-145260000D01*
X99185000Y-142040000D02*
X99660000Y-142040000D01*
X99660000Y-142040000D02*
X99660000Y-142515000D01*
X99660000Y-144785000D02*
X99660000Y-145260000D01*
X99660000Y-145260000D02*
X99185000Y-145260000D01*
X100520000Y-144640000D02*
X100190000Y-144400000D01*
X100520000Y-144160000D01*
X100520000Y-144640000D01*
G36*
X100520000Y-144640000D02*
G01*
X100190000Y-144400000D01*
X100520000Y-144160000D01*
X100520000Y-144640000D01*
G37*
%TO.C,U6*%
D10*
X94947500Y-152752500D02*
X95947500Y-152752500D01*
X94947500Y-153752500D02*
X94947500Y-152752500D01*
X95697500Y-153752500D02*
X94947500Y-153752500D01*
X95947500Y-152752500D02*
X95947500Y-153502500D01*
X95947500Y-153502500D02*
X95697500Y-153752500D01*
%TO.C,C15*%
D11*
X102340000Y-143092164D02*
X102340000Y-143307836D01*
X103060000Y-143092164D02*
X103060000Y-143307836D01*
%TO.C,C9*%
X104327836Y-144340000D02*
X104112164Y-144340000D01*
X104327836Y-145060000D02*
X104112164Y-145060000D01*
%TO.C,C12*%
X99740000Y-149692164D02*
X99740000Y-149907836D01*
X100460000Y-149692164D02*
X100460000Y-149907836D01*
%TO.C,C8*%
X105340000Y-143092164D02*
X105340000Y-143307836D01*
X106060000Y-143092164D02*
X106060000Y-143307836D01*
%TO.C,D1*%
D10*
X96437500Y-142000000D02*
G75*
G02*
X96337500Y-142000000I-50000J0D01*
G01*
X96337500Y-142000000D02*
G75*
G02*
X96437500Y-142000000I50000J0D01*
G01*
%TO.C,U5*%
D11*
X106860000Y-138740000D02*
X102740000Y-138740000D01*
X106860000Y-142160000D02*
X106860000Y-138740000D01*
%TO.C,U4*%
D10*
X97500000Y-154612500D02*
X97500000Y-154392500D01*
X97500000Y-154612500D02*
X98220000Y-154612500D01*
X97700000Y-151912500D02*
X98220000Y-151912500D01*
X99980000Y-151912500D02*
X100700000Y-151912500D01*
X100700000Y-151912500D02*
X100700000Y-152132500D01*
X100700000Y-154392500D02*
X100700000Y-154612500D01*
X100700000Y-154612500D02*
X99980000Y-154612500D01*
X97500000Y-151912500D02*
X97140000Y-151912500D01*
X97500000Y-151552500D01*
X97500000Y-151912500D01*
G36*
X97500000Y-151912500D02*
G01*
X97140000Y-151912500D01*
X97500000Y-151552500D01*
X97500000Y-151912500D01*
G37*
%TO.C,C14*%
D11*
X107340000Y-154007836D02*
X107340000Y-153792164D01*
X108060000Y-154007836D02*
X108060000Y-153792164D01*
%TO.C,C16*%
X97327836Y-145940000D02*
X97112164Y-145940000D01*
X97327836Y-146660000D02*
X97112164Y-146660000D01*
%TO.C,C19*%
X94150000Y-147407836D02*
X94150000Y-147192164D01*
X94870000Y-147407836D02*
X94870000Y-147192164D01*
%TO.C,U3*%
X96162500Y-147490000D02*
X97982500Y-147490000D01*
X96162500Y-147540000D02*
X96162500Y-147490000D01*
X96162500Y-150610000D02*
X96162500Y-150560000D01*
X97982500Y-147490000D02*
X97982500Y-147540000D01*
X97982500Y-148660000D02*
X97982500Y-149440000D01*
X97982500Y-150560000D02*
X97982500Y-150610000D01*
X97982500Y-150610000D02*
X96162500Y-150610000D01*
X95622500Y-147540000D02*
X95382500Y-147210000D01*
X95862500Y-147210000D01*
X95622500Y-147540000D01*
G36*
X95622500Y-147540000D02*
G01*
X95382500Y-147210000D01*
X95862500Y-147210000D01*
X95622500Y-147540000D01*
G37*
%TO.C,C5*%
X108040000Y-149427836D02*
X108040000Y-149212164D01*
X108760000Y-149427836D02*
X108760000Y-149212164D01*
%TO.C,R8*%
X103020000Y-154843641D02*
X103020000Y-154536359D01*
X103780000Y-154843641D02*
X103780000Y-154536359D01*
%TO.C,C3*%
X96187500Y-153044664D02*
X96187500Y-153260336D01*
X96907500Y-153044664D02*
X96907500Y-153260336D01*
%TO.C,C24*%
X107340000Y-140392164D02*
X107340000Y-140607836D01*
X108060000Y-140392164D02*
X108060000Y-140607836D01*
%TO.C,R9*%
X94883859Y-151782500D02*
X95191141Y-151782500D01*
X94883859Y-152542500D02*
X95191141Y-152542500D01*
%TO.C,U1*%
X101190000Y-145940000D02*
X101740000Y-145940000D01*
X101190000Y-146490000D02*
X101190000Y-145940000D01*
X101190000Y-152160000D02*
X101190000Y-151610000D01*
X101740000Y-152160000D02*
X101190000Y-152160000D01*
X106860000Y-145940000D02*
X107410000Y-145940000D01*
X107410000Y-145940000D02*
X107410000Y-146490000D01*
X107410000Y-151610000D02*
X107410000Y-152160000D01*
X107410000Y-152160000D02*
X106860000Y-152160000D01*
X100690000Y-146850000D02*
X100360000Y-147090000D01*
X100360000Y-146610000D01*
X100690000Y-146850000D01*
G36*
X100690000Y-146850000D02*
G01*
X100360000Y-147090000D01*
X100360000Y-146610000D01*
X100690000Y-146850000D01*
G37*
%TO.C,R2*%
X95146359Y-144920000D02*
X95453641Y-144920000D01*
X95146359Y-145680000D02*
X95453641Y-145680000D01*
%TO.C,C18*%
X95052500Y-143372164D02*
X95052500Y-143587836D01*
X95772500Y-143372164D02*
X95772500Y-143587836D01*
%TO.C,C7*%
X109427836Y-146840000D02*
X109212164Y-146840000D01*
X109427836Y-147560000D02*
X109212164Y-147560000D01*
%TO.C,R5*%
X106020000Y-154853641D02*
X106020000Y-154546359D01*
X106780000Y-154853641D02*
X106780000Y-154546359D01*
%TO.C,C4*%
X109987836Y-151440000D02*
X109772164Y-151440000D01*
X109987836Y-152160000D02*
X109772164Y-152160000D01*
%TD*%
%LPC*%
D12*
%TO.C,C21*%
X95640000Y-155400000D03*
X96600000Y-155400000D03*
%TD*%
%TO.C,C13*%
X105620000Y-144700000D03*
X106580000Y-144700000D03*
%TD*%
D13*
%TO.C,C22*%
X101447500Y-155112500D03*
X101447500Y-154152500D03*
%TD*%
D14*
%TO.C,Y1*%
X109800000Y-144700000D03*
X109800000Y-142500000D03*
X108100000Y-142500000D03*
X108100000Y-144700000D03*
%TD*%
D15*
%TO.C,R10*%
X94517500Y-154362500D03*
X95537500Y-154362500D03*
%TD*%
D16*
%TO.C,R7*%
X104400000Y-155200000D03*
X104400000Y-154180000D03*
%TD*%
%TO.C,R6*%
X105400000Y-155200000D03*
X105400000Y-154180000D03*
%TD*%
%TO.C,R1*%
X101700000Y-143710000D03*
X101700000Y-142690000D03*
%TD*%
D17*
%TO.C,C1*%
X109780000Y-146200000D03*
X108820000Y-146200000D03*
%TD*%
D18*
%TO.C,TP5*%
X100800000Y-140900000D03*
%TD*%
D12*
%TO.C,C10*%
X100320000Y-145300000D03*
X101280000Y-145300000D03*
%TD*%
D19*
%TO.C,C6*%
X110400000Y-148840000D03*
X110400000Y-149800000D03*
%TD*%
%TO.C,C17*%
X100712500Y-142720000D03*
X100712500Y-143680000D03*
%TD*%
D18*
%TO.C,TP6*%
X97400000Y-140000000D03*
%TD*%
D13*
%TO.C,C23*%
X110400000Y-154680000D03*
X110400000Y-153720000D03*
%TD*%
%TO.C,C20*%
X100100000Y-148400000D03*
X100100000Y-147440000D03*
%TD*%
D17*
%TO.C,C2*%
X109680000Y-141000000D03*
X108720000Y-141000000D03*
%TD*%
D15*
%TO.C,L5*%
X109380000Y-152800000D03*
X110400000Y-152800000D03*
%TD*%
D20*
%TO.C,R3*%
X99630000Y-146300000D03*
X98610000Y-146300000D03*
%TD*%
D13*
%TO.C,C11*%
X102400000Y-155100000D03*
X102400000Y-154140000D03*
%TD*%
D21*
%TO.C,U2*%
X99487500Y-144400000D03*
X99487500Y-143900000D03*
X99487500Y-143400000D03*
X99487500Y-142900000D03*
D22*
X98800000Y-142212500D03*
X98300000Y-142212500D03*
X97800000Y-142212500D03*
X97300000Y-142212500D03*
D21*
X96612500Y-142900000D03*
X96612500Y-143400000D03*
X96612500Y-143900000D03*
X96612500Y-144400000D03*
D22*
X97300000Y-145087500D03*
X97800000Y-145087500D03*
X98300000Y-145087500D03*
X98800000Y-145087500D03*
D23*
X98050000Y-143650000D03*
%TD*%
D24*
%TO.C,U6*%
X95647500Y-153452500D03*
X95247500Y-153452500D03*
X95647500Y-153052500D03*
X95247500Y-153052500D03*
%TD*%
D19*
%TO.C,C15*%
X102700000Y-142720000D03*
X102700000Y-143680000D03*
%TD*%
D17*
%TO.C,C9*%
X104700000Y-144700000D03*
X103740000Y-144700000D03*
%TD*%
D19*
%TO.C,C12*%
X100100000Y-149320000D03*
X100100000Y-150280000D03*
%TD*%
%TO.C,C8*%
X105700000Y-142720000D03*
X105700000Y-143680000D03*
%TD*%
D25*
%TO.C,D1*%
X95782500Y-142000000D03*
X94812500Y-142000000D03*
%TD*%
D26*
%TO.C,U5*%
X105900000Y-139600000D03*
X103700000Y-139600000D03*
X103700000Y-141300000D03*
X105900000Y-141300000D03*
%TD*%
D27*
%TO.C,L4*%
X104700000Y-142730000D03*
X104700000Y-143700000D03*
%TD*%
D28*
%TO.C,U4*%
X97837500Y-152512500D03*
X97837500Y-153012500D03*
X97837500Y-153512500D03*
X97837500Y-154012500D03*
D29*
X98600000Y-154275000D03*
X99100000Y-154275000D03*
X99600000Y-154275000D03*
D28*
X100362500Y-154012500D03*
X100362500Y-153512500D03*
X100362500Y-153012500D03*
X100362500Y-152512500D03*
D29*
X99600000Y-152250000D03*
X99100000Y-152250000D03*
X98600000Y-152250000D03*
%TD*%
D13*
%TO.C,C14*%
X107700000Y-154380000D03*
X107700000Y-153420000D03*
%TD*%
D17*
%TO.C,C16*%
X97700000Y-146300000D03*
X96740000Y-146300000D03*
%TD*%
D13*
%TO.C,C19*%
X94510000Y-147780000D03*
X94510000Y-146820000D03*
%TD*%
D30*
%TO.C,U3*%
X95935000Y-148100000D03*
X95935000Y-149050000D03*
X95935000Y-150000000D03*
X98210000Y-150000000D03*
X98210000Y-148100000D03*
%TD*%
D13*
%TO.C,C5*%
X108400000Y-149800000D03*
X108400000Y-148840000D03*
%TD*%
D16*
%TO.C,R8*%
X103400000Y-155200000D03*
X103400000Y-154180000D03*
%TD*%
D19*
%TO.C,C3*%
X96547500Y-152672500D03*
X96547500Y-153632500D03*
%TD*%
D31*
%TO.C,L3*%
X103700000Y-143700000D03*
X103700000Y-142730000D03*
%TD*%
D19*
%TO.C,C24*%
X107700000Y-140020000D03*
X107700000Y-140980000D03*
%TD*%
D15*
%TO.C,R9*%
X94527500Y-152162500D03*
X95547500Y-152162500D03*
%TD*%
D32*
%TO.C,U1*%
X101350000Y-146850000D03*
X101350000Y-147250000D03*
X101350000Y-147650000D03*
X101350000Y-148050000D03*
X101350000Y-148450000D03*
X101350000Y-148850000D03*
X101350000Y-149250000D03*
X101350000Y-149650000D03*
X101350000Y-150050000D03*
X101350000Y-150450000D03*
X101350000Y-150850000D03*
X101350000Y-151250000D03*
D33*
X102100000Y-152000000D03*
X102500000Y-152000000D03*
X102900000Y-152000000D03*
X103300000Y-152000000D03*
X103700000Y-152000000D03*
X104100000Y-152000000D03*
X104500000Y-152000000D03*
X104900000Y-152000000D03*
X105300000Y-152000000D03*
X105700000Y-152000000D03*
X106100000Y-152000000D03*
X106500000Y-152000000D03*
D32*
X107250000Y-151250000D03*
X107250000Y-150850000D03*
X107250000Y-150450000D03*
X107250000Y-150050000D03*
X107250000Y-149650000D03*
X107250000Y-149250000D03*
X107250000Y-148850000D03*
X107250000Y-148450000D03*
X107250000Y-148050000D03*
X107250000Y-147650000D03*
X107250000Y-147250000D03*
X107250000Y-146850000D03*
D33*
X106500000Y-146100000D03*
X106100000Y-146100000D03*
X105700000Y-146100000D03*
X105300000Y-146100000D03*
X104900000Y-146100000D03*
X104500000Y-146100000D03*
X104100000Y-146100000D03*
X103700000Y-146100000D03*
X103300000Y-146100000D03*
X102900000Y-146100000D03*
X102500000Y-146100000D03*
X102100000Y-146100000D03*
D34*
X104300000Y-149050000D03*
%TD*%
D15*
%TO.C,R2*%
X94790000Y-145300000D03*
X95810000Y-145300000D03*
%TD*%
D19*
%TO.C,C18*%
X95412500Y-143000000D03*
X95412500Y-143960000D03*
%TD*%
D17*
%TO.C,C7*%
X109800000Y-147200000D03*
X108840000Y-147200000D03*
%TD*%
D16*
%TO.C,R5*%
X106400000Y-155210000D03*
X106400000Y-154190000D03*
%TD*%
D27*
%TO.C,L1*%
X109400000Y-148830000D03*
X109400000Y-149800000D03*
%TD*%
D25*
%TO.C,L2*%
X110400000Y-150800000D03*
X109430000Y-150800000D03*
%TD*%
D17*
%TO.C,C4*%
X110360000Y-151800000D03*
X109400000Y-151800000D03*
%TD*%
%LPD*%
M02*
