%TF.GenerationSoftware,KiCad,Pcbnew,10.0.1+dfsg-1*%
%TF.CreationDate,2026-04-19T22:08:52+09:00*%
%TF.ProjectId,slimevr-nugget,736c696d-6576-4722-9d6e-75676765742e,rev?*%
%TF.SameCoordinates,Original*%
%TF.FileFunction,Copper,L2,Inr*%
%TF.FilePolarity,Positive*%
%FSLAX46Y46*%
G04 Gerber Fmt 4.6, Leading zero omitted, Abs format (unit mm)*
G04 Created by KiCad (PCBNEW 10.0.1+dfsg-1) date 2026-04-19 22:08:52*
%MOMM*%
%LPD*%
G01*
G04 APERTURE LIST*
%TA.AperFunction,ComponentPad*%
%ADD10R,0.500000X0.900000*%
%TD*%
%TA.AperFunction,HeatsinkPad*%
%ADD11C,0.500000*%
%TD*%
%TA.AperFunction,ViaPad*%
%ADD12C,0.600000*%
%TD*%
%TA.AperFunction,Conductor*%
%ADD13C,0.200000*%
%TD*%
G04 APERTURE END LIST*
D10*
%TO.N,GND*%
%TO.C,AE1*%
X111300000Y-154500000D03*
%TD*%
D11*
%TO.N,GND*%
%TO.C,U1*%
X102500000Y-147250000D03*
X102500000Y-148450000D03*
X102500000Y-149650000D03*
X102500000Y-150850000D03*
X103700000Y-147250000D03*
X103700000Y-148450000D03*
X103700000Y-149650000D03*
X103700000Y-150850000D03*
X104900000Y-147250000D03*
X104900000Y-148450000D03*
X104900000Y-149650000D03*
X104900000Y-150850000D03*
X106100000Y-147250000D03*
X106100000Y-148450000D03*
X106100000Y-149650000D03*
X106100000Y-150850000D03*
%TD*%
D12*
%TO.N,GND*%
X109600000Y-140500000D03*
X110400000Y-141300000D03*
X111200000Y-142100000D03*
X96112500Y-153712500D03*
X99800000Y-140601138D03*
X111200000Y-139700000D03*
X111200000Y-147700000D03*
X94200000Y-144800000D03*
X99800000Y-145100000D03*
X111200000Y-146100000D03*
X111200000Y-141300000D03*
X111200000Y-143700000D03*
X111200000Y-150900000D03*
X111200000Y-145300000D03*
X109500000Y-154200000D03*
X94812500Y-144800000D03*
X111200000Y-153400000D03*
X111200000Y-149300000D03*
X111200000Y-148500000D03*
X98366227Y-147110800D03*
X98100000Y-155500000D03*
X111200000Y-151649998D03*
X111200000Y-146900000D03*
X111200000Y-150100000D03*
X110400000Y-139700000D03*
X111200000Y-142900000D03*
X108632843Y-150267157D03*
X96000000Y-139400000D03*
X101200000Y-142400000D03*
X95200000Y-155200000D03*
X109800000Y-146700000D03*
X110400000Y-140500000D03*
X109000000Y-143600000D03*
X93700000Y-154800000D03*
X111200000Y-144500000D03*
X101600000Y-141000000D03*
X111200000Y-140500000D03*
%TO.N,VDD*%
X99650000Y-150050000D03*
X99100000Y-148100000D03*
X102025738Y-144502790D03*
X107000000Y-141100000D03*
X107150000Y-139350000D03*
X96118511Y-152904294D03*
X107700000Y-152800000D03*
X96400000Y-154962500D03*
X102797888Y-153047000D03*
X94527500Y-153200000D03*
%TO.N,SCL*%
X104500000Y-153350000D03*
X99100000Y-151250000D03*
%TO.N,SDA*%
X105400000Y-153350000D03*
X98200000Y-151250000D03*
%TO.N,BAT+*%
X99500000Y-142200000D03*
X98925402Y-141225402D03*
X100100000Y-143700000D03*
%TO.N,CHG*%
X96420000Y-142360000D03*
X93800000Y-140000000D03*
%TO.N,Net-(U7-ILIM)*%
X94800000Y-139500000D03*
X96612500Y-144800000D03*
%TO.N,VBUS*%
X96740000Y-146800000D03*
%TO.N,Net-(R3-Pad1)*%
X100150000Y-141650000D03*
X99500000Y-146800000D03*
%TO.N,Net-(U1-DEC4)*%
X109887550Y-148050000D03*
X106108198Y-143981982D03*
%TO.N,CLK*%
X102800000Y-141800000D03*
X100750000Y-146075735D03*
%TO.N,SDO*%
X97300000Y-151250000D03*
X106300000Y-153350000D03*
%TO.N,INT1*%
X107100000Y-152088527D03*
X97721727Y-154304743D03*
%TO.N,CS*%
X100000000Y-151250000D03*
X103600000Y-153350000D03*
%TO.N,SWD*%
X108690000Y-153430000D03*
%TO.N,SWC*%
X108703035Y-151266569D03*
%TD*%
%TO.N,GND*%
D13*
X95200000Y-155200000D02*
X93700000Y-153700000D01*
X100800000Y-142700000D02*
X100600000Y-142900000D01*
X93700000Y-153700000D02*
X93600000Y-153600000D01*
X95500000Y-153600000D02*
X95400000Y-153500000D01*
X95500000Y-153600000D02*
X95300000Y-153400000D01*
X101200000Y-142400000D02*
X101100000Y-142400000D01*
X95300000Y-152500000D02*
X95200000Y-152400000D01*
X95300000Y-153400000D02*
X95300000Y-152500000D01*
X95600000Y-153700000D02*
X95500000Y-153600000D01*
X100800000Y-142700000D02*
X100700000Y-142800000D01*
X101100000Y-142400000D02*
X100800000Y-142700000D01*
X100700000Y-142800000D02*
X99500000Y-142800000D01*
X96100000Y-153700000D02*
X95600000Y-153700000D01*
X93700000Y-153700000D02*
X93700000Y-152700000D01*
X100600000Y-142900000D02*
X99500000Y-142900000D01*
X95300000Y-153700000D02*
X95300000Y-153200000D01*
X95600000Y-153700000D02*
X95300000Y-153700000D01*
X93600000Y-153600000D02*
X93600000Y-152700000D01*
X96112500Y-153712500D02*
X96100000Y-153700000D01*
%TD*%
%TA.AperFunction,Conductor*%
%TO.N,GND*%
G36*
X106319282Y-139020185D02*
G01*
X106365037Y-139072989D01*
X106374981Y-139142147D01*
X106373860Y-139148692D01*
X106349500Y-139271155D01*
X106349500Y-139428846D01*
X106380261Y-139583489D01*
X106380264Y-139583501D01*
X106440602Y-139729172D01*
X106440609Y-139729185D01*
X106528210Y-139860288D01*
X106528213Y-139860292D01*
X106639707Y-139971786D01*
X106639711Y-139971789D01*
X106770814Y-140059390D01*
X106770818Y-140059392D01*
X106770821Y-140059394D01*
X106833547Y-140085375D01*
X106887949Y-140129215D01*
X106910014Y-140195509D01*
X106892735Y-140263208D01*
X106841599Y-140310819D01*
X106810286Y-140321553D01*
X106766507Y-140330261D01*
X106766498Y-140330264D01*
X106620827Y-140390602D01*
X106620814Y-140390609D01*
X106489711Y-140478210D01*
X106489707Y-140478213D01*
X106378213Y-140589707D01*
X106378210Y-140589711D01*
X106290609Y-140720814D01*
X106290602Y-140720827D01*
X106230264Y-140866498D01*
X106230261Y-140866510D01*
X106199500Y-141021153D01*
X106199500Y-141178846D01*
X106230261Y-141333489D01*
X106230264Y-141333501D01*
X106290602Y-141479172D01*
X106290609Y-141479185D01*
X106378210Y-141610288D01*
X106378213Y-141610292D01*
X106489707Y-141721786D01*
X106489711Y-141721789D01*
X106620814Y-141809390D01*
X106620827Y-141809397D01*
X106766498Y-141869735D01*
X106766503Y-141869737D01*
X106921153Y-141900499D01*
X106921156Y-141900500D01*
X106921158Y-141900500D01*
X107078844Y-141900500D01*
X107078845Y-141900499D01*
X107233497Y-141869737D01*
X107379179Y-141809394D01*
X107510289Y-141721789D01*
X107621789Y-141610289D01*
X107709394Y-141479179D01*
X107769737Y-141333497D01*
X107800500Y-141178842D01*
X107800500Y-141021158D01*
X107800500Y-141021155D01*
X107800499Y-141021153D01*
X107796192Y-140999500D01*
X107769737Y-140866503D01*
X107742398Y-140800500D01*
X107709397Y-140720827D01*
X107709390Y-140720814D01*
X107621789Y-140589711D01*
X107621786Y-140589707D01*
X107510292Y-140478213D01*
X107510288Y-140478210D01*
X107379185Y-140390609D01*
X107379176Y-140390604D01*
X107316453Y-140364624D01*
X107262050Y-140320783D01*
X107239985Y-140254489D01*
X107257264Y-140186790D01*
X107308401Y-140139179D01*
X107339709Y-140128447D01*
X107383497Y-140119737D01*
X107529179Y-140059394D01*
X107660289Y-139971789D01*
X107771789Y-139860289D01*
X107859394Y-139729179D01*
X107891963Y-139650547D01*
X107935803Y-139596146D01*
X108002097Y-139574080D01*
X108069796Y-139591358D01*
X108117407Y-139642495D01*
X108126297Y-139665904D01*
X108133608Y-139693186D01*
X108199500Y-139807314D01*
X108292686Y-139900500D01*
X108406814Y-139966392D01*
X108534108Y-140000500D01*
X108534110Y-140000500D01*
X109665890Y-140000500D01*
X109665892Y-140000500D01*
X109793186Y-139966392D01*
X109907314Y-139900500D01*
X110000500Y-139807314D01*
X110066392Y-139693186D01*
X110100500Y-139565892D01*
X110100500Y-139124500D01*
X110120185Y-139057461D01*
X110172989Y-139011706D01*
X110224500Y-139000500D01*
X111426000Y-139000500D01*
X111493039Y-139020185D01*
X111538794Y-139072989D01*
X111550000Y-139124500D01*
X111550000Y-155374791D01*
X111530315Y-155441830D01*
X111477511Y-155487585D01*
X111425982Y-155498791D01*
X110224482Y-155498613D01*
X110157445Y-155478919D01*
X110111698Y-155426108D01*
X110100500Y-155374613D01*
X110100500Y-154934110D01*
X110100500Y-154934108D01*
X110066392Y-154806814D01*
X110000500Y-154692686D01*
X109907314Y-154599500D01*
X109850250Y-154566554D01*
X109793187Y-154533608D01*
X109729539Y-154516554D01*
X109665892Y-154499500D01*
X108665892Y-154499500D01*
X108534108Y-154499500D01*
X108406812Y-154533608D01*
X108292686Y-154599500D01*
X108292683Y-154599502D01*
X108199502Y-154692683D01*
X108199500Y-154692686D01*
X108133608Y-154806812D01*
X108099500Y-154934108D01*
X108099500Y-155374908D01*
X108079815Y-155441947D01*
X108027011Y-155487702D01*
X107975505Y-155498908D01*
X97229666Y-155499356D01*
X97162626Y-155479674D01*
X97116869Y-155426872D01*
X97106922Y-155357714D01*
X97115100Y-155327904D01*
X97169735Y-155196001D01*
X97169737Y-155195997D01*
X97186835Y-155110039D01*
X97219219Y-155048129D01*
X97279935Y-155013555D01*
X97349704Y-155017294D01*
X97355904Y-155019670D01*
X97488225Y-155074478D01*
X97488230Y-155074480D01*
X97642880Y-155105242D01*
X97642883Y-155105243D01*
X97642885Y-155105243D01*
X97800571Y-155105243D01*
X97800572Y-155105242D01*
X97955224Y-155074480D01*
X98100906Y-155014137D01*
X98232016Y-154926532D01*
X98343516Y-154815032D01*
X98431121Y-154683922D01*
X98491464Y-154538240D01*
X98522227Y-154383585D01*
X98522227Y-154225901D01*
X98522227Y-154225898D01*
X98522226Y-154225896D01*
X98507229Y-154150500D01*
X98491464Y-154071246D01*
X98486553Y-154059390D01*
X98431124Y-153925570D01*
X98431117Y-153925557D01*
X98343516Y-153794454D01*
X98343513Y-153794450D01*
X98232019Y-153682956D01*
X98232015Y-153682953D01*
X98100912Y-153595352D01*
X98100899Y-153595345D01*
X97955228Y-153535007D01*
X97955216Y-153535004D01*
X97800572Y-153504243D01*
X97800569Y-153504243D01*
X97642885Y-153504243D01*
X97642882Y-153504243D01*
X97488237Y-153535004D01*
X97488225Y-153535007D01*
X97342554Y-153595345D01*
X97342541Y-153595352D01*
X97211438Y-153682953D01*
X97211434Y-153682956D01*
X97099940Y-153794450D01*
X97099937Y-153794454D01*
X97012336Y-153925557D01*
X97012329Y-153925570D01*
X96951991Y-154071241D01*
X96951988Y-154071251D01*
X96934891Y-154157203D01*
X96902506Y-154219114D01*
X96841790Y-154253688D01*
X96772020Y-154249947D01*
X96765822Y-154247573D01*
X96724600Y-154230499D01*
X96633497Y-154192763D01*
X96633492Y-154192762D01*
X96633489Y-154192761D01*
X96478845Y-154162000D01*
X96478842Y-154162000D01*
X96321158Y-154162000D01*
X96321155Y-154162000D01*
X96166510Y-154192761D01*
X96166498Y-154192764D01*
X96020827Y-154253102D01*
X96020814Y-154253109D01*
X95889711Y-154340710D01*
X95889707Y-154340713D01*
X95778213Y-154452207D01*
X95778210Y-154452211D01*
X95690609Y-154583314D01*
X95690602Y-154583327D01*
X95630264Y-154728998D01*
X95630261Y-154729010D01*
X95599500Y-154883653D01*
X95599500Y-155041346D01*
X95630261Y-155195989D01*
X95630264Y-155196001D01*
X95684928Y-155327973D01*
X95692397Y-155397442D01*
X95661121Y-155459921D01*
X95601032Y-155495573D01*
X95570372Y-155499425D01*
X94058669Y-155499488D01*
X93991629Y-155479806D01*
X93970983Y-155463169D01*
X93536819Y-155029005D01*
X93503334Y-154967682D01*
X93500500Y-154941324D01*
X93500500Y-153399142D01*
X93520185Y-153332103D01*
X93572989Y-153286348D01*
X93642147Y-153276404D01*
X93705703Y-153305429D01*
X93743477Y-153364207D01*
X93746117Y-153374951D01*
X93757761Y-153433489D01*
X93757764Y-153433501D01*
X93818102Y-153579172D01*
X93818109Y-153579185D01*
X93905710Y-153710288D01*
X93905713Y-153710292D01*
X94017207Y-153821786D01*
X94017211Y-153821789D01*
X94148314Y-153909390D01*
X94148327Y-153909397D01*
X94293998Y-153969735D01*
X94294003Y-153969737D01*
X94448653Y-154000499D01*
X94448656Y-154000500D01*
X94448658Y-154000500D01*
X94606344Y-154000500D01*
X94606345Y-154000499D01*
X94760997Y-153969737D01*
X94906679Y-153909394D01*
X95037789Y-153821789D01*
X95149289Y-153710289D01*
X95236894Y-153579179D01*
X95236895Y-153579176D01*
X95236897Y-153579173D01*
X95290186Y-153450519D01*
X95334026Y-153396115D01*
X95400320Y-153374050D01*
X95468020Y-153391329D01*
X95492428Y-153410290D01*
X95608218Y-153526080D01*
X95608222Y-153526083D01*
X95739325Y-153613684D01*
X95739338Y-153613691D01*
X95883307Y-153673324D01*
X95885014Y-153674031D01*
X96039664Y-153704793D01*
X96039667Y-153704794D01*
X96039669Y-153704794D01*
X96197355Y-153704794D01*
X96197356Y-153704793D01*
X96352008Y-153674031D01*
X96497690Y-153613688D01*
X96628800Y-153526083D01*
X96740300Y-153414583D01*
X96827905Y-153283473D01*
X96888248Y-153137791D01*
X96919011Y-152983136D01*
X96919011Y-152968153D01*
X101997388Y-152968153D01*
X101997388Y-153125846D01*
X102028149Y-153280489D01*
X102028152Y-153280501D01*
X102088490Y-153426172D01*
X102088497Y-153426185D01*
X102176098Y-153557288D01*
X102176101Y-153557292D01*
X102287595Y-153668786D01*
X102287599Y-153668789D01*
X102418702Y-153756390D01*
X102418715Y-153756397D01*
X102564386Y-153816735D01*
X102564391Y-153816737D01*
X102710077Y-153845716D01*
X102719041Y-153847499D01*
X102719044Y-153847500D01*
X102719046Y-153847500D01*
X102876731Y-153847500D01*
X102885699Y-153845716D01*
X102955290Y-153851942D01*
X102997573Y-153879652D01*
X103089707Y-153971786D01*
X103089711Y-153971789D01*
X103220814Y-154059390D01*
X103220827Y-154059397D01*
X103366498Y-154119735D01*
X103366503Y-154119737D01*
X103521153Y-154150499D01*
X103521156Y-154150500D01*
X103521158Y-154150500D01*
X103678844Y-154150500D01*
X103678845Y-154150499D01*
X103833497Y-154119737D01*
X103979179Y-154059394D01*
X103981110Y-154058103D01*
X103982276Y-154057737D01*
X103984546Y-154056525D01*
X103984776Y-154056955D01*
X104047786Y-154037226D01*
X104115166Y-154055710D01*
X104118850Y-154058077D01*
X104120821Y-154059394D01*
X104120824Y-154059395D01*
X104120827Y-154059397D01*
X104266498Y-154119735D01*
X104266503Y-154119737D01*
X104421153Y-154150499D01*
X104421156Y-154150500D01*
X104421158Y-154150500D01*
X104578844Y-154150500D01*
X104578845Y-154150499D01*
X104733497Y-154119737D01*
X104879179Y-154059394D01*
X104881110Y-154058103D01*
X104882276Y-154057737D01*
X104884546Y-154056525D01*
X104884776Y-154056955D01*
X104947786Y-154037226D01*
X105015166Y-154055710D01*
X105018850Y-154058077D01*
X105020821Y-154059394D01*
X105020824Y-154059395D01*
X105020827Y-154059397D01*
X105166498Y-154119735D01*
X105166503Y-154119737D01*
X105321153Y-154150499D01*
X105321156Y-154150500D01*
X105321158Y-154150500D01*
X105478844Y-154150500D01*
X105478845Y-154150499D01*
X105633497Y-154119737D01*
X105779179Y-154059394D01*
X105781110Y-154058103D01*
X105782276Y-154057737D01*
X105784546Y-154056525D01*
X105784776Y-154056955D01*
X105847786Y-154037226D01*
X105915166Y-154055710D01*
X105918850Y-154058077D01*
X105920821Y-154059394D01*
X105920824Y-154059395D01*
X105920827Y-154059397D01*
X106066498Y-154119735D01*
X106066503Y-154119737D01*
X106221153Y-154150499D01*
X106221156Y-154150500D01*
X106221158Y-154150500D01*
X106378844Y-154150500D01*
X106378845Y-154150499D01*
X106533497Y-154119737D01*
X106679179Y-154059394D01*
X106810289Y-153971789D01*
X106921789Y-153860289D01*
X107009394Y-153729179D01*
X107069737Y-153583497D01*
X107075999Y-153552012D01*
X107108382Y-153490105D01*
X107169097Y-153455529D01*
X107238866Y-153459267D01*
X107266507Y-153473103D01*
X107320814Y-153509390D01*
X107320827Y-153509397D01*
X107466498Y-153569735D01*
X107466503Y-153569737D01*
X107621153Y-153600499D01*
X107621156Y-153600500D01*
X107621158Y-153600500D01*
X107778842Y-153600500D01*
X107785572Y-153599161D01*
X107855162Y-153605382D01*
X107910343Y-153648240D01*
X107924333Y-153673324D01*
X107980602Y-153809172D01*
X107980609Y-153809185D01*
X108068210Y-153940288D01*
X108068213Y-153940292D01*
X108179707Y-154051786D01*
X108179711Y-154051789D01*
X108310814Y-154139390D01*
X108310827Y-154139397D01*
X108456498Y-154199735D01*
X108456503Y-154199737D01*
X108611153Y-154230499D01*
X108611156Y-154230500D01*
X108611158Y-154230500D01*
X108768844Y-154230500D01*
X108768845Y-154230499D01*
X108923497Y-154199737D01*
X109069179Y-154139394D01*
X109200289Y-154051789D01*
X109311789Y-153940289D01*
X109399394Y-153809179D01*
X109459737Y-153663497D01*
X109490500Y-153508842D01*
X109490500Y-153351158D01*
X109490500Y-153351155D01*
X109490499Y-153351153D01*
X109477038Y-153283479D01*
X109459737Y-153196503D01*
X109430470Y-153125846D01*
X109399397Y-153050827D01*
X109399390Y-153050814D01*
X109311789Y-152919711D01*
X109311786Y-152919707D01*
X109200292Y-152808213D01*
X109200288Y-152808210D01*
X109069185Y-152720609D01*
X109069172Y-152720602D01*
X108923501Y-152660264D01*
X108923489Y-152660261D01*
X108768845Y-152629500D01*
X108768842Y-152629500D01*
X108611158Y-152629500D01*
X108604416Y-152630840D01*
X108534825Y-152624612D01*
X108479648Y-152581748D01*
X108465666Y-152556675D01*
X108463433Y-152551285D01*
X108438298Y-152490602D01*
X108409397Y-152420827D01*
X108409390Y-152420814D01*
X108321789Y-152289711D01*
X108321786Y-152289707D01*
X108225530Y-152193451D01*
X108192045Y-152132128D01*
X108197029Y-152062436D01*
X108238901Y-152006503D01*
X108304365Y-151982086D01*
X108360662Y-151991208D01*
X108469538Y-152036306D01*
X108624188Y-152067068D01*
X108624191Y-152067069D01*
X108624193Y-152067069D01*
X108781879Y-152067069D01*
X108781880Y-152067068D01*
X108936532Y-152036306D01*
X109082214Y-151975963D01*
X109213324Y-151888358D01*
X109324824Y-151776858D01*
X109412429Y-151645748D01*
X109472772Y-151500066D01*
X109503535Y-151345411D01*
X109503535Y-151187727D01*
X109503535Y-151187724D01*
X109503534Y-151187722D01*
X109472773Y-151033079D01*
X109472772Y-151033072D01*
X109465907Y-151016498D01*
X109412432Y-150887396D01*
X109412425Y-150887383D01*
X109324824Y-150756280D01*
X109324821Y-150756276D01*
X109213327Y-150644782D01*
X109213323Y-150644779D01*
X109082220Y-150557178D01*
X109082207Y-150557171D01*
X108936536Y-150496833D01*
X108936524Y-150496830D01*
X108781880Y-150466069D01*
X108781877Y-150466069D01*
X108624193Y-150466069D01*
X108624190Y-150466069D01*
X108469545Y-150496830D01*
X108469533Y-150496833D01*
X108323862Y-150557171D01*
X108323849Y-150557178D01*
X108192746Y-150644779D01*
X108192742Y-150644782D01*
X108081248Y-150756276D01*
X108081245Y-150756280D01*
X107993644Y-150887383D01*
X107993637Y-150887396D01*
X107933299Y-151033067D01*
X107933296Y-151033079D01*
X107902535Y-151187722D01*
X107902535Y-151345415D01*
X107925478Y-151460756D01*
X107919251Y-151530347D01*
X107876388Y-151585525D01*
X107810498Y-151608769D01*
X107742501Y-151592701D01*
X107716180Y-151572628D01*
X107610292Y-151466740D01*
X107610288Y-151466737D01*
X107479185Y-151379136D01*
X107479172Y-151379129D01*
X107333501Y-151318791D01*
X107333489Y-151318788D01*
X107178845Y-151288027D01*
X107178842Y-151288027D01*
X107021158Y-151288027D01*
X107021155Y-151288027D01*
X106866510Y-151318788D01*
X106866498Y-151318791D01*
X106720827Y-151379129D01*
X106720814Y-151379136D01*
X106589711Y-151466737D01*
X106589707Y-151466740D01*
X106478213Y-151578234D01*
X106478210Y-151578238D01*
X106390609Y-151709341D01*
X106390602Y-151709354D01*
X106330264Y-151855025D01*
X106330261Y-151855037D01*
X106299500Y-152009680D01*
X106299500Y-152167373D01*
X106330261Y-152322016D01*
X106330263Y-152322024D01*
X106353469Y-152378049D01*
X106360938Y-152447516D01*
X106329663Y-152509995D01*
X106269575Y-152545648D01*
X106238908Y-152549500D01*
X106221155Y-152549500D01*
X106066510Y-152580261D01*
X106066498Y-152580264D01*
X105920822Y-152640604D01*
X105920820Y-152640605D01*
X105918885Y-152641899D01*
X105917717Y-152642264D01*
X105915451Y-152643476D01*
X105915221Y-152643045D01*
X105852206Y-152662773D01*
X105784827Y-152644285D01*
X105781115Y-152641899D01*
X105779179Y-152640605D01*
X105779177Y-152640604D01*
X105633501Y-152580264D01*
X105633489Y-152580261D01*
X105478845Y-152549500D01*
X105478842Y-152549500D01*
X105321158Y-152549500D01*
X105321155Y-152549500D01*
X105166510Y-152580261D01*
X105166498Y-152580264D01*
X105020822Y-152640604D01*
X105020820Y-152640605D01*
X105018885Y-152641899D01*
X105017717Y-152642264D01*
X105015451Y-152643476D01*
X105015221Y-152643045D01*
X104952206Y-152662773D01*
X104884827Y-152644285D01*
X104881115Y-152641899D01*
X104879179Y-152640605D01*
X104879177Y-152640604D01*
X104733501Y-152580264D01*
X104733489Y-152580261D01*
X104578845Y-152549500D01*
X104578842Y-152549500D01*
X104421158Y-152549500D01*
X104421155Y-152549500D01*
X104266510Y-152580261D01*
X104266498Y-152580264D01*
X104120822Y-152640604D01*
X104120820Y-152640605D01*
X104118885Y-152641899D01*
X104117717Y-152642264D01*
X104115451Y-152643476D01*
X104115221Y-152643045D01*
X104052206Y-152662773D01*
X103984827Y-152644285D01*
X103981115Y-152641899D01*
X103979179Y-152640605D01*
X103979177Y-152640604D01*
X103833501Y-152580264D01*
X103833489Y-152580261D01*
X103678845Y-152549500D01*
X103678842Y-152549500D01*
X103521158Y-152549500D01*
X103521151Y-152549500D01*
X103512177Y-152551285D01*
X103442586Y-152545052D01*
X103400314Y-152517347D01*
X103308180Y-152425213D01*
X103308176Y-152425210D01*
X103177073Y-152337609D01*
X103177060Y-152337602D01*
X103031389Y-152277264D01*
X103031377Y-152277261D01*
X102876733Y-152246500D01*
X102876730Y-152246500D01*
X102719046Y-152246500D01*
X102719043Y-152246500D01*
X102564398Y-152277261D01*
X102564386Y-152277264D01*
X102418715Y-152337602D01*
X102418702Y-152337609D01*
X102287599Y-152425210D01*
X102287595Y-152425213D01*
X102176101Y-152536707D01*
X102176098Y-152536711D01*
X102088497Y-152667814D01*
X102088490Y-152667827D01*
X102028152Y-152813498D01*
X102028149Y-152813510D01*
X101997388Y-152968153D01*
X96919011Y-152968153D01*
X96919011Y-152825452D01*
X96919011Y-152825449D01*
X96919010Y-152825447D01*
X96915582Y-152808213D01*
X96888248Y-152670797D01*
X96881197Y-152653775D01*
X96827908Y-152525121D01*
X96827901Y-152525108D01*
X96740300Y-152394005D01*
X96740297Y-152394001D01*
X96628803Y-152282507D01*
X96628799Y-152282504D01*
X96497696Y-152194903D01*
X96497683Y-152194896D01*
X96352012Y-152134558D01*
X96352000Y-152134555D01*
X96197356Y-152103794D01*
X96197353Y-152103794D01*
X96039669Y-152103794D01*
X96039666Y-152103794D01*
X95885021Y-152134555D01*
X95885009Y-152134558D01*
X95739338Y-152194896D01*
X95739325Y-152194903D01*
X95608222Y-152282504D01*
X95608218Y-152282507D01*
X95496724Y-152394001D01*
X95496721Y-152394005D01*
X95409120Y-152525108D01*
X95409115Y-152525118D01*
X95355824Y-152653775D01*
X95311983Y-152708178D01*
X95245689Y-152730243D01*
X95177989Y-152712964D01*
X95153582Y-152694003D01*
X95037792Y-152578213D01*
X95037788Y-152578210D01*
X94906685Y-152490609D01*
X94906672Y-152490602D01*
X94761001Y-152430264D01*
X94760989Y-152430261D01*
X94606345Y-152399500D01*
X94606342Y-152399500D01*
X94448658Y-152399500D01*
X94448655Y-152399500D01*
X94294010Y-152430261D01*
X94293998Y-152430264D01*
X94148327Y-152490602D01*
X94148314Y-152490609D01*
X94017211Y-152578210D01*
X94017207Y-152578213D01*
X93905713Y-152689707D01*
X93905710Y-152689711D01*
X93818109Y-152820814D01*
X93818102Y-152820827D01*
X93757764Y-152966498D01*
X93757761Y-152966508D01*
X93746117Y-153025049D01*
X93713732Y-153086959D01*
X93653016Y-153121534D01*
X93583247Y-153117794D01*
X93526575Y-153076927D01*
X93500994Y-153011909D01*
X93500500Y-153000857D01*
X93500500Y-151171153D01*
X96499500Y-151171153D01*
X96499500Y-151328846D01*
X96530261Y-151483489D01*
X96530264Y-151483501D01*
X96590602Y-151629172D01*
X96590609Y-151629185D01*
X96678210Y-151760288D01*
X96678213Y-151760292D01*
X96789707Y-151871786D01*
X96789711Y-151871789D01*
X96920814Y-151959390D01*
X96920827Y-151959397D01*
X97034553Y-152006503D01*
X97066503Y-152019737D01*
X97221153Y-152050499D01*
X97221156Y-152050500D01*
X97221158Y-152050500D01*
X97378844Y-152050500D01*
X97378845Y-152050499D01*
X97533497Y-152019737D01*
X97679179Y-151959394D01*
X97681110Y-151958103D01*
X97682276Y-151957737D01*
X97684546Y-151956525D01*
X97684776Y-151956955D01*
X97747786Y-151937226D01*
X97815166Y-151955710D01*
X97818850Y-151958077D01*
X97820821Y-151959394D01*
X97820824Y-151959395D01*
X97820827Y-151959397D01*
X97934553Y-152006503D01*
X97966503Y-152019737D01*
X98121153Y-152050499D01*
X98121156Y-152050500D01*
X98121158Y-152050500D01*
X98278844Y-152050500D01*
X98278845Y-152050499D01*
X98433497Y-152019737D01*
X98579179Y-151959394D01*
X98581110Y-151958103D01*
X98582276Y-151957737D01*
X98584546Y-151956525D01*
X98584776Y-151956955D01*
X98647786Y-151937226D01*
X98715166Y-151955710D01*
X98718850Y-151958077D01*
X98720821Y-151959394D01*
X98720824Y-151959395D01*
X98720827Y-151959397D01*
X98834553Y-152006503D01*
X98866503Y-152019737D01*
X99021153Y-152050499D01*
X99021156Y-152050500D01*
X99021158Y-152050500D01*
X99178844Y-152050500D01*
X99178845Y-152050499D01*
X99333497Y-152019737D01*
X99479179Y-151959394D01*
X99481110Y-151958103D01*
X99482276Y-151957737D01*
X99484546Y-151956525D01*
X99484776Y-151956955D01*
X99547786Y-151937226D01*
X99615166Y-151955710D01*
X99618850Y-151958077D01*
X99620821Y-151959394D01*
X99620824Y-151959395D01*
X99620827Y-151959397D01*
X99734553Y-152006503D01*
X99766503Y-152019737D01*
X99921153Y-152050499D01*
X99921156Y-152050500D01*
X99921158Y-152050500D01*
X100078844Y-152050500D01*
X100078845Y-152050499D01*
X100233497Y-152019737D01*
X100379179Y-151959394D01*
X100510289Y-151871789D01*
X100621789Y-151760289D01*
X100709394Y-151629179D01*
X100769737Y-151483497D01*
X100800500Y-151328842D01*
X100800500Y-151171158D01*
X100800500Y-151171155D01*
X100800499Y-151171153D01*
X100773034Y-151033079D01*
X100769737Y-151016503D01*
X100716260Y-150887396D01*
X100709397Y-150870827D01*
X100709390Y-150870814D01*
X100621789Y-150739711D01*
X100621786Y-150739707D01*
X100510292Y-150628213D01*
X100510288Y-150628210D01*
X100412147Y-150562634D01*
X100367342Y-150509022D01*
X100358635Y-150439697D01*
X100366477Y-150412080D01*
X100419735Y-150283501D01*
X100419737Y-150283497D01*
X100450500Y-150128842D01*
X100450500Y-149971158D01*
X100450500Y-149971155D01*
X100450499Y-149971153D01*
X100419738Y-149816510D01*
X100419737Y-149816503D01*
X100419735Y-149816498D01*
X100359397Y-149670827D01*
X100359390Y-149670814D01*
X100271789Y-149539711D01*
X100271786Y-149539707D01*
X100160292Y-149428213D01*
X100160288Y-149428210D01*
X100029185Y-149340609D01*
X100029172Y-149340602D01*
X99883501Y-149280264D01*
X99883489Y-149280261D01*
X99728845Y-149249500D01*
X99728842Y-149249500D01*
X99571158Y-149249500D01*
X99571155Y-149249500D01*
X99416510Y-149280261D01*
X99416498Y-149280264D01*
X99270827Y-149340602D01*
X99270814Y-149340609D01*
X99139711Y-149428210D01*
X99139707Y-149428213D01*
X99028213Y-149539707D01*
X99028210Y-149539711D01*
X98940609Y-149670814D01*
X98940602Y-149670827D01*
X98880264Y-149816498D01*
X98880261Y-149816510D01*
X98849500Y-149971153D01*
X98849500Y-150128846D01*
X98880261Y-150283489D01*
X98880264Y-150283501D01*
X98900362Y-150332022D01*
X98901201Y-150339833D01*
X98905341Y-150346515D01*
X98904884Y-150374082D01*
X98907831Y-150401492D01*
X98904313Y-150408519D01*
X98904183Y-150416375D01*
X98888897Y-150439315D01*
X98876555Y-150463971D01*
X98868813Y-150469456D01*
X98865440Y-150474519D01*
X98839302Y-150490366D01*
X98835437Y-150493106D01*
X98834336Y-150493586D01*
X98720821Y-150540606D01*
X98709733Y-150548014D01*
X98699636Y-150552425D01*
X98675459Y-150555493D01*
X98652206Y-150562773D01*
X98641420Y-150559813D01*
X98630322Y-150561222D01*
X98608325Y-150550732D01*
X98584827Y-150544285D01*
X98581115Y-150541899D01*
X98579179Y-150540605D01*
X98579177Y-150540604D01*
X98433501Y-150480264D01*
X98433489Y-150480261D01*
X98278845Y-150449500D01*
X98278842Y-150449500D01*
X98121158Y-150449500D01*
X98121155Y-150449500D01*
X97966510Y-150480261D01*
X97966498Y-150480264D01*
X97820822Y-150540604D01*
X97820820Y-150540605D01*
X97818885Y-150541899D01*
X97817717Y-150542264D01*
X97815451Y-150543476D01*
X97815221Y-150543045D01*
X97752206Y-150562773D01*
X97684827Y-150544285D01*
X97681115Y-150541899D01*
X97679179Y-150540605D01*
X97679177Y-150540604D01*
X97533501Y-150480264D01*
X97533489Y-150480261D01*
X97378845Y-150449500D01*
X97378842Y-150449500D01*
X97221158Y-150449500D01*
X97221155Y-150449500D01*
X97066510Y-150480261D01*
X97066498Y-150480264D01*
X96920827Y-150540602D01*
X96920814Y-150540609D01*
X96789711Y-150628210D01*
X96789707Y-150628213D01*
X96678213Y-150739707D01*
X96678210Y-150739711D01*
X96590609Y-150870814D01*
X96590602Y-150870827D01*
X96530264Y-151016498D01*
X96530261Y-151016510D01*
X96499500Y-151171153D01*
X93500500Y-151171153D01*
X93500500Y-148021153D01*
X98299500Y-148021153D01*
X98299500Y-148178846D01*
X98330261Y-148333489D01*
X98330264Y-148333501D01*
X98390602Y-148479172D01*
X98390609Y-148479185D01*
X98478210Y-148610288D01*
X98478213Y-148610292D01*
X98589707Y-148721786D01*
X98589711Y-148721789D01*
X98720814Y-148809390D01*
X98720827Y-148809397D01*
X98820060Y-148850500D01*
X98866503Y-148869737D01*
X99021153Y-148900499D01*
X99021156Y-148900500D01*
X99021158Y-148900500D01*
X99178844Y-148900500D01*
X99178845Y-148900499D01*
X99333497Y-148869737D01*
X99479179Y-148809394D01*
X99610289Y-148721789D01*
X99721789Y-148610289D01*
X99809394Y-148479179D01*
X99869737Y-148333497D01*
X99900500Y-148178842D01*
X99900500Y-148021158D01*
X99900500Y-148021155D01*
X99894155Y-147989258D01*
X99894155Y-147989257D01*
X99890554Y-147971153D01*
X109087050Y-147971153D01*
X109087050Y-148128846D01*
X109117811Y-148283489D01*
X109117814Y-148283501D01*
X109178152Y-148429172D01*
X109178159Y-148429185D01*
X109265760Y-148560288D01*
X109265763Y-148560292D01*
X109377257Y-148671786D01*
X109377261Y-148671789D01*
X109508364Y-148759390D01*
X109508377Y-148759397D01*
X109654048Y-148819735D01*
X109654053Y-148819737D01*
X109808703Y-148850499D01*
X109808706Y-148850500D01*
X109808708Y-148850500D01*
X109966394Y-148850500D01*
X109966395Y-148850499D01*
X110121047Y-148819737D01*
X110266729Y-148759394D01*
X110397839Y-148671789D01*
X110509339Y-148560289D01*
X110596944Y-148429179D01*
X110657287Y-148283497D01*
X110688050Y-148128842D01*
X110688050Y-147971158D01*
X110688050Y-147971155D01*
X110688049Y-147971153D01*
X110667234Y-147866510D01*
X110657287Y-147816503D01*
X110617652Y-147720814D01*
X110596947Y-147670827D01*
X110596940Y-147670814D01*
X110509339Y-147539711D01*
X110509336Y-147539707D01*
X110397842Y-147428213D01*
X110397838Y-147428210D01*
X110266735Y-147340609D01*
X110266722Y-147340602D01*
X110121051Y-147280264D01*
X110121039Y-147280261D01*
X109966395Y-147249500D01*
X109966392Y-147249500D01*
X109808708Y-147249500D01*
X109808705Y-147249500D01*
X109654060Y-147280261D01*
X109654048Y-147280264D01*
X109508377Y-147340602D01*
X109508364Y-147340609D01*
X109377261Y-147428210D01*
X109377257Y-147428213D01*
X109265763Y-147539707D01*
X109265760Y-147539711D01*
X109178159Y-147670814D01*
X109178152Y-147670827D01*
X109117814Y-147816498D01*
X109117811Y-147816510D01*
X109087050Y-147971153D01*
X99890554Y-147971153D01*
X99869738Y-147866510D01*
X99869737Y-147866503D01*
X99869735Y-147866498D01*
X99809397Y-147720827D01*
X99809389Y-147720813D01*
X99797819Y-147703497D01*
X99776940Y-147636820D01*
X99795424Y-147569440D01*
X99847402Y-147522749D01*
X99853458Y-147520047D01*
X99879179Y-147509394D01*
X100010289Y-147421789D01*
X100121789Y-147310289D01*
X100209394Y-147179179D01*
X100269737Y-147033497D01*
X100293598Y-146913542D01*
X100325983Y-146851631D01*
X100386698Y-146817057D01*
X100456468Y-146820796D01*
X100462623Y-146823154D01*
X100516503Y-146845472D01*
X100671153Y-146876234D01*
X100671156Y-146876235D01*
X100671158Y-146876235D01*
X100828844Y-146876235D01*
X100828845Y-146876234D01*
X100983497Y-146845472D01*
X101129179Y-146785129D01*
X101260289Y-146697524D01*
X101371789Y-146586024D01*
X101459394Y-146454914D01*
X101519737Y-146309232D01*
X101550500Y-146154577D01*
X101550500Y-145996893D01*
X101550500Y-145996890D01*
X101550499Y-145996888D01*
X101519738Y-145842245D01*
X101519738Y-145842243D01*
X101519737Y-145842238D01*
X101519735Y-145842233D01*
X101459397Y-145696562D01*
X101459390Y-145696549D01*
X101371789Y-145565446D01*
X101371786Y-145565442D01*
X101260292Y-145453948D01*
X101260288Y-145453945D01*
X101129185Y-145366344D01*
X101129172Y-145366337D01*
X100983501Y-145305999D01*
X100983489Y-145305996D01*
X100828845Y-145275235D01*
X100828842Y-145275235D01*
X100671158Y-145275235D01*
X100671155Y-145275235D01*
X100516510Y-145305996D01*
X100516498Y-145305999D01*
X100370827Y-145366337D01*
X100370814Y-145366344D01*
X100239711Y-145453945D01*
X100239707Y-145453948D01*
X100128213Y-145565442D01*
X100128210Y-145565446D01*
X100040609Y-145696549D01*
X100040602Y-145696562D01*
X99980264Y-145842233D01*
X99980261Y-145842243D01*
X99956401Y-145962193D01*
X99924016Y-146024104D01*
X99863300Y-146058678D01*
X99793530Y-146054937D01*
X99787343Y-146052566D01*
X99733497Y-146030263D01*
X99733489Y-146030261D01*
X99578845Y-145999500D01*
X99578842Y-145999500D01*
X99421158Y-145999500D01*
X99421155Y-145999500D01*
X99266510Y-146030261D01*
X99266498Y-146030264D01*
X99120827Y-146090602D01*
X99120814Y-146090609D01*
X98989711Y-146178210D01*
X98989707Y-146178213D01*
X98878213Y-146289707D01*
X98878210Y-146289711D01*
X98790609Y-146420814D01*
X98790602Y-146420827D01*
X98730264Y-146566498D01*
X98730261Y-146566510D01*
X98699500Y-146721153D01*
X98699500Y-146878846D01*
X98730261Y-147033489D01*
X98730264Y-147033501D01*
X98790602Y-147179172D01*
X98790609Y-147179185D01*
X98802181Y-147196503D01*
X98823059Y-147263180D01*
X98804575Y-147330560D01*
X98752596Y-147377251D01*
X98746535Y-147379954D01*
X98720823Y-147390604D01*
X98720814Y-147390609D01*
X98589711Y-147478210D01*
X98589707Y-147478213D01*
X98478213Y-147589707D01*
X98478210Y-147589711D01*
X98390609Y-147720814D01*
X98390602Y-147720827D01*
X98330264Y-147866498D01*
X98330261Y-147866510D01*
X98299500Y-148021153D01*
X93500500Y-148021153D01*
X93500500Y-146721153D01*
X95939500Y-146721153D01*
X95939500Y-146878846D01*
X95970261Y-147033489D01*
X95970264Y-147033501D01*
X96030602Y-147179172D01*
X96030609Y-147179185D01*
X96118210Y-147310288D01*
X96118213Y-147310292D01*
X96229707Y-147421786D01*
X96229711Y-147421789D01*
X96360814Y-147509390D01*
X96360827Y-147509397D01*
X96434013Y-147539711D01*
X96506503Y-147569737D01*
X96661153Y-147600499D01*
X96661156Y-147600500D01*
X96661158Y-147600500D01*
X96818844Y-147600500D01*
X96818845Y-147600499D01*
X96973497Y-147569737D01*
X97119179Y-147509394D01*
X97250289Y-147421789D01*
X97361789Y-147310289D01*
X97449394Y-147179179D01*
X97509737Y-147033497D01*
X97540500Y-146878842D01*
X97540500Y-146721158D01*
X97540500Y-146721155D01*
X97540499Y-146721153D01*
X97535798Y-146697521D01*
X97509737Y-146566503D01*
X97509735Y-146566498D01*
X97449397Y-146420827D01*
X97449390Y-146420814D01*
X97361789Y-146289711D01*
X97361786Y-146289707D01*
X97250292Y-146178213D01*
X97250288Y-146178210D01*
X97119185Y-146090609D01*
X97119172Y-146090602D01*
X96973501Y-146030264D01*
X96973489Y-146030261D01*
X96818845Y-145999500D01*
X96818842Y-145999500D01*
X96661158Y-145999500D01*
X96661155Y-145999500D01*
X96506510Y-146030261D01*
X96506498Y-146030264D01*
X96360827Y-146090602D01*
X96360814Y-146090609D01*
X96229711Y-146178210D01*
X96229707Y-146178213D01*
X96118213Y-146289707D01*
X96118210Y-146289711D01*
X96030609Y-146420814D01*
X96030602Y-146420827D01*
X95970264Y-146566498D01*
X95970261Y-146566510D01*
X95939500Y-146721153D01*
X93500500Y-146721153D01*
X93500500Y-144721153D01*
X95812000Y-144721153D01*
X95812000Y-144878846D01*
X95842761Y-145033489D01*
X95842764Y-145033501D01*
X95903102Y-145179172D01*
X95903109Y-145179185D01*
X95990710Y-145310288D01*
X95990713Y-145310292D01*
X96102207Y-145421786D01*
X96102211Y-145421789D01*
X96233314Y-145509390D01*
X96233327Y-145509397D01*
X96378998Y-145569735D01*
X96379003Y-145569737D01*
X96533653Y-145600499D01*
X96533656Y-145600500D01*
X96533658Y-145600500D01*
X96691344Y-145600500D01*
X96691345Y-145600499D01*
X96845997Y-145569737D01*
X96991679Y-145509394D01*
X97122789Y-145421789D01*
X97234289Y-145310289D01*
X97321894Y-145179179D01*
X97382237Y-145033497D01*
X97413000Y-144878842D01*
X97413000Y-144721158D01*
X97413000Y-144721155D01*
X97412999Y-144721153D01*
X97382237Y-144566503D01*
X97354898Y-144500500D01*
X97321897Y-144420827D01*
X97321890Y-144420814D01*
X97234289Y-144289711D01*
X97234286Y-144289707D01*
X97122792Y-144178213D01*
X97122788Y-144178210D01*
X96991685Y-144090609D01*
X96991672Y-144090602D01*
X96846001Y-144030264D01*
X96845989Y-144030261D01*
X96691345Y-143999500D01*
X96691342Y-143999500D01*
X96533658Y-143999500D01*
X96533655Y-143999500D01*
X96379010Y-144030261D01*
X96378998Y-144030264D01*
X96233327Y-144090602D01*
X96233314Y-144090609D01*
X96102211Y-144178210D01*
X96102207Y-144178213D01*
X95990713Y-144289707D01*
X95990710Y-144289711D01*
X95903109Y-144420814D01*
X95903102Y-144420827D01*
X95842764Y-144566498D01*
X95842761Y-144566510D01*
X95812000Y-144721153D01*
X93500500Y-144721153D01*
X93500500Y-142281153D01*
X95619500Y-142281153D01*
X95619500Y-142438846D01*
X95650261Y-142593489D01*
X95650264Y-142593501D01*
X95710602Y-142739172D01*
X95710609Y-142739185D01*
X95798210Y-142870288D01*
X95798213Y-142870292D01*
X95909707Y-142981786D01*
X95909711Y-142981789D01*
X96040814Y-143069390D01*
X96040827Y-143069397D01*
X96186498Y-143129735D01*
X96186503Y-143129737D01*
X96341153Y-143160499D01*
X96341156Y-143160500D01*
X96341158Y-143160500D01*
X96498844Y-143160500D01*
X96498845Y-143160499D01*
X96653497Y-143129737D01*
X96799179Y-143069394D01*
X96930289Y-142981789D01*
X97041789Y-142870289D01*
X97129394Y-142739179D01*
X97140246Y-142712981D01*
X97186836Y-142600500D01*
X97189737Y-142593497D01*
X97220500Y-142438842D01*
X97220500Y-142281158D01*
X97220500Y-142281155D01*
X97220499Y-142281153D01*
X97200215Y-142179179D01*
X97189737Y-142126503D01*
X97181842Y-142107443D01*
X97129397Y-141980827D01*
X97129390Y-141980814D01*
X97041789Y-141849711D01*
X97041786Y-141849707D01*
X96930292Y-141738213D01*
X96930288Y-141738210D01*
X96799185Y-141650609D01*
X96799172Y-141650602D01*
X96653501Y-141590264D01*
X96653489Y-141590261D01*
X96498845Y-141559500D01*
X96498842Y-141559500D01*
X96341158Y-141559500D01*
X96341155Y-141559500D01*
X96186510Y-141590261D01*
X96186498Y-141590264D01*
X96040827Y-141650602D01*
X96040814Y-141650609D01*
X95909711Y-141738210D01*
X95909707Y-141738213D01*
X95798213Y-141849707D01*
X95798210Y-141849711D01*
X95710609Y-141980814D01*
X95710602Y-141980827D01*
X95650264Y-142126498D01*
X95650261Y-142126510D01*
X95619500Y-142281153D01*
X93500500Y-142281153D01*
X93500500Y-141146555D01*
X98124902Y-141146555D01*
X98124902Y-141304248D01*
X98155663Y-141458891D01*
X98155666Y-141458903D01*
X98216004Y-141604574D01*
X98216011Y-141604587D01*
X98303612Y-141735690D01*
X98303615Y-141735694D01*
X98415109Y-141847188D01*
X98415113Y-141847191D01*
X98546216Y-141934792D01*
X98546225Y-141934797D01*
X98628062Y-141968695D01*
X98682465Y-142012536D01*
X98704530Y-142078830D01*
X98702227Y-142107443D01*
X98699500Y-142121153D01*
X98699500Y-142278846D01*
X98730261Y-142433489D01*
X98730264Y-142433501D01*
X98790602Y-142579172D01*
X98790609Y-142579185D01*
X98878210Y-142710288D01*
X98878213Y-142710292D01*
X98989707Y-142821786D01*
X98989711Y-142821789D01*
X99120814Y-142909390D01*
X99120827Y-142909397D01*
X99266498Y-142969735D01*
X99266503Y-142969737D01*
X99354318Y-142987204D01*
X99401098Y-142996510D01*
X99463009Y-143028895D01*
X99497583Y-143089610D01*
X99493844Y-143159380D01*
X99480009Y-143187017D01*
X99390612Y-143320809D01*
X99390602Y-143320827D01*
X99330264Y-143466498D01*
X99330261Y-143466510D01*
X99299500Y-143621153D01*
X99299500Y-143778846D01*
X99330261Y-143933489D01*
X99330264Y-143933501D01*
X99390602Y-144079172D01*
X99390609Y-144079185D01*
X99478210Y-144210288D01*
X99478213Y-144210292D01*
X99589707Y-144321786D01*
X99589711Y-144321789D01*
X99720814Y-144409390D01*
X99720827Y-144409397D01*
X99866498Y-144469735D01*
X99866503Y-144469737D01*
X100021153Y-144500499D01*
X100021156Y-144500500D01*
X100021158Y-144500500D01*
X100178844Y-144500500D01*
X100178845Y-144500499D01*
X100333497Y-144469737D01*
X100444055Y-144423943D01*
X101225238Y-144423943D01*
X101225238Y-144581636D01*
X101255999Y-144736279D01*
X101256002Y-144736291D01*
X101316340Y-144881962D01*
X101316347Y-144881975D01*
X101403948Y-145013078D01*
X101403951Y-145013082D01*
X101515445Y-145124576D01*
X101515449Y-145124579D01*
X101646552Y-145212180D01*
X101646565Y-145212187D01*
X101792236Y-145272525D01*
X101792241Y-145272527D01*
X101946891Y-145303289D01*
X101946894Y-145303290D01*
X101946896Y-145303290D01*
X102104582Y-145303290D01*
X102104583Y-145303289D01*
X102259235Y-145272527D01*
X102404917Y-145212184D01*
X102536027Y-145124579D01*
X102647527Y-145013079D01*
X102735132Y-144881969D01*
X102795475Y-144736287D01*
X102826238Y-144581632D01*
X102826238Y-144423948D01*
X102826238Y-144423945D01*
X102826237Y-144423943D01*
X102805917Y-144321788D01*
X102795475Y-144269293D01*
X102795473Y-144269288D01*
X102735135Y-144123617D01*
X102735128Y-144123604D01*
X102647527Y-143992501D01*
X102647524Y-143992497D01*
X102558162Y-143903135D01*
X105307698Y-143903135D01*
X105307698Y-144060828D01*
X105338459Y-144215471D01*
X105338462Y-144215483D01*
X105398800Y-144361154D01*
X105398807Y-144361167D01*
X105486408Y-144492270D01*
X105486411Y-144492274D01*
X105597905Y-144603768D01*
X105597909Y-144603771D01*
X105729012Y-144691372D01*
X105729025Y-144691379D01*
X105837454Y-144736291D01*
X105874701Y-144751719D01*
X106029351Y-144782481D01*
X106029354Y-144782482D01*
X106029356Y-144782482D01*
X106187042Y-144782482D01*
X106187043Y-144782481D01*
X106341695Y-144751719D01*
X106487377Y-144691376D01*
X106618487Y-144603771D01*
X106729987Y-144492271D01*
X106817592Y-144361161D01*
X106877935Y-144215479D01*
X106908698Y-144060824D01*
X106908698Y-143903140D01*
X106908698Y-143903137D01*
X106908697Y-143903135D01*
X106886868Y-143793396D01*
X106877935Y-143748485D01*
X106825193Y-143621153D01*
X106817595Y-143602809D01*
X106817588Y-143602796D01*
X106729987Y-143471693D01*
X106729984Y-143471689D01*
X106618490Y-143360195D01*
X106618486Y-143360192D01*
X106487383Y-143272591D01*
X106487370Y-143272584D01*
X106341699Y-143212246D01*
X106341687Y-143212243D01*
X106187043Y-143181482D01*
X106187040Y-143181482D01*
X106029356Y-143181482D01*
X106029353Y-143181482D01*
X105874708Y-143212243D01*
X105874696Y-143212246D01*
X105729025Y-143272584D01*
X105729012Y-143272591D01*
X105597909Y-143360192D01*
X105597905Y-143360195D01*
X105486411Y-143471689D01*
X105486408Y-143471693D01*
X105398807Y-143602796D01*
X105398800Y-143602809D01*
X105338462Y-143748480D01*
X105338459Y-143748492D01*
X105307698Y-143903135D01*
X102558162Y-143903135D01*
X102536030Y-143881003D01*
X102536026Y-143881000D01*
X102404923Y-143793399D01*
X102404910Y-143793392D01*
X102259239Y-143733054D01*
X102259227Y-143733051D01*
X102104583Y-143702290D01*
X102104580Y-143702290D01*
X101946896Y-143702290D01*
X101946893Y-143702290D01*
X101792248Y-143733051D01*
X101792236Y-143733054D01*
X101646565Y-143793392D01*
X101646552Y-143793399D01*
X101515449Y-143881000D01*
X101515445Y-143881003D01*
X101403951Y-143992497D01*
X101403948Y-143992501D01*
X101316347Y-144123604D01*
X101316340Y-144123617D01*
X101256002Y-144269288D01*
X101255999Y-144269300D01*
X101225238Y-144423943D01*
X100444055Y-144423943D01*
X100451592Y-144420821D01*
X100479172Y-144409397D01*
X100479172Y-144409396D01*
X100479179Y-144409394D01*
X100610289Y-144321789D01*
X100721789Y-144210289D01*
X100809394Y-144079179D01*
X100869737Y-143933497D01*
X100900500Y-143778842D01*
X100900500Y-143621158D01*
X100900500Y-143621155D01*
X100900499Y-143621153D01*
X100896849Y-143602803D01*
X100869737Y-143466503D01*
X100869735Y-143466498D01*
X100809397Y-143320827D01*
X100809390Y-143320814D01*
X100721789Y-143189711D01*
X100721786Y-143189707D01*
X100610292Y-143078213D01*
X100610288Y-143078210D01*
X100479185Y-142990609D01*
X100479172Y-142990602D01*
X100333501Y-142930264D01*
X100333491Y-142930261D01*
X100198900Y-142903489D01*
X100136989Y-142871104D01*
X100102415Y-142810388D01*
X100106155Y-142740619D01*
X100119990Y-142712981D01*
X100121789Y-142710289D01*
X100209394Y-142579179D01*
X100240369Y-142504394D01*
X100284209Y-142449993D01*
X100330736Y-142430231D01*
X100383497Y-142419737D01*
X100529179Y-142359394D01*
X100660289Y-142271789D01*
X100771789Y-142160289D01*
X100859394Y-142029179D01*
X100919737Y-141883497D01*
X100950500Y-141728842D01*
X100950500Y-141721153D01*
X101999500Y-141721153D01*
X101999500Y-141878846D01*
X102030261Y-142033489D01*
X102030264Y-142033501D01*
X102090602Y-142179172D01*
X102090609Y-142179185D01*
X102178210Y-142310288D01*
X102178213Y-142310292D01*
X102289707Y-142421786D01*
X102289711Y-142421789D01*
X102420814Y-142509390D01*
X102420827Y-142509397D01*
X102566498Y-142569735D01*
X102566503Y-142569737D01*
X102685912Y-142593489D01*
X102721153Y-142600499D01*
X102721156Y-142600500D01*
X102721158Y-142600500D01*
X102878844Y-142600500D01*
X102878845Y-142600499D01*
X103033497Y-142569737D01*
X103179179Y-142509394D01*
X103310289Y-142421789D01*
X103421789Y-142310289D01*
X103509394Y-142179179D01*
X103569737Y-142033497D01*
X103600500Y-141878842D01*
X103600500Y-141721158D01*
X103600500Y-141721155D01*
X103600499Y-141721153D01*
X103578447Y-141610292D01*
X103569737Y-141566503D01*
X103533569Y-141479185D01*
X103509397Y-141420827D01*
X103509390Y-141420814D01*
X103421789Y-141289711D01*
X103421786Y-141289707D01*
X103310292Y-141178213D01*
X103310288Y-141178210D01*
X103179185Y-141090609D01*
X103179172Y-141090602D01*
X103033501Y-141030264D01*
X103033489Y-141030261D01*
X102878845Y-140999500D01*
X102878842Y-140999500D01*
X102721158Y-140999500D01*
X102721155Y-140999500D01*
X102566510Y-141030261D01*
X102566498Y-141030264D01*
X102420827Y-141090602D01*
X102420814Y-141090609D01*
X102289711Y-141178210D01*
X102289707Y-141178213D01*
X102178213Y-141289707D01*
X102178210Y-141289711D01*
X102090609Y-141420814D01*
X102090602Y-141420827D01*
X102030264Y-141566498D01*
X102030261Y-141566510D01*
X101999500Y-141721153D01*
X100950500Y-141721153D01*
X100950500Y-141571158D01*
X100950500Y-141571155D01*
X100950499Y-141571153D01*
X100932204Y-141479179D01*
X100919737Y-141416503D01*
X100873240Y-141304248D01*
X100859397Y-141270827D01*
X100859390Y-141270814D01*
X100771789Y-141139711D01*
X100771786Y-141139707D01*
X100660292Y-141028213D01*
X100660288Y-141028210D01*
X100529185Y-140940609D01*
X100529172Y-140940602D01*
X100383501Y-140880264D01*
X100383489Y-140880261D01*
X100228845Y-140849500D01*
X100228842Y-140849500D01*
X100071158Y-140849500D01*
X100071155Y-140849500D01*
X99916510Y-140880261D01*
X99916498Y-140880264D01*
X99802646Y-140927423D01*
X99733177Y-140934892D01*
X99670698Y-140903616D01*
X99640632Y-140860313D01*
X99634796Y-140846223D01*
X99634792Y-140846216D01*
X99547191Y-140715113D01*
X99547188Y-140715109D01*
X99435694Y-140603615D01*
X99435690Y-140603612D01*
X99304587Y-140516011D01*
X99304574Y-140516004D01*
X99158903Y-140455666D01*
X99158891Y-140455663D01*
X99004247Y-140424902D01*
X99004244Y-140424902D01*
X98846560Y-140424902D01*
X98846557Y-140424902D01*
X98691912Y-140455663D01*
X98691900Y-140455666D01*
X98546229Y-140516004D01*
X98546216Y-140516011D01*
X98415113Y-140603612D01*
X98415109Y-140603615D01*
X98303615Y-140715109D01*
X98303612Y-140715113D01*
X98216011Y-140846216D01*
X98216004Y-140846229D01*
X98155666Y-140991900D01*
X98155663Y-140991912D01*
X98124902Y-141146555D01*
X93500500Y-141146555D01*
X93500500Y-140907702D01*
X93520185Y-140840663D01*
X93572989Y-140794908D01*
X93642147Y-140784964D01*
X93648667Y-140786080D01*
X93705435Y-140797372D01*
X93721157Y-140800500D01*
X93721158Y-140800500D01*
X93878844Y-140800500D01*
X93878845Y-140800499D01*
X94033497Y-140769737D01*
X94151592Y-140720821D01*
X94179172Y-140709397D01*
X94179172Y-140709396D01*
X94179179Y-140709394D01*
X94310289Y-140621789D01*
X94421789Y-140510289D01*
X94509394Y-140379179D01*
X94516677Y-140361593D01*
X94560514Y-140307190D01*
X94626807Y-140285122D01*
X94655431Y-140287426D01*
X94721155Y-140300500D01*
X94721158Y-140300500D01*
X94878844Y-140300500D01*
X94878845Y-140300499D01*
X95033497Y-140269737D01*
X95179179Y-140209394D01*
X95310289Y-140121789D01*
X95421789Y-140010289D01*
X95509394Y-139879179D01*
X95569737Y-139733497D01*
X95600500Y-139578842D01*
X95600500Y-139421158D01*
X95600500Y-139421155D01*
X95600499Y-139421153D01*
X95569738Y-139266510D01*
X95569737Y-139266503D01*
X95530572Y-139171951D01*
X95523104Y-139102483D01*
X95554379Y-139040004D01*
X95614468Y-139004352D01*
X95645134Y-139000500D01*
X106252243Y-139000500D01*
X106319282Y-139020185D01*
G37*
%TD.AperFunction*%
%TD*%
M02*
