%TF.GenerationSoftware,KiCad,Pcbnew,10.0.1+dfsg-1*%
%TF.CreationDate,2026-04-19T22:08:52+09:00*%
%TF.ProjectId,slimevr-nugget,736c696d-6576-4722-9d6e-75676765742e,rev?*%
%TF.SameCoordinates,Original*%
%TF.FileFunction,Copper,L4,Bot*%
%TF.FilePolarity,Positive*%
%FSLAX46Y46*%
G04 Gerber Fmt 4.6, Leading zero omitted, Abs format (unit mm)*
G04 Created by KiCad (PCBNEW 10.0.1+dfsg-1) date 2026-04-19 22:08:52*
%MOMM*%
%LPD*%
G01*
G04 APERTURE LIST*
%TA.AperFunction,ComponentPad*%
%ADD10R,0.500000X0.900000*%
%TD*%
%TA.AperFunction,HeatsinkPad*%
%ADD11C,0.500000*%
%TD*%
%TA.AperFunction,HeatsinkPad*%
%ADD12R,4.100000X4.100000*%
%TD*%
%TA.AperFunction,SMDPad,CuDef*%
%ADD13C,1.500000*%
%TD*%
%TA.AperFunction,ViaPad*%
%ADD14C,0.600000*%
%TD*%
%TA.AperFunction,Conductor*%
%ADD15C,0.200000*%
%TD*%
G04 APERTURE END LIST*
D10*
%TO.P,AE1,2,Shield_2*%
%TO.N,GND*%
X111300000Y-154500000D03*
%TD*%
D11*
%TO.P,U1,49,VSS_49*%
%TO.N,GND*%
X102500000Y-147250000D03*
X102500000Y-148450000D03*
X102500000Y-149650000D03*
X102500000Y-150850000D03*
X103700000Y-147250000D03*
X103700000Y-148450000D03*
X103700000Y-149650000D03*
X103700000Y-150850000D03*
D12*
X104300000Y-149050000D03*
D11*
X104900000Y-147250000D03*
X104900000Y-148450000D03*
X104900000Y-149650000D03*
X104900000Y-150850000D03*
X106100000Y-147250000D03*
X106100000Y-148450000D03*
X106100000Y-149650000D03*
X106100000Y-150850000D03*
%TD*%
D13*
%TO.P,TP2,1,1_1*%
%TO.N,GND*%
X94400000Y-145796000D03*
%TD*%
%TO.P,TP1,1,1_1*%
%TO.N,VBUS*%
X94400000Y-143256000D03*
%TD*%
%TO.P,TP4,1,1_1*%
%TO.N,SWD*%
X94400000Y-150876000D03*
%TD*%
%TO.P,TP7,1,1_1*%
%TO.N,CHG*%
X94400000Y-140716000D03*
%TD*%
%TO.P,TP3,1,1_1*%
%TO.N,SWC*%
X94400000Y-148336000D03*
%TD*%
D14*
%TO.N,GND*%
X109600000Y-140500000D03*
X110400000Y-141300000D03*
X111200000Y-142100000D03*
X96112500Y-153712500D03*
X99800000Y-140601138D03*
X111200000Y-139700000D03*
X111200000Y-147700000D03*
X94200000Y-144800000D03*
X99800000Y-145100000D03*
X111200000Y-146100000D03*
X111200000Y-141300000D03*
X111200000Y-143700000D03*
X111200000Y-150900000D03*
X111200000Y-145300000D03*
X109500000Y-154200000D03*
X94812500Y-144800000D03*
X111200000Y-153400000D03*
X111200000Y-149300000D03*
X111200000Y-148500000D03*
X98366227Y-147110800D03*
X98100000Y-155500000D03*
X111200000Y-151649998D03*
X111200000Y-146900000D03*
X111200000Y-150100000D03*
X110400000Y-139700000D03*
X111200000Y-142900000D03*
X108632843Y-150267157D03*
X96000000Y-139400000D03*
X101200000Y-142400000D03*
X95200000Y-155200000D03*
X109800000Y-146700000D03*
X110400000Y-140500000D03*
X109000000Y-143600000D03*
X93700000Y-154800000D03*
X111200000Y-144500000D03*
X101600000Y-141000000D03*
X111200000Y-140500000D03*
%TO.N,VDD*%
X99650000Y-150050000D03*
X99100000Y-148100000D03*
X102025738Y-144502790D03*
X107000000Y-141100000D03*
X107150000Y-139350000D03*
X96118511Y-152904294D03*
X107700000Y-152800000D03*
X96400000Y-154962500D03*
X102797888Y-153047000D03*
X94527500Y-153200000D03*
%TO.N,SCL*%
X104500000Y-153350000D03*
X99100000Y-151250000D03*
%TO.N,SDA*%
X105400000Y-153350000D03*
X98200000Y-151250000D03*
%TO.N,BAT+*%
X99500000Y-142200000D03*
X98925402Y-141225402D03*
X100100000Y-143700000D03*
%TO.N,CHG*%
X96420000Y-142360000D03*
X93800000Y-140000000D03*
%TO.N,Net-(U7-ILIM)*%
X94800000Y-139500000D03*
X96612500Y-144800000D03*
%TO.N,VBUS*%
X96740000Y-146800000D03*
%TO.N,Net-(R3-Pad1)*%
X100150000Y-141650000D03*
X99500000Y-146800000D03*
%TO.N,Net-(U1-DEC4)*%
X109887550Y-148050000D03*
X106108198Y-143981982D03*
%TO.N,CLK*%
X102800000Y-141800000D03*
X100750000Y-146075735D03*
%TO.N,SDO*%
X97300000Y-151250000D03*
X106300000Y-153350000D03*
%TO.N,INT1*%
X107100000Y-152088527D03*
X97721727Y-154304743D03*
%TO.N,CS*%
X100000000Y-151250000D03*
X103600000Y-153350000D03*
%TO.N,SWD*%
X108690000Y-153430000D03*
%TO.N,SWC*%
X108703035Y-151266569D03*
%TD*%
%TO.N,GND*%
D15*
X96004000Y-147400000D02*
X94400000Y-145796000D01*
X106800000Y-154200000D02*
X105600000Y-155400000D01*
X98601138Y-140701138D02*
X98701138Y-140601138D01*
X99800000Y-140601138D02*
X101201138Y-140601138D01*
X109500000Y-154200000D02*
X106800000Y-154200000D01*
X94400000Y-145300000D02*
X94400000Y-145796000D01*
X94400000Y-145000000D02*
X94200000Y-144800000D01*
X98077027Y-147400000D02*
X96004000Y-147400000D01*
X94351413Y-145348424D02*
X94294424Y-145348424D01*
X98366227Y-147110800D02*
X98077027Y-147400000D01*
X98601138Y-140701138D02*
X98275754Y-141026521D01*
X94812500Y-144800000D02*
X94812500Y-144887500D01*
X105600000Y-155400000D02*
X98400000Y-155400000D01*
X98275754Y-141026521D02*
X98275754Y-143575754D01*
X94812500Y-144887500D02*
X94400000Y-145300000D01*
X101201138Y-140601138D02*
X101600000Y-141000000D01*
X94400000Y-145796000D02*
X94400000Y-145000000D01*
X97200000Y-145500000D02*
X97212500Y-145487500D01*
X98701138Y-140601138D02*
X99800000Y-140601138D01*
X94294424Y-145348424D02*
X94234000Y-145288000D01*
X98275754Y-143575754D02*
X99800000Y-145100000D01*
%TO.N,VDD*%
X99100000Y-148100000D02*
X99700000Y-148100000D01*
X102025738Y-144502790D02*
X101900001Y-144628527D01*
X99700000Y-148100000D02*
X101900000Y-145900000D01*
X101900000Y-144628528D02*
X102025738Y-144502790D01*
X101900000Y-145900000D02*
X101900000Y-144628528D01*
X101900001Y-144628527D02*
X101871473Y-144628527D01*
%TO.N,SCL*%
X99100000Y-151250000D02*
X99100000Y-152065685D01*
X99100000Y-152065685D02*
X101081315Y-154047000D01*
X101081315Y-154047000D02*
X103803000Y-154047000D01*
X103803000Y-154047000D02*
X104500000Y-153350000D01*
%TO.N,SDA*%
X100915630Y-154447000D02*
X104303000Y-154447000D01*
X98200000Y-151250000D02*
X98200000Y-151731371D01*
X98200000Y-151731371D02*
X100915630Y-154447000D01*
X104303000Y-154447000D02*
X105400000Y-153350000D01*
%TO.N,BAT+*%
X100200000Y-143600000D02*
X100100000Y-143700000D01*
X98925402Y-141225402D02*
X98875754Y-141275050D01*
X99500000Y-142200000D02*
X100200000Y-142900000D01*
X98875754Y-141575754D02*
X99500000Y-142200000D01*
X98875754Y-141275050D02*
X98875754Y-141575754D01*
X100200000Y-142900000D02*
X100200000Y-143600000D01*
%TO.N,CHG*%
X94400000Y-140716000D02*
X96044000Y-142360000D01*
X96044000Y-142360000D02*
X96420000Y-142360000D01*
%TO.N,Net-(U7-ILIM)*%
X97612500Y-141808500D02*
X97028000Y-141224000D01*
X96524000Y-141224000D02*
X94800000Y-139500000D01*
X96612500Y-144800000D02*
X97612500Y-143800000D01*
X97612500Y-143800000D02*
X97612500Y-141808500D01*
X97028000Y-141224000D02*
X96524000Y-141224000D01*
%TO.N,VBUS*%
X95870000Y-144726000D02*
X94400000Y-143256000D01*
X94400000Y-142700000D02*
X94400000Y-143256000D01*
X96740000Y-146800000D02*
X95870000Y-145930000D01*
X95870000Y-145930000D02*
X95870000Y-144780000D01*
X94000000Y-142856000D02*
X94400000Y-143256000D01*
X95870000Y-144780000D02*
X95870000Y-144726000D01*
%TO.N,Net-(R3-Pad1)*%
X100150000Y-141650000D02*
X100150000Y-142198529D01*
X100700000Y-145277206D02*
X99500000Y-146477206D01*
X100150000Y-142198529D02*
X100700000Y-142748529D01*
X99500000Y-146477206D02*
X99500000Y-146800000D01*
X100700000Y-142748529D02*
X100700000Y-145277206D01*
%TO.N,Net-(U1-DEC4)*%
X106108198Y-143981982D02*
X106116804Y-143990588D01*
X106116804Y-144279254D02*
X109887550Y-148050000D01*
X106116804Y-143990588D02*
X106116804Y-144279254D01*
%TO.N,CLK*%
X101400000Y-145400000D02*
X101400000Y-143240000D01*
X100750000Y-146050000D02*
X101400000Y-145400000D01*
X102800000Y-141840000D02*
X101400000Y-143240000D01*
X102800000Y-141800000D02*
X102800000Y-141840000D01*
X100750000Y-146075735D02*
X100750000Y-146050000D01*
%TO.N,SDO*%
X100749945Y-154847000D02*
X104803000Y-154847000D01*
X97300000Y-151250000D02*
X97300000Y-151397055D01*
X104803000Y-154847000D02*
X106300000Y-153350000D01*
X97300000Y-151397055D02*
X100749945Y-154847000D01*
%TO.N,INT1*%
X100300000Y-150650000D02*
X97051471Y-150650000D01*
X97583062Y-153583062D02*
X97583062Y-154166078D01*
X97051471Y-150650000D02*
X96700000Y-151001471D01*
X96700000Y-151001471D02*
X96700000Y-152700000D01*
X101697000Y-152047000D02*
X100300000Y-150650000D01*
X97583062Y-154166078D02*
X97721727Y-154304743D01*
X107100000Y-152088527D02*
X107058473Y-152047000D01*
X96700000Y-152700000D02*
X97583062Y-153583062D01*
X107058473Y-152047000D02*
X101697000Y-152047000D01*
%TO.N,CS*%
X100000000Y-151250000D02*
X100000000Y-152400000D01*
X103303000Y-153647000D02*
X103600000Y-153350000D01*
X101247000Y-153647000D02*
X103303000Y-153647000D01*
X100000000Y-152400000D02*
X101247000Y-153647000D01*
%TO.N,SWD*%
X95826000Y-149450000D02*
X94400000Y-150876000D01*
X108700000Y-153420000D02*
X108700000Y-152839998D01*
X107348529Y-151488527D02*
X101937056Y-151488527D01*
X99898529Y-149450000D02*
X95826000Y-149450000D01*
X108690000Y-153430000D02*
X108700000Y-153420000D01*
X108700000Y-152839998D02*
X107348529Y-151488527D01*
X101937056Y-151488527D02*
X99898529Y-149450000D01*
%TO.N,SWC*%
X94764000Y-148700000D02*
X99900056Y-148700000D01*
X99900056Y-148700000D02*
X101901057Y-146699000D01*
X94400000Y-148336000D02*
X94764000Y-148700000D01*
X101901057Y-146699000D02*
X106651000Y-146699000D01*
X107026000Y-147074000D02*
X107026000Y-149589534D01*
X106651000Y-146699000D02*
X107026000Y-147074000D01*
X107026000Y-149589534D02*
X108703035Y-151266569D01*
%TD*%
%TA.AperFunction,Conductor*%
%TO.N,GND*%
G36*
X93705703Y-153305429D02*
G01*
X93743477Y-153364207D01*
X93746117Y-153374951D01*
X93757761Y-153433489D01*
X93757764Y-153433501D01*
X93818102Y-153579172D01*
X93818109Y-153579185D01*
X93905710Y-153710288D01*
X93905713Y-153710292D01*
X94017207Y-153821786D01*
X94017211Y-153821789D01*
X94148314Y-153909390D01*
X94148327Y-153909397D01*
X94293998Y-153969735D01*
X94294003Y-153969737D01*
X94448653Y-154000499D01*
X94448656Y-154000500D01*
X94448658Y-154000500D01*
X94606344Y-154000500D01*
X94606345Y-154000499D01*
X94760997Y-153969737D01*
X94906679Y-153909394D01*
X95037789Y-153821789D01*
X95149289Y-153710289D01*
X95236894Y-153579179D01*
X95236895Y-153579176D01*
X95236897Y-153579173D01*
X95273789Y-153490105D01*
X95290186Y-153450518D01*
X95334026Y-153396115D01*
X95400320Y-153374050D01*
X95468020Y-153391329D01*
X95492428Y-153410290D01*
X95608218Y-153526080D01*
X95608222Y-153526083D01*
X95739325Y-153613684D01*
X95739338Y-153613691D01*
X95859563Y-153663489D01*
X95885014Y-153674031D01*
X96039664Y-153704793D01*
X96039667Y-153704794D01*
X96039669Y-153704794D01*
X96197355Y-153704794D01*
X96197356Y-153704793D01*
X96352008Y-153674031D01*
X96497690Y-153613688D01*
X96542874Y-153583497D01*
X96572989Y-153563375D01*
X96639666Y-153542497D01*
X96707046Y-153560981D01*
X96729561Y-153578796D01*
X96946243Y-153795478D01*
X96960946Y-153822405D01*
X96977539Y-153848224D01*
X96978430Y-153854424D01*
X96979728Y-153856801D01*
X96982562Y-153883159D01*
X96982562Y-153972774D01*
X96973123Y-154020226D01*
X96951990Y-154071244D01*
X96951988Y-154071252D01*
X96934891Y-154157203D01*
X96902506Y-154219114D01*
X96841790Y-154253688D01*
X96772020Y-154249947D01*
X96765822Y-154247573D01*
X96724600Y-154230499D01*
X96633497Y-154192763D01*
X96633492Y-154192762D01*
X96633489Y-154192761D01*
X96478845Y-154162000D01*
X96478842Y-154162000D01*
X96321158Y-154162000D01*
X96321155Y-154162000D01*
X96166510Y-154192761D01*
X96166498Y-154192764D01*
X96020827Y-154253102D01*
X96020814Y-154253109D01*
X95889711Y-154340710D01*
X95889707Y-154340713D01*
X95778213Y-154452207D01*
X95778210Y-154452211D01*
X95690609Y-154583314D01*
X95690602Y-154583327D01*
X95630264Y-154728998D01*
X95630261Y-154729010D01*
X95599500Y-154883653D01*
X95599500Y-155041346D01*
X95630261Y-155195989D01*
X95630264Y-155196001D01*
X95684928Y-155327973D01*
X95692397Y-155397442D01*
X95661121Y-155459921D01*
X95601032Y-155495573D01*
X95570372Y-155499425D01*
X94058669Y-155499488D01*
X93991629Y-155479806D01*
X93970983Y-155463169D01*
X93536819Y-155029005D01*
X93503334Y-154967682D01*
X93500500Y-154941324D01*
X93500500Y-153399142D01*
X93520185Y-153332103D01*
X93572989Y-153286348D01*
X93642147Y-153276404D01*
X93705703Y-153305429D01*
G37*
%TD.AperFunction*%
%TA.AperFunction,Conductor*%
G36*
X98314192Y-153291879D02*
G01*
X98340342Y-153296277D01*
X98350285Y-153303357D01*
X98355510Y-153305019D01*
X98359667Y-153310038D01*
X98373843Y-153320133D01*
X100269423Y-155215713D01*
X100269425Y-155215716D01*
X100303171Y-155249462D01*
X100341258Y-155287550D01*
X100374743Y-155348873D01*
X100372880Y-155374908D01*
X100369758Y-155418564D01*
X100338798Y-155459921D01*
X100327885Y-155474498D01*
X100302244Y-155484061D01*
X100262422Y-155498914D01*
X100253581Y-155499230D01*
X97229666Y-155499356D01*
X97162626Y-155479674D01*
X97116869Y-155426872D01*
X97106922Y-155357714D01*
X97115100Y-155327904D01*
X97169735Y-155196001D01*
X97169737Y-155195997D01*
X97186835Y-155110039D01*
X97219219Y-155048129D01*
X97279935Y-155013555D01*
X97349704Y-155017294D01*
X97355904Y-155019670D01*
X97488225Y-155074478D01*
X97488230Y-155074480D01*
X97642880Y-155105242D01*
X97642883Y-155105243D01*
X97642885Y-155105243D01*
X97800571Y-155105243D01*
X97800572Y-155105242D01*
X97955224Y-155074480D01*
X98100906Y-155014137D01*
X98232016Y-154926532D01*
X98343516Y-154815032D01*
X98431121Y-154683922D01*
X98491464Y-154538240D01*
X98522227Y-154383585D01*
X98522227Y-154225901D01*
X98522227Y-154225898D01*
X98522226Y-154225896D01*
X98508562Y-154157203D01*
X98491464Y-154071246D01*
X98483405Y-154051789D01*
X98431124Y-153925570D01*
X98431117Y-153925557D01*
X98343516Y-153794454D01*
X98343513Y-153794450D01*
X98232016Y-153682953D01*
X98228892Y-153680389D01*
X98212370Y-153656130D01*
X98193647Y-153633524D01*
X98192205Y-153626524D01*
X98189561Y-153622641D01*
X98184461Y-153599446D01*
X98183562Y-153592021D01*
X98183562Y-153504005D01*
X98177334Y-153480759D01*
X98164115Y-153431426D01*
X98163061Y-153422720D01*
X98167419Y-153396561D01*
X98168050Y-153370059D01*
X98173071Y-153362639D01*
X98174544Y-153353801D01*
X98192349Y-153334155D01*
X98207211Y-153312196D01*
X98215448Y-153308668D01*
X98221465Y-153302030D01*
X98247065Y-153295129D01*
X98271440Y-153284691D01*
X98280275Y-153286176D01*
X98288926Y-153283845D01*
X98314192Y-153291879D01*
G37*
%TD.AperFunction*%
%TA.AperFunction,Conductor*%
G36*
X106319282Y-139020185D02*
G01*
X106365037Y-139072989D01*
X106374981Y-139142147D01*
X106373860Y-139148692D01*
X106349500Y-139271155D01*
X106349500Y-139428846D01*
X106380261Y-139583489D01*
X106380264Y-139583501D01*
X106440602Y-139729172D01*
X106440609Y-139729185D01*
X106528210Y-139860288D01*
X106528213Y-139860292D01*
X106639707Y-139971786D01*
X106639711Y-139971789D01*
X106770814Y-140059390D01*
X106770818Y-140059392D01*
X106770821Y-140059394D01*
X106833547Y-140085375D01*
X106887949Y-140129215D01*
X106910014Y-140195509D01*
X106892735Y-140263208D01*
X106841599Y-140310819D01*
X106810286Y-140321553D01*
X106766507Y-140330261D01*
X106766498Y-140330264D01*
X106620827Y-140390602D01*
X106620814Y-140390609D01*
X106489711Y-140478210D01*
X106489707Y-140478213D01*
X106378213Y-140589707D01*
X106378210Y-140589711D01*
X106290609Y-140720814D01*
X106290602Y-140720827D01*
X106230264Y-140866498D01*
X106230261Y-140866510D01*
X106199500Y-141021153D01*
X106199500Y-141178846D01*
X106230261Y-141333489D01*
X106230264Y-141333501D01*
X106290602Y-141479172D01*
X106290609Y-141479185D01*
X106378210Y-141610288D01*
X106378213Y-141610292D01*
X106489707Y-141721786D01*
X106489711Y-141721789D01*
X106620814Y-141809390D01*
X106620827Y-141809397D01*
X106664733Y-141827583D01*
X106766503Y-141869737D01*
X106921153Y-141900499D01*
X106921156Y-141900500D01*
X106921158Y-141900500D01*
X107078844Y-141900500D01*
X107078845Y-141900499D01*
X107233497Y-141869737D01*
X107379179Y-141809394D01*
X107510289Y-141721789D01*
X107621789Y-141610289D01*
X107709394Y-141479179D01*
X107769737Y-141333497D01*
X107800500Y-141178842D01*
X107800500Y-141021158D01*
X107800500Y-141021155D01*
X107800499Y-141021153D01*
X107796192Y-140999500D01*
X107769737Y-140866503D01*
X107718778Y-140743475D01*
X107709397Y-140720827D01*
X107709390Y-140720814D01*
X107621789Y-140589711D01*
X107621786Y-140589707D01*
X107510292Y-140478213D01*
X107510288Y-140478210D01*
X107379185Y-140390609D01*
X107379176Y-140390604D01*
X107316453Y-140364624D01*
X107262050Y-140320783D01*
X107239985Y-140254489D01*
X107257264Y-140186790D01*
X107308401Y-140139179D01*
X107339709Y-140128447D01*
X107383497Y-140119737D01*
X107529179Y-140059394D01*
X107660289Y-139971789D01*
X107771789Y-139860289D01*
X107859394Y-139729179D01*
X107891963Y-139650547D01*
X107935803Y-139596146D01*
X108002097Y-139574080D01*
X108069796Y-139591358D01*
X108117407Y-139642495D01*
X108126297Y-139665904D01*
X108133608Y-139693186D01*
X108199500Y-139807314D01*
X108292686Y-139900500D01*
X108406814Y-139966392D01*
X108534108Y-140000500D01*
X108534110Y-140000500D01*
X109665890Y-140000500D01*
X109665892Y-140000500D01*
X109793186Y-139966392D01*
X109907314Y-139900500D01*
X110000500Y-139807314D01*
X110066392Y-139693186D01*
X110100500Y-139565892D01*
X110100500Y-139124500D01*
X110120185Y-139057461D01*
X110172989Y-139011706D01*
X110224500Y-139000500D01*
X111426000Y-139000500D01*
X111493039Y-139020185D01*
X111538794Y-139072989D01*
X111550000Y-139124500D01*
X111550000Y-155374791D01*
X111530315Y-155441830D01*
X111477511Y-155487585D01*
X111425982Y-155498791D01*
X110224482Y-155498613D01*
X110157445Y-155478919D01*
X110111698Y-155426108D01*
X110100500Y-155374613D01*
X110100500Y-154934110D01*
X110100500Y-154934108D01*
X110066392Y-154806814D01*
X110000500Y-154692686D01*
X109907314Y-154599500D01*
X109850250Y-154566554D01*
X109793187Y-154533608D01*
X109729539Y-154516554D01*
X109665892Y-154499500D01*
X108665892Y-154499500D01*
X108534108Y-154499500D01*
X108406812Y-154533608D01*
X108292686Y-154599500D01*
X108292683Y-154599502D01*
X108199502Y-154692683D01*
X108199500Y-154692686D01*
X108133608Y-154806812D01*
X108099500Y-154934108D01*
X108099500Y-155374908D01*
X108079815Y-155441947D01*
X108027011Y-155487702D01*
X107975505Y-155498908D01*
X105299583Y-155499019D01*
X105278334Y-155492780D01*
X105256246Y-155491201D01*
X105245464Y-155483130D01*
X105232543Y-155479337D01*
X105218041Y-155462602D01*
X105200312Y-155449331D01*
X105195605Y-155436711D01*
X105186786Y-155426535D01*
X105183633Y-155404616D01*
X105175894Y-155383867D01*
X105178756Y-155370707D01*
X105176839Y-155357377D01*
X105186038Y-155337232D01*
X105190745Y-155315593D01*
X105204013Y-155297868D01*
X105205862Y-155293820D01*
X105211882Y-155287353D01*
X105283520Y-155215716D01*
X105283521Y-155215713D01*
X106314664Y-154184571D01*
X106375985Y-154151088D01*
X106378152Y-154150637D01*
X106378841Y-154150500D01*
X106378842Y-154150500D01*
X106533497Y-154119737D01*
X106679179Y-154059394D01*
X106810289Y-153971789D01*
X106921789Y-153860289D01*
X107009394Y-153729179D01*
X107069737Y-153583497D01*
X107075999Y-153552012D01*
X107108382Y-153490105D01*
X107169097Y-153455529D01*
X107238866Y-153459267D01*
X107266507Y-153473103D01*
X107320814Y-153509390D01*
X107320827Y-153509397D01*
X107466498Y-153569735D01*
X107466503Y-153569737D01*
X107615859Y-153599446D01*
X107621153Y-153600499D01*
X107621156Y-153600500D01*
X107621158Y-153600500D01*
X107778842Y-153600500D01*
X107785572Y-153599161D01*
X107855162Y-153605382D01*
X107910343Y-153648240D01*
X107924333Y-153673324D01*
X107980602Y-153809172D01*
X107980609Y-153809185D01*
X108068210Y-153940288D01*
X108068213Y-153940292D01*
X108179707Y-154051786D01*
X108179711Y-154051789D01*
X108310814Y-154139390D01*
X108310827Y-154139397D01*
X108456498Y-154199735D01*
X108456503Y-154199737D01*
X108611153Y-154230499D01*
X108611156Y-154230500D01*
X108611158Y-154230500D01*
X108768844Y-154230500D01*
X108768845Y-154230499D01*
X108923497Y-154199737D01*
X109069179Y-154139394D01*
X109200289Y-154051789D01*
X109311789Y-153940289D01*
X109399394Y-153809179D01*
X109459737Y-153663497D01*
X109490500Y-153508842D01*
X109490500Y-153351158D01*
X109490500Y-153351155D01*
X109490499Y-153351153D01*
X109479355Y-153295129D01*
X109459737Y-153196503D01*
X109428684Y-153121534D01*
X109399397Y-153050827D01*
X109399390Y-153050814D01*
X109321399Y-152934092D01*
X109300521Y-152867414D01*
X109300501Y-152865201D01*
X109300501Y-152760942D01*
X109292275Y-152730243D01*
X109259577Y-152608214D01*
X109212991Y-152527524D01*
X109180524Y-152471288D01*
X109180518Y-152471280D01*
X108932707Y-152223469D01*
X108899222Y-152162146D01*
X108904206Y-152092454D01*
X108946078Y-152036521D01*
X108972936Y-152021227D01*
X109082208Y-151975966D01*
X109082211Y-151975964D01*
X109082214Y-151975963D01*
X109213324Y-151888358D01*
X109324824Y-151776858D01*
X109412429Y-151645748D01*
X109472772Y-151500066D01*
X109503535Y-151345411D01*
X109503535Y-151187727D01*
X109503535Y-151187724D01*
X109503534Y-151187722D01*
X109484201Y-151090530D01*
X109472772Y-151033072D01*
X109448479Y-150974422D01*
X109412432Y-150887396D01*
X109412425Y-150887383D01*
X109324824Y-150756280D01*
X109324821Y-150756276D01*
X109213327Y-150644782D01*
X109213323Y-150644779D01*
X109082220Y-150557178D01*
X109082207Y-150557171D01*
X108936536Y-150496833D01*
X108936526Y-150496830D01*
X108781186Y-150465931D01*
X108719276Y-150433546D01*
X108717697Y-150431995D01*
X107662819Y-149377117D01*
X107629334Y-149315794D01*
X107626500Y-149289436D01*
X107626500Y-146994943D01*
X107626499Y-146994940D01*
X107625108Y-146989747D01*
X107625107Y-146989745D01*
X107615692Y-146954608D01*
X107617355Y-146884758D01*
X107656517Y-146826895D01*
X107720746Y-146799391D01*
X107789648Y-146810977D01*
X107823148Y-146834833D01*
X109052975Y-148064660D01*
X109086460Y-148125983D01*
X109086911Y-148128149D01*
X109117811Y-148283491D01*
X109117814Y-148283501D01*
X109178152Y-148429172D01*
X109178159Y-148429185D01*
X109265760Y-148560288D01*
X109265763Y-148560292D01*
X109377257Y-148671786D01*
X109377261Y-148671789D01*
X109508364Y-148759390D01*
X109508377Y-148759397D01*
X109654048Y-148819735D01*
X109654053Y-148819737D01*
X109808703Y-148850499D01*
X109808706Y-148850500D01*
X109808708Y-148850500D01*
X109966394Y-148850500D01*
X109966395Y-148850499D01*
X110121047Y-148819737D01*
X110266729Y-148759394D01*
X110397839Y-148671789D01*
X110509339Y-148560289D01*
X110596944Y-148429179D01*
X110657287Y-148283497D01*
X110688050Y-148128842D01*
X110688050Y-147971158D01*
X110688050Y-147971155D01*
X110688049Y-147971153D01*
X110657287Y-147816503D01*
X110617652Y-147720814D01*
X110596947Y-147670827D01*
X110596940Y-147670814D01*
X110509339Y-147539711D01*
X110509336Y-147539707D01*
X110397842Y-147428213D01*
X110397838Y-147428210D01*
X110266735Y-147340609D01*
X110266722Y-147340602D01*
X110121051Y-147280264D01*
X110121041Y-147280261D01*
X109965699Y-147249361D01*
X109903788Y-147216976D01*
X109902210Y-147215425D01*
X106928838Y-144242053D01*
X106895353Y-144180730D01*
X106894902Y-144130180D01*
X106908698Y-144060826D01*
X106908698Y-143903137D01*
X106908697Y-143903135D01*
X106904294Y-143881000D01*
X106877935Y-143748485D01*
X106871542Y-143733051D01*
X106817595Y-143602809D01*
X106817588Y-143602796D01*
X106729987Y-143471693D01*
X106729984Y-143471689D01*
X106618490Y-143360195D01*
X106618486Y-143360192D01*
X106487383Y-143272591D01*
X106487370Y-143272584D01*
X106341699Y-143212246D01*
X106341687Y-143212243D01*
X106187043Y-143181482D01*
X106187040Y-143181482D01*
X106029356Y-143181482D01*
X106029353Y-143181482D01*
X105874708Y-143212243D01*
X105874696Y-143212246D01*
X105729025Y-143272584D01*
X105729012Y-143272591D01*
X105597909Y-143360192D01*
X105597905Y-143360195D01*
X105486411Y-143471689D01*
X105486408Y-143471693D01*
X105398807Y-143602796D01*
X105398800Y-143602809D01*
X105338462Y-143748480D01*
X105338459Y-143748492D01*
X105307698Y-143903135D01*
X105307698Y-144060828D01*
X105338459Y-144215471D01*
X105338462Y-144215483D01*
X105398800Y-144361154D01*
X105398807Y-144361167D01*
X105486407Y-144492269D01*
X105486408Y-144492270D01*
X105486409Y-144492271D01*
X105597909Y-144603771D01*
X105597912Y-144603773D01*
X105602621Y-144607638D01*
X105602300Y-144608029D01*
X105616011Y-144619604D01*
X105626015Y-144630185D01*
X105636284Y-144647970D01*
X105748088Y-144759774D01*
X105748090Y-144759775D01*
X105756383Y-144768068D01*
X106890166Y-145901851D01*
X106923651Y-145963174D01*
X106918667Y-146032866D01*
X106876795Y-146088799D01*
X106811331Y-146113216D01*
X106770392Y-146109307D01*
X106767343Y-146108490D01*
X106730057Y-146098499D01*
X106571943Y-146098499D01*
X106564347Y-146098499D01*
X106564331Y-146098500D01*
X102624501Y-146098500D01*
X102615815Y-146095949D01*
X102606855Y-146097238D01*
X102582816Y-146086259D01*
X102557462Y-146078815D01*
X102551534Y-146071973D01*
X102543299Y-146068213D01*
X102529010Y-146045979D01*
X102511707Y-146026011D01*
X102509419Y-146015497D01*
X102505524Y-146009436D01*
X102500501Y-145974500D01*
X102500501Y-145901851D01*
X102500501Y-145820943D01*
X102500500Y-145820939D01*
X102500500Y-145211469D01*
X102520185Y-145144430D01*
X102536819Y-145123788D01*
X102647524Y-145013082D01*
X102647527Y-145013079D01*
X102735132Y-144881969D01*
X102795475Y-144736287D01*
X102826238Y-144581632D01*
X102826238Y-144423948D01*
X102826238Y-144423945D01*
X102826237Y-144423943D01*
X102805917Y-144321789D01*
X102795475Y-144269293D01*
X102795473Y-144269288D01*
X102735135Y-144123617D01*
X102735128Y-144123604D01*
X102647527Y-143992501D01*
X102647524Y-143992497D01*
X102536030Y-143881003D01*
X102536026Y-143881000D01*
X102404923Y-143793399D01*
X102404910Y-143793392D01*
X102259239Y-143733054D01*
X102259229Y-143733051D01*
X102100308Y-143701439D01*
X102072177Y-143686724D01*
X102043297Y-143673535D01*
X102041440Y-143670645D01*
X102038397Y-143669054D01*
X102022684Y-143641461D01*
X102005523Y-143614757D01*
X102004862Y-143610163D01*
X102003823Y-143608338D01*
X102000500Y-143579822D01*
X102000500Y-143540096D01*
X102020185Y-143473057D01*
X102036815Y-143452419D01*
X102864595Y-142624638D01*
X102925916Y-142591155D01*
X102927933Y-142590734D01*
X103033497Y-142569737D01*
X103179179Y-142509394D01*
X103310289Y-142421789D01*
X103421789Y-142310289D01*
X103509394Y-142179179D01*
X103569737Y-142033497D01*
X103600500Y-141878842D01*
X103600500Y-141721158D01*
X103600500Y-141721155D01*
X103600499Y-141721153D01*
X103578447Y-141610292D01*
X103569737Y-141566503D01*
X103533569Y-141479185D01*
X103509397Y-141420827D01*
X103509390Y-141420814D01*
X103421789Y-141289711D01*
X103421786Y-141289707D01*
X103310292Y-141178213D01*
X103310288Y-141178210D01*
X103179185Y-141090609D01*
X103179172Y-141090602D01*
X103033501Y-141030264D01*
X103033489Y-141030261D01*
X102878845Y-140999500D01*
X102878842Y-140999500D01*
X102721158Y-140999500D01*
X102721155Y-140999500D01*
X102566510Y-141030261D01*
X102566498Y-141030264D01*
X102420827Y-141090602D01*
X102420814Y-141090609D01*
X102289711Y-141178210D01*
X102289707Y-141178213D01*
X102178213Y-141289707D01*
X102178210Y-141289711D01*
X102090609Y-141420814D01*
X102090602Y-141420827D01*
X102030264Y-141566498D01*
X102030261Y-141566510D01*
X101999500Y-141721153D01*
X101999500Y-141739902D01*
X101979815Y-141806941D01*
X101963181Y-141827583D01*
X101379132Y-142411632D01*
X101317809Y-142445117D01*
X101248117Y-142440133D01*
X101201196Y-142408980D01*
X101191286Y-142398461D01*
X101180520Y-142379813D01*
X101068716Y-142268009D01*
X101068713Y-142268007D01*
X100909337Y-142108631D01*
X100875852Y-142047308D01*
X100880836Y-141977616D01*
X100882436Y-141973548D01*
X100919737Y-141883497D01*
X100950500Y-141728842D01*
X100950500Y-141571158D01*
X100950500Y-141571155D01*
X100950499Y-141571153D01*
X100949573Y-141566498D01*
X100919737Y-141416503D01*
X100883069Y-141327978D01*
X100859397Y-141270827D01*
X100859390Y-141270814D01*
X100771789Y-141139711D01*
X100771786Y-141139707D01*
X100660292Y-141028213D01*
X100660288Y-141028210D01*
X100529185Y-140940609D01*
X100529172Y-140940602D01*
X100383501Y-140880264D01*
X100383489Y-140880261D01*
X100228845Y-140849500D01*
X100228842Y-140849500D01*
X100071158Y-140849500D01*
X100071155Y-140849500D01*
X99916510Y-140880261D01*
X99916498Y-140880264D01*
X99802646Y-140927423D01*
X99733177Y-140934892D01*
X99670698Y-140903616D01*
X99640632Y-140860313D01*
X99634796Y-140846223D01*
X99634792Y-140846216D01*
X99547191Y-140715113D01*
X99547188Y-140715109D01*
X99435694Y-140603615D01*
X99435690Y-140603612D01*
X99304587Y-140516011D01*
X99304574Y-140516004D01*
X99158903Y-140455666D01*
X99158891Y-140455663D01*
X99004247Y-140424902D01*
X99004244Y-140424902D01*
X98846560Y-140424902D01*
X98846557Y-140424902D01*
X98691912Y-140455663D01*
X98691900Y-140455666D01*
X98546229Y-140516004D01*
X98546216Y-140516011D01*
X98415113Y-140603612D01*
X98415109Y-140603615D01*
X98303615Y-140715109D01*
X98303612Y-140715113D01*
X98216011Y-140846216D01*
X98216004Y-140846229D01*
X98155666Y-140991900D01*
X98155663Y-140991912D01*
X98124902Y-141146555D01*
X98124902Y-141172305D01*
X98105217Y-141239344D01*
X98052413Y-141285099D01*
X97983255Y-141295043D01*
X97919699Y-141266018D01*
X97913221Y-141259986D01*
X97515590Y-140862355D01*
X97515588Y-140862352D01*
X97396717Y-140743481D01*
X97396709Y-140743475D01*
X97277326Y-140674550D01*
X97277326Y-140674549D01*
X97277321Y-140674548D01*
X97271202Y-140671014D01*
X97259786Y-140664423D01*
X97221603Y-140654192D01*
X97107057Y-140623499D01*
X96948943Y-140623499D01*
X96941347Y-140623499D01*
X96941331Y-140623500D01*
X96824097Y-140623500D01*
X96757058Y-140603815D01*
X96736416Y-140587181D01*
X95634574Y-139485339D01*
X95601089Y-139424016D01*
X95600638Y-139421849D01*
X95569738Y-139266510D01*
X95569737Y-139266503D01*
X95530572Y-139171951D01*
X95523104Y-139102483D01*
X95554379Y-139040004D01*
X95614468Y-139004352D01*
X95645134Y-139000500D01*
X106252243Y-139000500D01*
X106319282Y-139020185D01*
G37*
%TD.AperFunction*%
%TA.AperFunction,Conductor*%
G36*
X106368539Y-147319185D02*
G01*
X106414294Y-147371989D01*
X106425500Y-147423500D01*
X106425500Y-149502864D01*
X106425499Y-149502882D01*
X106425499Y-149668588D01*
X106425498Y-149668588D01*
X106427871Y-149677445D01*
X106466423Y-149821319D01*
X106482075Y-149848429D01*
X106488902Y-149860252D01*
X106488903Y-149860256D01*
X106488904Y-149860256D01*
X106545479Y-149958248D01*
X106545481Y-149958251D01*
X106664349Y-150077119D01*
X106664355Y-150077124D01*
X107263577Y-150676346D01*
X107297062Y-150737669D01*
X107292078Y-150807361D01*
X107250206Y-150863294D01*
X107184742Y-150887711D01*
X107175896Y-150888027D01*
X102237154Y-150888027D01*
X102170115Y-150868342D01*
X102149473Y-150851708D01*
X101348265Y-150050500D01*
X100461207Y-149163443D01*
X100427723Y-149102121D01*
X100432707Y-149032429D01*
X100461208Y-148988082D01*
X102113473Y-147335819D01*
X102174796Y-147302334D01*
X102201154Y-147299500D01*
X106301500Y-147299500D01*
X106368539Y-147319185D01*
G37*
%TD.AperFunction*%
%TA.AperFunction,Conductor*%
G36*
X98418203Y-141967885D02*
G01*
X98424681Y-141973917D01*
X98514103Y-142063339D01*
X98514109Y-142063344D01*
X98665425Y-142214660D01*
X98698910Y-142275983D01*
X98699361Y-142278149D01*
X98730261Y-142433491D01*
X98730264Y-142433501D01*
X98790602Y-142579172D01*
X98790609Y-142579185D01*
X98878210Y-142710288D01*
X98878213Y-142710292D01*
X98989707Y-142821786D01*
X98989711Y-142821789D01*
X99120814Y-142909390D01*
X99120827Y-142909397D01*
X99250658Y-142963174D01*
X99266503Y-142969737D01*
X99354318Y-142987204D01*
X99401098Y-142996510D01*
X99463009Y-143028895D01*
X99497583Y-143089610D01*
X99493844Y-143159380D01*
X99480009Y-143187017D01*
X99390612Y-143320809D01*
X99390602Y-143320827D01*
X99330264Y-143466498D01*
X99330261Y-143466510D01*
X99299500Y-143621153D01*
X99299500Y-143778846D01*
X99330261Y-143933489D01*
X99330264Y-143933501D01*
X99390602Y-144079172D01*
X99390609Y-144079185D01*
X99478210Y-144210288D01*
X99478213Y-144210292D01*
X99589707Y-144321786D01*
X99589711Y-144321789D01*
X99720814Y-144409390D01*
X99720827Y-144409397D01*
X99866498Y-144469735D01*
X99866503Y-144469737D01*
X99937856Y-144483930D01*
X99999691Y-144496230D01*
X100061602Y-144528615D01*
X100096176Y-144589330D01*
X100099500Y-144617847D01*
X100099500Y-144977108D01*
X100079815Y-145044147D01*
X100063181Y-145064789D01*
X99019481Y-146108488D01*
X99019480Y-146108490D01*
X98984915Y-146168360D01*
X98981372Y-146174496D01*
X98981367Y-146174504D01*
X98973064Y-146188883D01*
X98953364Y-146214556D01*
X98878208Y-146289714D01*
X98790609Y-146420814D01*
X98790602Y-146420827D01*
X98730264Y-146566498D01*
X98730261Y-146566510D01*
X98699500Y-146721153D01*
X98699500Y-146878846D01*
X98730261Y-147033489D01*
X98730264Y-147033501D01*
X98790602Y-147179172D01*
X98790609Y-147179185D01*
X98802181Y-147196503D01*
X98823059Y-147263180D01*
X98804575Y-147330560D01*
X98752596Y-147377251D01*
X98746535Y-147379954D01*
X98720823Y-147390604D01*
X98720814Y-147390609D01*
X98589711Y-147478210D01*
X98589707Y-147478213D01*
X98478213Y-147589707D01*
X98478210Y-147589711D01*
X98390609Y-147720814D01*
X98390602Y-147720827D01*
X98330264Y-147866498D01*
X98330261Y-147866508D01*
X98303769Y-147999692D01*
X98271384Y-148061603D01*
X98210668Y-148096177D01*
X98182152Y-148099500D01*
X95728102Y-148099500D01*
X95661063Y-148079815D01*
X95615308Y-148027011D01*
X95610171Y-148013819D01*
X95562306Y-147866508D01*
X95558884Y-147855975D01*
X95558882Y-147855972D01*
X95558882Y-147855970D01*
X95469523Y-147680594D01*
X95462427Y-147670827D01*
X95353828Y-147521354D01*
X95214646Y-147382172D01*
X95055405Y-147266476D01*
X95021815Y-147249361D01*
X94880029Y-147177117D01*
X94692826Y-147116290D01*
X94498422Y-147085500D01*
X94498417Y-147085500D01*
X94301583Y-147085500D01*
X94301578Y-147085500D01*
X94107173Y-147116290D01*
X93919970Y-147177117D01*
X93744590Y-147266478D01*
X93697385Y-147300775D01*
X93631578Y-147324255D01*
X93563525Y-147308429D01*
X93514830Y-147258323D01*
X93500500Y-147200457D01*
X93500500Y-144391542D01*
X93520185Y-144324503D01*
X93572989Y-144278748D01*
X93642147Y-144268804D01*
X93697384Y-144291223D01*
X93744595Y-144325524D01*
X93814523Y-144361154D01*
X93919970Y-144414882D01*
X93919972Y-144414882D01*
X93919975Y-144414884D01*
X94020317Y-144447487D01*
X94107173Y-144475709D01*
X94301578Y-144506500D01*
X94301583Y-144506500D01*
X94498422Y-144506500D01*
X94697454Y-144474976D01*
X94766747Y-144483930D01*
X94804533Y-144509768D01*
X95233181Y-144938416D01*
X95266666Y-144999739D01*
X95269500Y-145026097D01*
X95269500Y-145843330D01*
X95269499Y-145843348D01*
X95269499Y-146009054D01*
X95269498Y-146009054D01*
X95290866Y-146088799D01*
X95310423Y-146161785D01*
X95310425Y-146161788D01*
X95317766Y-146174503D01*
X95389477Y-146298712D01*
X95389481Y-146298717D01*
X95508349Y-146417585D01*
X95508355Y-146417590D01*
X95905425Y-146814660D01*
X95938910Y-146875983D01*
X95939361Y-146878149D01*
X95970261Y-147033491D01*
X95970264Y-147033501D01*
X96030602Y-147179172D01*
X96030609Y-147179185D01*
X96118210Y-147310288D01*
X96118213Y-147310292D01*
X96229707Y-147421786D01*
X96229711Y-147421789D01*
X96360814Y-147509390D01*
X96360827Y-147509397D01*
X96434013Y-147539711D01*
X96506503Y-147569737D01*
X96661153Y-147600499D01*
X96661156Y-147600500D01*
X96661158Y-147600500D01*
X96818844Y-147600500D01*
X96818845Y-147600499D01*
X96973497Y-147569737D01*
X97119179Y-147509394D01*
X97250289Y-147421789D01*
X97361789Y-147310289D01*
X97449394Y-147179179D01*
X97509737Y-147033497D01*
X97540500Y-146878842D01*
X97540500Y-146721158D01*
X97540500Y-146721155D01*
X97540499Y-146721153D01*
X97515103Y-146593480D01*
X97509737Y-146566503D01*
X97509735Y-146566498D01*
X97449397Y-146420827D01*
X97449390Y-146420814D01*
X97361789Y-146289711D01*
X97361786Y-146289707D01*
X97250292Y-146178213D01*
X97250288Y-146178210D01*
X97119185Y-146090609D01*
X97119172Y-146090602D01*
X96973501Y-146030264D01*
X96973491Y-146030261D01*
X96818151Y-145999362D01*
X96801394Y-145990596D01*
X96782916Y-145986577D01*
X96757877Y-145967832D01*
X96756241Y-145966977D01*
X96754662Y-145965426D01*
X96601417Y-145812181D01*
X96567932Y-145750858D01*
X96572916Y-145681166D01*
X96614788Y-145625233D01*
X96680252Y-145600816D01*
X96689098Y-145600500D01*
X96691344Y-145600500D01*
X96691345Y-145600499D01*
X96845997Y-145569737D01*
X96991679Y-145509394D01*
X97122789Y-145421789D01*
X97234289Y-145310289D01*
X97321894Y-145179179D01*
X97382237Y-145033497D01*
X97412378Y-144881969D01*
X97413138Y-144878150D01*
X97445523Y-144816239D01*
X97447015Y-144814719D01*
X98093020Y-144168716D01*
X98172077Y-144031784D01*
X98213001Y-143879057D01*
X98213001Y-143720942D01*
X98213001Y-143713347D01*
X98213000Y-143713329D01*
X98213000Y-142061598D01*
X98232685Y-141994559D01*
X98285489Y-141948804D01*
X98354647Y-141938860D01*
X98418203Y-141967885D01*
G37*
%TD.AperFunction*%
%TD*%
M02*
