%TF.GenerationSoftware,KiCad,Pcbnew,10.0.1+dfsg-1*%
%TF.CreationDate,2026-04-19T22:08:52+09:00*%
%TF.ProjectId,slimevr-nugget,736c696d-6576-4722-9d6e-75676765742e,rev?*%
%TF.SameCoordinates,Original*%
%TF.FileFunction,Copper,L3,Inr*%
%TF.FilePolarity,Positive*%
%FSLAX46Y46*%
G04 Gerber Fmt 4.6, Leading zero omitted, Abs format (unit mm)*
G04 Created by KiCad (PCBNEW 10.0.1+dfsg-1) date 2026-04-19 22:08:52*
%MOMM*%
%LPD*%
G01*
G04 APERTURE LIST*
%TA.AperFunction,Conductor*%
%ADD10C,0.200000*%
%TD*%
%TA.AperFunction,ComponentPad*%
%ADD11R,0.500000X0.900000*%
%TD*%
%TA.AperFunction,HeatsinkPad*%
%ADD12C,0.500000*%
%TD*%
%TA.AperFunction,ViaPad*%
%ADD13C,0.600000*%
%TD*%
G04 APERTURE END LIST*
D10*
%TO.N,GND*%
X111200000Y-140100054D02*
X111200000Y-142300000D01*
X109100180Y-140198555D01*
X109100216Y-140100038D01*
X111200000Y-140100054D01*
%TA.AperFunction,Conductor*%
G36*
X111200000Y-140100054D02*
G01*
X111200000Y-142300000D01*
X109100180Y-140198555D01*
X109100216Y-140100038D01*
X111200000Y-140100054D01*
G37*
%TD.AperFunction*%
X111000000Y-139200000D02*
X111450000Y-139200000D01*
X111450000Y-155400000D01*
X111000000Y-155400000D01*
X111000000Y-139200000D01*
%TA.AperFunction,Conductor*%
G36*
X111000000Y-139200000D02*
G01*
X111450000Y-139200000D01*
X111450000Y-155400000D01*
X111000000Y-155400000D01*
X111000000Y-139200000D01*
G37*
%TD.AperFunction*%
%TD*%
D11*
%TO.N,GND*%
%TO.C,AE1*%
X111300000Y-154500000D03*
%TD*%
D12*
%TO.N,GND*%
%TO.C,U1*%
X102500000Y-147250000D03*
X102500000Y-148450000D03*
X102500000Y-149650000D03*
X102500000Y-150850000D03*
X103700000Y-147250000D03*
X103700000Y-148450000D03*
X103700000Y-149650000D03*
X103700000Y-150850000D03*
X104900000Y-147250000D03*
X104900000Y-148450000D03*
X104900000Y-149650000D03*
X104900000Y-150850000D03*
X106100000Y-147250000D03*
X106100000Y-148450000D03*
X106100000Y-149650000D03*
X106100000Y-150850000D03*
%TD*%
D13*
%TO.N,GND*%
X109600000Y-140500000D03*
X110400000Y-141300000D03*
X111200000Y-142100000D03*
X96112500Y-153712500D03*
X99800000Y-140601138D03*
X111200000Y-139700000D03*
X111200000Y-147700000D03*
X94200000Y-144800000D03*
X99800000Y-145100000D03*
X111200000Y-146100000D03*
X111200000Y-141300000D03*
X111200000Y-143700000D03*
X111200000Y-150900000D03*
X111200000Y-145300000D03*
X109500000Y-154200000D03*
X94812500Y-144800000D03*
X111200000Y-153400000D03*
X111200000Y-149300000D03*
X111200000Y-148500000D03*
X98366227Y-147110800D03*
X98100000Y-155500000D03*
X111200000Y-151649998D03*
X111200000Y-146900000D03*
X111200000Y-150100000D03*
X110400000Y-139700000D03*
X111200000Y-142900000D03*
X108632843Y-150267157D03*
X96000000Y-139400000D03*
X101200000Y-142400000D03*
X95200000Y-155200000D03*
X109800000Y-146700000D03*
X110400000Y-140500000D03*
X109000000Y-143600000D03*
X93700000Y-154800000D03*
X111200000Y-144500000D03*
X101600000Y-141000000D03*
X111200000Y-140500000D03*
%TO.N,VDD*%
X99650000Y-150050000D03*
X99100000Y-148100000D03*
X102025738Y-144502790D03*
X107000000Y-141100000D03*
X107150000Y-139350000D03*
X96118511Y-152904294D03*
X107700000Y-152800000D03*
X96400000Y-154962500D03*
X102797888Y-153047000D03*
X94527500Y-153200000D03*
%TO.N,SCL*%
X104500000Y-153350000D03*
X99100000Y-151250000D03*
%TO.N,SDA*%
X105400000Y-153350000D03*
X98200000Y-151250000D03*
%TO.N,BAT+*%
X99500000Y-142200000D03*
X98925402Y-141225402D03*
X100100000Y-143700000D03*
%TO.N,CHG*%
X96420000Y-142360000D03*
X93800000Y-140000000D03*
%TO.N,Net-(U7-ILIM)*%
X94800000Y-139500000D03*
X96612500Y-144800000D03*
%TO.N,VBUS*%
X96740000Y-146800000D03*
%TO.N,Net-(R3-Pad1)*%
X100150000Y-141650000D03*
X99500000Y-146800000D03*
%TO.N,Net-(U1-DEC4)*%
X109887550Y-148050000D03*
X106108198Y-143981982D03*
%TO.N,CLK*%
X102800000Y-141800000D03*
X100750000Y-146075735D03*
%TO.N,SDO*%
X97300000Y-151250000D03*
X106300000Y-153350000D03*
%TO.N,INT1*%
X107100000Y-152088527D03*
X97721727Y-154304743D03*
%TO.N,CS*%
X100000000Y-151250000D03*
X103600000Y-153350000D03*
%TO.N,SWD*%
X108690000Y-153430000D03*
%TO.N,SWC*%
X108703035Y-151266569D03*
%TD*%
%TO.N,VDD*%
D10*
X97000000Y-153000000D02*
X96900000Y-152900000D01*
X96400000Y-154700000D02*
X97000000Y-154100000D01*
X97000000Y-154100000D02*
X97000000Y-153000000D01*
X96700000Y-152900000D02*
X96500000Y-152700000D01*
X96900000Y-152900000D02*
X96700000Y-152900000D01*
X96400000Y-154962500D02*
X96462500Y-154962500D01*
X96322805Y-152700000D02*
X96118511Y-152904294D01*
X102797888Y-153047000D02*
X102797888Y-153302112D01*
X96400000Y-154962500D02*
X96400000Y-154700000D01*
X102797888Y-153302112D02*
X102700000Y-153400000D01*
X96462500Y-154962500D02*
X96800000Y-155300000D01*
X96500000Y-152700000D02*
X96322805Y-152700000D01*
%TD*%
%TA.AperFunction,Conductor*%
%TO.N,VDD*%
G36*
X96840561Y-154219032D02*
G01*
X96896494Y-154260904D01*
X96920911Y-154326368D01*
X96921227Y-154335214D01*
X96921227Y-154383589D01*
X96951988Y-154538232D01*
X96951991Y-154538244D01*
X97012329Y-154683915D01*
X97012336Y-154683928D01*
X97099937Y-154815031D01*
X97099940Y-154815035D01*
X97211434Y-154926529D01*
X97211438Y-154926532D01*
X97330185Y-155005877D01*
X97374990Y-155059489D01*
X97383697Y-155128814D01*
X97375855Y-155156431D01*
X97330264Y-155266498D01*
X97330261Y-155266508D01*
X97303797Y-155399550D01*
X97271412Y-155461461D01*
X97210696Y-155496035D01*
X97182185Y-155499358D01*
X96107727Y-155499403D01*
X96040687Y-155479721D01*
X95994930Y-155426919D01*
X95984983Y-155357761D01*
X95986105Y-155351211D01*
X96000500Y-155278844D01*
X96000500Y-155121155D01*
X96000499Y-155121153D01*
X95974353Y-154989711D01*
X95969737Y-154966503D01*
X95969735Y-154966498D01*
X95909397Y-154820827D01*
X95909390Y-154820814D01*
X95819457Y-154686221D01*
X95798579Y-154619544D01*
X95817063Y-154552164D01*
X95869042Y-154505473D01*
X95938012Y-154494297D01*
X95946751Y-154495713D01*
X96033655Y-154513000D01*
X96033658Y-154513000D01*
X96191344Y-154513000D01*
X96191345Y-154512999D01*
X96345997Y-154482237D01*
X96491679Y-154421894D01*
X96622789Y-154334289D01*
X96664123Y-154292955D01*
X96709546Y-154247533D01*
X96770869Y-154214048D01*
X96840561Y-154219032D01*
G37*
%TD.AperFunction*%
%TA.AperFunction,Conductor*%
G36*
X108042539Y-139020185D02*
G01*
X108088294Y-139072989D01*
X108099500Y-139124500D01*
X108099500Y-139565891D01*
X108133608Y-139693187D01*
X108166554Y-139750250D01*
X108199500Y-139807314D01*
X108292686Y-139900500D01*
X108406814Y-139966392D01*
X108406816Y-139966392D01*
X108414326Y-139969504D01*
X108413482Y-139971541D01*
X108463298Y-140001898D01*
X108493834Y-140064742D01*
X108494388Y-140095728D01*
X108494982Y-140095768D01*
X108494715Y-140099810D01*
X108494680Y-140198342D01*
X108515250Y-140355041D01*
X108515251Y-140355044D01*
X108575682Y-140501096D01*
X108575683Y-140501099D01*
X108575685Y-140501102D01*
X108671861Y-140626543D01*
X108671864Y-140626546D01*
X108671870Y-140626553D01*
X108849330Y-140804150D01*
X108876175Y-140844343D01*
X108890601Y-140879170D01*
X108890609Y-140879185D01*
X108978210Y-141010288D01*
X108978213Y-141010292D01*
X109089710Y-141121789D01*
X109126783Y-141146560D01*
X109220821Y-141209394D01*
X109255064Y-141223578D01*
X109295325Y-141250490D01*
X109349038Y-141304244D01*
X109649768Y-141605207D01*
X109676614Y-141645400D01*
X109690606Y-141679178D01*
X109690609Y-141679185D01*
X109778210Y-141810288D01*
X109778213Y-141810292D01*
X109889710Y-141921789D01*
X109999487Y-141995139D01*
X110020821Y-142009394D01*
X110054010Y-142023141D01*
X110094270Y-142050053D01*
X110165316Y-142121153D01*
X110363215Y-142319205D01*
X110396676Y-142380541D01*
X110399500Y-142406852D01*
X110399500Y-145905831D01*
X110379815Y-145972870D01*
X110327011Y-146018625D01*
X110257853Y-146028569D01*
X110206610Y-146008934D01*
X110179183Y-145990608D01*
X110179172Y-145990602D01*
X110033501Y-145930264D01*
X110033489Y-145930261D01*
X109878845Y-145899500D01*
X109878842Y-145899500D01*
X109721158Y-145899500D01*
X109721155Y-145899500D01*
X109566510Y-145930261D01*
X109566498Y-145930264D01*
X109420827Y-145990602D01*
X109420814Y-145990609D01*
X109289711Y-146078210D01*
X109289707Y-146078213D01*
X109178213Y-146189707D01*
X109178210Y-146189711D01*
X109090609Y-146320814D01*
X109090602Y-146320827D01*
X109030264Y-146466498D01*
X109030261Y-146466510D01*
X108999500Y-146621153D01*
X108999500Y-146778846D01*
X109030261Y-146933489D01*
X109030264Y-146933501D01*
X109090602Y-147079172D01*
X109090609Y-147079185D01*
X109178210Y-147210288D01*
X109178213Y-147210292D01*
X109289708Y-147321787D01*
X109290483Y-147322423D01*
X109290780Y-147322859D01*
X109294018Y-147326097D01*
X109293404Y-147326710D01*
X109329822Y-147380165D01*
X109331698Y-147450010D01*
X109299508Y-147505962D01*
X109265764Y-147539706D01*
X109265760Y-147539711D01*
X109178159Y-147670814D01*
X109178152Y-147670827D01*
X109117814Y-147816498D01*
X109117811Y-147816510D01*
X109087050Y-147971153D01*
X109087050Y-148128846D01*
X109117811Y-148283489D01*
X109117814Y-148283501D01*
X109178152Y-148429172D01*
X109178159Y-148429185D01*
X109265760Y-148560288D01*
X109265763Y-148560292D01*
X109377257Y-148671786D01*
X109377261Y-148671789D01*
X109508364Y-148759390D01*
X109508377Y-148759397D01*
X109619684Y-148805501D01*
X109654053Y-148819737D01*
X109808703Y-148850499D01*
X109808706Y-148850500D01*
X109808708Y-148850500D01*
X109966394Y-148850500D01*
X109966395Y-148850499D01*
X110121047Y-148819737D01*
X110228048Y-148775415D01*
X110297517Y-148767947D01*
X110359996Y-148799222D01*
X110395648Y-148859311D01*
X110399500Y-148889977D01*
X110399500Y-153696560D01*
X110379815Y-153763599D01*
X110327011Y-153809354D01*
X110257853Y-153819298D01*
X110194297Y-153790273D01*
X110172398Y-153765451D01*
X110121789Y-153689711D01*
X110121786Y-153689707D01*
X110010292Y-153578213D01*
X110010288Y-153578210D01*
X109879185Y-153490609D01*
X109879172Y-153490602D01*
X109733501Y-153430264D01*
X109733491Y-153430261D01*
X109578134Y-153399358D01*
X109516223Y-153366973D01*
X109481649Y-153306257D01*
X109480709Y-153301933D01*
X109459738Y-153196508D01*
X109459737Y-153196507D01*
X109459737Y-153196503D01*
X109415917Y-153090711D01*
X109399397Y-153050827D01*
X109399390Y-153050814D01*
X109311789Y-152919711D01*
X109311786Y-152919707D01*
X109200292Y-152808213D01*
X109200288Y-152808210D01*
X109069185Y-152720609D01*
X109069172Y-152720602D01*
X108923501Y-152660264D01*
X108923489Y-152660261D01*
X108768845Y-152629500D01*
X108768842Y-152629500D01*
X108611158Y-152629500D01*
X108611155Y-152629500D01*
X108456510Y-152660261D01*
X108456498Y-152660264D01*
X108310827Y-152720602D01*
X108310814Y-152720609D01*
X108179711Y-152808210D01*
X108179707Y-152808213D01*
X108068213Y-152919707D01*
X108068210Y-152919711D01*
X107980609Y-153050814D01*
X107980602Y-153050827D01*
X107920264Y-153196498D01*
X107920261Y-153196510D01*
X107889500Y-153351153D01*
X107889500Y-153508846D01*
X107920261Y-153663489D01*
X107920264Y-153663501D01*
X107980602Y-153809172D01*
X107980609Y-153809185D01*
X108068210Y-153940288D01*
X108068213Y-153940292D01*
X108179707Y-154051786D01*
X108179711Y-154051789D01*
X108310814Y-154139390D01*
X108310827Y-154139397D01*
X108404534Y-154178211D01*
X108456503Y-154199737D01*
X108520055Y-154212378D01*
X108611864Y-154230641D01*
X108629575Y-154239905D01*
X108649029Y-154244502D01*
X108659901Y-154255768D01*
X108673775Y-154263026D01*
X108683665Y-154280395D01*
X108697546Y-154294779D01*
X108706813Y-154321045D01*
X108708349Y-154323742D01*
X108709289Y-154328062D01*
X108713913Y-154351304D01*
X108707688Y-154420896D01*
X108664827Y-154476075D01*
X108598939Y-154499322D01*
X108592297Y-154499500D01*
X108534108Y-154499500D01*
X108406812Y-154533608D01*
X108292686Y-154599500D01*
X108292683Y-154599502D01*
X108199502Y-154692683D01*
X108199500Y-154692686D01*
X108133608Y-154806812D01*
X108099500Y-154934108D01*
X108099500Y-155374908D01*
X108079815Y-155441947D01*
X108027011Y-155487702D01*
X107975505Y-155498908D01*
X99017809Y-155499282D01*
X98950769Y-155479600D01*
X98905012Y-155426798D01*
X98896187Y-155399473D01*
X98878447Y-155310289D01*
X98869737Y-155266503D01*
X98814898Y-155134108D01*
X98809397Y-155120827D01*
X98809390Y-155120814D01*
X98721789Y-154989711D01*
X98721786Y-154989707D01*
X98610292Y-154878213D01*
X98610288Y-154878210D01*
X98491541Y-154798865D01*
X98446736Y-154745252D01*
X98438029Y-154675927D01*
X98445869Y-154648316D01*
X98491464Y-154538240D01*
X98522227Y-154383585D01*
X98522227Y-154225901D01*
X98522227Y-154225898D01*
X98522226Y-154225896D01*
X98512741Y-154178211D01*
X98491464Y-154071246D01*
X98486553Y-154059390D01*
X98431124Y-153925570D01*
X98431117Y-153925557D01*
X98343516Y-153794454D01*
X98343513Y-153794450D01*
X98232019Y-153682956D01*
X98232015Y-153682953D01*
X98100912Y-153595352D01*
X98100899Y-153595345D01*
X97955228Y-153535007D01*
X97955216Y-153535004D01*
X97800572Y-153504243D01*
X97800569Y-153504243D01*
X97642885Y-153504243D01*
X97642882Y-153504243D01*
X97488237Y-153535004D01*
X97488225Y-153535007D01*
X97342554Y-153595345D01*
X97342541Y-153595352D01*
X97211438Y-153682953D01*
X97211434Y-153682956D01*
X97124681Y-153769710D01*
X97063358Y-153803195D01*
X96993666Y-153798211D01*
X96937733Y-153756339D01*
X96913316Y-153690875D01*
X96913000Y-153682029D01*
X96913000Y-153633655D01*
X96912999Y-153633653D01*
X96901971Y-153578211D01*
X96882237Y-153479003D01*
X96862049Y-153430264D01*
X96821897Y-153333327D01*
X96821890Y-153333314D01*
X96734289Y-153202211D01*
X96734286Y-153202207D01*
X96622792Y-153090713D01*
X96622788Y-153090710D01*
X96491685Y-153003109D01*
X96491672Y-153003102D01*
X96346001Y-152942764D01*
X96345989Y-152942761D01*
X96191345Y-152912000D01*
X96191342Y-152912000D01*
X96033658Y-152912000D01*
X96033655Y-152912000D01*
X95879010Y-152942761D01*
X95878998Y-152942764D01*
X95733327Y-153003102D01*
X95733314Y-153003109D01*
X95602211Y-153090710D01*
X95602207Y-153090713D01*
X95490713Y-153202207D01*
X95490710Y-153202211D01*
X95403109Y-153333314D01*
X95403102Y-153333327D01*
X95342764Y-153478998D01*
X95342761Y-153479010D01*
X95312000Y-153633653D01*
X95312000Y-153791346D01*
X95342761Y-153945989D01*
X95342764Y-153946001D01*
X95403102Y-154091672D01*
X95403109Y-154091685D01*
X95493042Y-154226278D01*
X95513920Y-154292955D01*
X95495436Y-154360336D01*
X95443457Y-154407026D01*
X95374487Y-154418202D01*
X95365749Y-154416786D01*
X95278846Y-154399500D01*
X95278842Y-154399500D01*
X95121158Y-154399500D01*
X95121155Y-154399500D01*
X94966510Y-154430261D01*
X94966498Y-154430264D01*
X94820827Y-154490602D01*
X94820814Y-154490609D01*
X94689711Y-154578210D01*
X94668817Y-154599104D01*
X94607493Y-154632588D01*
X94537801Y-154627602D01*
X94481868Y-154585729D01*
X94466580Y-154558883D01*
X94409394Y-154420821D01*
X94409392Y-154420818D01*
X94409390Y-154420814D01*
X94321789Y-154289711D01*
X94321786Y-154289707D01*
X94210292Y-154178213D01*
X94210288Y-154178210D01*
X94079185Y-154090609D01*
X94079172Y-154090602D01*
X93933501Y-154030264D01*
X93933489Y-154030261D01*
X93778845Y-153999500D01*
X93778842Y-153999500D01*
X93624500Y-153999500D01*
X93557461Y-153979815D01*
X93511706Y-153927011D01*
X93500500Y-153875500D01*
X93500500Y-151171153D01*
X96499500Y-151171153D01*
X96499500Y-151328846D01*
X96530261Y-151483489D01*
X96530264Y-151483501D01*
X96590602Y-151629172D01*
X96590609Y-151629185D01*
X96678210Y-151760288D01*
X96678213Y-151760292D01*
X96789707Y-151871786D01*
X96789711Y-151871789D01*
X96920814Y-151959390D01*
X96920827Y-151959397D01*
X97042223Y-152009680D01*
X97066503Y-152019737D01*
X97221153Y-152050499D01*
X97221156Y-152050500D01*
X97221158Y-152050500D01*
X97378844Y-152050500D01*
X97378845Y-152050499D01*
X97533497Y-152019737D01*
X97679179Y-151959394D01*
X97681110Y-151958103D01*
X97682276Y-151957737D01*
X97684546Y-151956525D01*
X97684776Y-151956955D01*
X97747786Y-151937226D01*
X97815166Y-151955710D01*
X97818850Y-151958077D01*
X97820821Y-151959394D01*
X97820824Y-151959395D01*
X97820827Y-151959397D01*
X97942223Y-152009680D01*
X97966503Y-152019737D01*
X98121153Y-152050499D01*
X98121156Y-152050500D01*
X98121158Y-152050500D01*
X98278844Y-152050500D01*
X98278845Y-152050499D01*
X98433497Y-152019737D01*
X98579179Y-151959394D01*
X98581110Y-151958103D01*
X98582276Y-151957737D01*
X98584546Y-151956525D01*
X98584776Y-151956955D01*
X98647786Y-151937226D01*
X98715166Y-151955710D01*
X98718850Y-151958077D01*
X98720821Y-151959394D01*
X98720824Y-151959395D01*
X98720827Y-151959397D01*
X98842223Y-152009680D01*
X98866503Y-152019737D01*
X99021153Y-152050499D01*
X99021156Y-152050500D01*
X99021158Y-152050500D01*
X99178844Y-152050500D01*
X99178845Y-152050499D01*
X99333497Y-152019737D01*
X99479179Y-151959394D01*
X99481110Y-151958103D01*
X99482276Y-151957737D01*
X99484546Y-151956525D01*
X99484776Y-151956955D01*
X99547786Y-151937226D01*
X99615166Y-151955710D01*
X99618850Y-151958077D01*
X99620821Y-151959394D01*
X99620824Y-151959395D01*
X99620827Y-151959397D01*
X99742223Y-152009680D01*
X99766503Y-152019737D01*
X99921153Y-152050499D01*
X99921156Y-152050500D01*
X99921158Y-152050500D01*
X100078844Y-152050500D01*
X100078845Y-152050499D01*
X100233497Y-152019737D01*
X100379179Y-151959394D01*
X100510289Y-151871789D01*
X100621789Y-151760289D01*
X100709394Y-151629179D01*
X100769737Y-151483497D01*
X100800500Y-151328842D01*
X100800500Y-151171158D01*
X100800500Y-151171155D01*
X100800499Y-151171153D01*
X100769737Y-151016503D01*
X100769735Y-151016498D01*
X100709397Y-150870827D01*
X100709390Y-150870814D01*
X100621789Y-150739711D01*
X100621786Y-150739707D01*
X100510292Y-150628213D01*
X100510288Y-150628210D01*
X100379185Y-150540609D01*
X100379172Y-150540602D01*
X100233501Y-150480264D01*
X100233489Y-150480261D01*
X100078845Y-150449500D01*
X100078842Y-150449500D01*
X99921158Y-150449500D01*
X99921155Y-150449500D01*
X99766510Y-150480261D01*
X99766498Y-150480264D01*
X99620822Y-150540604D01*
X99620820Y-150540605D01*
X99618885Y-150541899D01*
X99617717Y-150542264D01*
X99615451Y-150543476D01*
X99615221Y-150543045D01*
X99552206Y-150562773D01*
X99484827Y-150544285D01*
X99481115Y-150541899D01*
X99479179Y-150540605D01*
X99479177Y-150540604D01*
X99333501Y-150480264D01*
X99333489Y-150480261D01*
X99178845Y-150449500D01*
X99178842Y-150449500D01*
X99021158Y-150449500D01*
X99021155Y-150449500D01*
X98866510Y-150480261D01*
X98866498Y-150480264D01*
X98720822Y-150540604D01*
X98720820Y-150540605D01*
X98718885Y-150541899D01*
X98717717Y-150542264D01*
X98715451Y-150543476D01*
X98715221Y-150543045D01*
X98652206Y-150562773D01*
X98584827Y-150544285D01*
X98581115Y-150541899D01*
X98579179Y-150540605D01*
X98579177Y-150540604D01*
X98433501Y-150480264D01*
X98433489Y-150480261D01*
X98278845Y-150449500D01*
X98278842Y-150449500D01*
X98121158Y-150449500D01*
X98121155Y-150449500D01*
X97966510Y-150480261D01*
X97966498Y-150480264D01*
X97820822Y-150540604D01*
X97820820Y-150540605D01*
X97818885Y-150541899D01*
X97817717Y-150542264D01*
X97815451Y-150543476D01*
X97815221Y-150543045D01*
X97752206Y-150562773D01*
X97684827Y-150544285D01*
X97681115Y-150541899D01*
X97679179Y-150540605D01*
X97679177Y-150540604D01*
X97533501Y-150480264D01*
X97533489Y-150480261D01*
X97378845Y-150449500D01*
X97378842Y-150449500D01*
X97221158Y-150449500D01*
X97221155Y-150449500D01*
X97066510Y-150480261D01*
X97066498Y-150480264D01*
X96920827Y-150540602D01*
X96920814Y-150540609D01*
X96789711Y-150628210D01*
X96789707Y-150628213D01*
X96678213Y-150739707D01*
X96678210Y-150739711D01*
X96590609Y-150870814D01*
X96590602Y-150870827D01*
X96530264Y-151016498D01*
X96530261Y-151016510D01*
X96499500Y-151171153D01*
X93500500Y-151171153D01*
X93500500Y-146721153D01*
X95939500Y-146721153D01*
X95939500Y-146878846D01*
X95970261Y-147033489D01*
X95970264Y-147033501D01*
X96030602Y-147179172D01*
X96030609Y-147179185D01*
X96118210Y-147310288D01*
X96118213Y-147310292D01*
X96229707Y-147421786D01*
X96229711Y-147421789D01*
X96360814Y-147509390D01*
X96360827Y-147509397D01*
X96434013Y-147539711D01*
X96506503Y-147569737D01*
X96661153Y-147600499D01*
X96661156Y-147600500D01*
X96661158Y-147600500D01*
X96818844Y-147600500D01*
X96818845Y-147600499D01*
X96973497Y-147569737D01*
X97119179Y-147509394D01*
X97250289Y-147421789D01*
X97361789Y-147310289D01*
X97371118Y-147296327D01*
X97424728Y-147251522D01*
X97494053Y-147242812D01*
X97557081Y-147272965D01*
X97593802Y-147332407D01*
X97595837Y-147341016D01*
X97596489Y-147344293D01*
X97596491Y-147344301D01*
X97656829Y-147489972D01*
X97656836Y-147489985D01*
X97744437Y-147621088D01*
X97744440Y-147621092D01*
X97855934Y-147732586D01*
X97855938Y-147732589D01*
X97987041Y-147820190D01*
X97987054Y-147820197D01*
X98122641Y-147876358D01*
X98132730Y-147880537D01*
X98287380Y-147911299D01*
X98287383Y-147911300D01*
X98287385Y-147911300D01*
X98445071Y-147911300D01*
X98445072Y-147911299D01*
X98599724Y-147880537D01*
X98745406Y-147820194D01*
X98876516Y-147732589D01*
X98988016Y-147621089D01*
X99018723Y-147575132D01*
X99072331Y-147530330D01*
X99141656Y-147521621D01*
X99169271Y-147529462D01*
X99266503Y-147569737D01*
X99421153Y-147600499D01*
X99421156Y-147600500D01*
X99421158Y-147600500D01*
X99578844Y-147600500D01*
X99578845Y-147600499D01*
X99733497Y-147569737D01*
X99879179Y-147509394D01*
X100010289Y-147421789D01*
X100108158Y-147323920D01*
X101749499Y-147323920D01*
X101778340Y-147468907D01*
X101778343Y-147468917D01*
X101834912Y-147605488D01*
X101834919Y-147605501D01*
X101917048Y-147728415D01*
X101917051Y-147728419D01*
X101950951Y-147762319D01*
X101984436Y-147823642D01*
X101979452Y-147893334D01*
X101950951Y-147937681D01*
X101917051Y-147971580D01*
X101917048Y-147971584D01*
X101834919Y-148094498D01*
X101834912Y-148094511D01*
X101778343Y-148231082D01*
X101778340Y-148231092D01*
X101749500Y-148376079D01*
X101749500Y-148376082D01*
X101749500Y-148523918D01*
X101749500Y-148523920D01*
X101749499Y-148523920D01*
X101778340Y-148668907D01*
X101778343Y-148668917D01*
X101834912Y-148805488D01*
X101834919Y-148805501D01*
X101917048Y-148928415D01*
X101917051Y-148928419D01*
X101950951Y-148962319D01*
X101984436Y-149023642D01*
X101979452Y-149093334D01*
X101950951Y-149137681D01*
X101917051Y-149171580D01*
X101917048Y-149171584D01*
X101834919Y-149294498D01*
X101834912Y-149294511D01*
X101778343Y-149431082D01*
X101778340Y-149431092D01*
X101749500Y-149576079D01*
X101749500Y-149576082D01*
X101749500Y-149723918D01*
X101749500Y-149723920D01*
X101749499Y-149723920D01*
X101778340Y-149868907D01*
X101778343Y-149868917D01*
X101834912Y-150005488D01*
X101834919Y-150005501D01*
X101917048Y-150128415D01*
X101917051Y-150128419D01*
X101950951Y-150162319D01*
X101984436Y-150223642D01*
X101979452Y-150293334D01*
X101950951Y-150337681D01*
X101917051Y-150371580D01*
X101917048Y-150371584D01*
X101834919Y-150494498D01*
X101834912Y-150494511D01*
X101778343Y-150631082D01*
X101778340Y-150631092D01*
X101749500Y-150776079D01*
X101749500Y-150776082D01*
X101749500Y-150923918D01*
X101749500Y-150923920D01*
X101749499Y-150923920D01*
X101778340Y-151068907D01*
X101778343Y-151068917D01*
X101834912Y-151205488D01*
X101834919Y-151205501D01*
X101917048Y-151328415D01*
X101917051Y-151328419D01*
X102021580Y-151432948D01*
X102021584Y-151432951D01*
X102144498Y-151515080D01*
X102144511Y-151515087D01*
X102281082Y-151571656D01*
X102281087Y-151571658D01*
X102281091Y-151571658D01*
X102281092Y-151571659D01*
X102426079Y-151600500D01*
X102426082Y-151600500D01*
X102573920Y-151600500D01*
X102685834Y-151578238D01*
X102718913Y-151571658D01*
X102855495Y-151515084D01*
X102978416Y-151432951D01*
X102978419Y-151432948D01*
X103012319Y-151399049D01*
X103073642Y-151365564D01*
X103143334Y-151370548D01*
X103187681Y-151399049D01*
X103221580Y-151432948D01*
X103221584Y-151432951D01*
X103344498Y-151515080D01*
X103344511Y-151515087D01*
X103481082Y-151571656D01*
X103481087Y-151571658D01*
X103481091Y-151571658D01*
X103481092Y-151571659D01*
X103626079Y-151600500D01*
X103626082Y-151600500D01*
X103773920Y-151600500D01*
X103885834Y-151578238D01*
X103918913Y-151571658D01*
X104055495Y-151515084D01*
X104178416Y-151432951D01*
X104178419Y-151432948D01*
X104212319Y-151399049D01*
X104273642Y-151365564D01*
X104343334Y-151370548D01*
X104387681Y-151399049D01*
X104421580Y-151432948D01*
X104421584Y-151432951D01*
X104544498Y-151515080D01*
X104544511Y-151515087D01*
X104681082Y-151571656D01*
X104681087Y-151571658D01*
X104681091Y-151571658D01*
X104681092Y-151571659D01*
X104826079Y-151600500D01*
X104826082Y-151600500D01*
X104973920Y-151600500D01*
X105085834Y-151578238D01*
X105118913Y-151571658D01*
X105255495Y-151515084D01*
X105378416Y-151432951D01*
X105378419Y-151432948D01*
X105412319Y-151399049D01*
X105473642Y-151365564D01*
X105543334Y-151370548D01*
X105587681Y-151399049D01*
X105621580Y-151432948D01*
X105621584Y-151432951D01*
X105744498Y-151515080D01*
X105744511Y-151515087D01*
X105881082Y-151571656D01*
X105881087Y-151571658D01*
X105881091Y-151571658D01*
X105881092Y-151571659D01*
X106026079Y-151600500D01*
X106026082Y-151600500D01*
X106173919Y-151600500D01*
X106231666Y-151589013D01*
X106301257Y-151595240D01*
X106356435Y-151638102D01*
X106379680Y-151703992D01*
X106370419Y-151758082D01*
X106330264Y-151855025D01*
X106330261Y-151855037D01*
X106299500Y-152009680D01*
X106299500Y-152167373D01*
X106330261Y-152322016D01*
X106330263Y-152322024D01*
X106353469Y-152378049D01*
X106360938Y-152447516D01*
X106329663Y-152509995D01*
X106269575Y-152545648D01*
X106238908Y-152549500D01*
X106221155Y-152549500D01*
X106066510Y-152580261D01*
X106066498Y-152580264D01*
X105920822Y-152640604D01*
X105920820Y-152640605D01*
X105918885Y-152641899D01*
X105917717Y-152642264D01*
X105915451Y-152643476D01*
X105915221Y-152643045D01*
X105852206Y-152662773D01*
X105784827Y-152644285D01*
X105781115Y-152641899D01*
X105779179Y-152640605D01*
X105779177Y-152640604D01*
X105633501Y-152580264D01*
X105633489Y-152580261D01*
X105478845Y-152549500D01*
X105478842Y-152549500D01*
X105321158Y-152549500D01*
X105321155Y-152549500D01*
X105166510Y-152580261D01*
X105166498Y-152580264D01*
X105020822Y-152640604D01*
X105020820Y-152640605D01*
X105018885Y-152641899D01*
X105017717Y-152642264D01*
X105015451Y-152643476D01*
X105015221Y-152643045D01*
X104952206Y-152662773D01*
X104884827Y-152644285D01*
X104881115Y-152641899D01*
X104879179Y-152640605D01*
X104879177Y-152640604D01*
X104733501Y-152580264D01*
X104733489Y-152580261D01*
X104578845Y-152549500D01*
X104578842Y-152549500D01*
X104421158Y-152549500D01*
X104421155Y-152549500D01*
X104266510Y-152580261D01*
X104266498Y-152580264D01*
X104120822Y-152640604D01*
X104120820Y-152640605D01*
X104118885Y-152641899D01*
X104117717Y-152642264D01*
X104115451Y-152643476D01*
X104115221Y-152643045D01*
X104052206Y-152662773D01*
X103984827Y-152644285D01*
X103981115Y-152641899D01*
X103979179Y-152640605D01*
X103979177Y-152640604D01*
X103833501Y-152580264D01*
X103833489Y-152580261D01*
X103678845Y-152549500D01*
X103678842Y-152549500D01*
X103521158Y-152549500D01*
X103521155Y-152549500D01*
X103366510Y-152580261D01*
X103366498Y-152580264D01*
X103220827Y-152640602D01*
X103220814Y-152640609D01*
X103089711Y-152728210D01*
X103089707Y-152728213D01*
X102978213Y-152839707D01*
X102978210Y-152839711D01*
X102890609Y-152970814D01*
X102890602Y-152970827D01*
X102830264Y-153116498D01*
X102830261Y-153116510D01*
X102799500Y-153271153D01*
X102799500Y-153428846D01*
X102830261Y-153583489D01*
X102830264Y-153583501D01*
X102890602Y-153729172D01*
X102890609Y-153729185D01*
X102978210Y-153860288D01*
X102978213Y-153860292D01*
X103089707Y-153971786D01*
X103089711Y-153971789D01*
X103220814Y-154059390D01*
X103220827Y-154059397D01*
X103366498Y-154119735D01*
X103366503Y-154119737D01*
X103521153Y-154150499D01*
X103521156Y-154150500D01*
X103521158Y-154150500D01*
X103678844Y-154150500D01*
X103678845Y-154150499D01*
X103833497Y-154119737D01*
X103979179Y-154059394D01*
X103981110Y-154058103D01*
X103982276Y-154057737D01*
X103984546Y-154056525D01*
X103984776Y-154056955D01*
X104047786Y-154037226D01*
X104115166Y-154055710D01*
X104118850Y-154058077D01*
X104120821Y-154059394D01*
X104120824Y-154059395D01*
X104120827Y-154059397D01*
X104266498Y-154119735D01*
X104266503Y-154119737D01*
X104421153Y-154150499D01*
X104421156Y-154150500D01*
X104421158Y-154150500D01*
X104578844Y-154150500D01*
X104578845Y-154150499D01*
X104733497Y-154119737D01*
X104879179Y-154059394D01*
X104881110Y-154058103D01*
X104882276Y-154057737D01*
X104884546Y-154056525D01*
X104884776Y-154056955D01*
X104947786Y-154037226D01*
X105015166Y-154055710D01*
X105018850Y-154058077D01*
X105020821Y-154059394D01*
X105020824Y-154059395D01*
X105020827Y-154059397D01*
X105166498Y-154119735D01*
X105166503Y-154119737D01*
X105321153Y-154150499D01*
X105321156Y-154150500D01*
X105321158Y-154150500D01*
X105478844Y-154150500D01*
X105478845Y-154150499D01*
X105633497Y-154119737D01*
X105779179Y-154059394D01*
X105781110Y-154058103D01*
X105782276Y-154057737D01*
X105784546Y-154056525D01*
X105784776Y-154056955D01*
X105847786Y-154037226D01*
X105915166Y-154055710D01*
X105918850Y-154058077D01*
X105920821Y-154059394D01*
X105920824Y-154059395D01*
X105920827Y-154059397D01*
X106066498Y-154119735D01*
X106066503Y-154119737D01*
X106221153Y-154150499D01*
X106221156Y-154150500D01*
X106221158Y-154150500D01*
X106378844Y-154150500D01*
X106378845Y-154150499D01*
X106533497Y-154119737D01*
X106679179Y-154059394D01*
X106810289Y-153971789D01*
X106921789Y-153860289D01*
X107009394Y-153729179D01*
X107069737Y-153583497D01*
X107100500Y-153428842D01*
X107100500Y-153271158D01*
X107100500Y-153271155D01*
X107100499Y-153271153D01*
X107069738Y-153116510D01*
X107069737Y-153116503D01*
X107046530Y-153060478D01*
X107039063Y-152991009D01*
X107070339Y-152928530D01*
X107130428Y-152892878D01*
X107161093Y-152889027D01*
X107178844Y-152889027D01*
X107178845Y-152889026D01*
X107333497Y-152858264D01*
X107479179Y-152797921D01*
X107610289Y-152710316D01*
X107721789Y-152598816D01*
X107809394Y-152467706D01*
X107869737Y-152322024D01*
X107900500Y-152167369D01*
X107900500Y-152009685D01*
X107900500Y-152009682D01*
X107877556Y-151894340D01*
X107883783Y-151824748D01*
X107926645Y-151769571D01*
X107992535Y-151746326D01*
X108060532Y-151762393D01*
X108086854Y-151782467D01*
X108192742Y-151888355D01*
X108192746Y-151888358D01*
X108323849Y-151975959D01*
X108323862Y-151975966D01*
X108429539Y-152019738D01*
X108469538Y-152036306D01*
X108624188Y-152067068D01*
X108624191Y-152067069D01*
X108624193Y-152067069D01*
X108781879Y-152067069D01*
X108781880Y-152067068D01*
X108936532Y-152036306D01*
X109082214Y-151975963D01*
X109213324Y-151888358D01*
X109324824Y-151776858D01*
X109412429Y-151645748D01*
X109472772Y-151500066D01*
X109503535Y-151345411D01*
X109503535Y-151187727D01*
X109503535Y-151187724D01*
X109503534Y-151187722D01*
X109472773Y-151033079D01*
X109472772Y-151033072D01*
X109465907Y-151016498D01*
X109412432Y-150887396D01*
X109412425Y-150887383D01*
X109342831Y-150783229D01*
X109321953Y-150716552D01*
X109339692Y-150651884D01*
X109339365Y-150651709D01*
X109340136Y-150650264D01*
X109340437Y-150649171D01*
X109342125Y-150646544D01*
X109342233Y-150646341D01*
X109342237Y-150646336D01*
X109402580Y-150500654D01*
X109433343Y-150345999D01*
X109433343Y-150188315D01*
X109433343Y-150188312D01*
X109433342Y-150188310D01*
X109402581Y-150033667D01*
X109402580Y-150033660D01*
X109390911Y-150005488D01*
X109342240Y-149887984D01*
X109342233Y-149887971D01*
X109254632Y-149756868D01*
X109254629Y-149756864D01*
X109143135Y-149645370D01*
X109143131Y-149645367D01*
X109012028Y-149557766D01*
X109012015Y-149557759D01*
X108866344Y-149497421D01*
X108866332Y-149497418D01*
X108711688Y-149466657D01*
X108711685Y-149466657D01*
X108554001Y-149466657D01*
X108553998Y-149466657D01*
X108399353Y-149497418D01*
X108399341Y-149497421D01*
X108253670Y-149557759D01*
X108253657Y-149557766D01*
X108122554Y-149645367D01*
X108122550Y-149645370D01*
X108011056Y-149756864D01*
X108011053Y-149756868D01*
X107923452Y-149887971D01*
X107923445Y-149887984D01*
X107863107Y-150033655D01*
X107863104Y-150033667D01*
X107832343Y-150188310D01*
X107832343Y-150346003D01*
X107863104Y-150500646D01*
X107863107Y-150500658D01*
X107923445Y-150646329D01*
X107923455Y-150646347D01*
X107993046Y-150750498D01*
X108013924Y-150817175D01*
X107996182Y-150881844D01*
X107996511Y-150882020D01*
X107995737Y-150883467D01*
X107995439Y-150884555D01*
X107993755Y-150887174D01*
X107993639Y-150887391D01*
X107933299Y-151033067D01*
X107933296Y-151033079D01*
X107902535Y-151187722D01*
X107902535Y-151345415D01*
X107925478Y-151460756D01*
X107919251Y-151530347D01*
X107876388Y-151585525D01*
X107810498Y-151608769D01*
X107742501Y-151592701D01*
X107716180Y-151572628D01*
X107610292Y-151466740D01*
X107610288Y-151466737D01*
X107479185Y-151379136D01*
X107479172Y-151379129D01*
X107333501Y-151318791D01*
X107333489Y-151318788D01*
X107178845Y-151288027D01*
X107178842Y-151288027D01*
X107021158Y-151288027D01*
X107021153Y-151288027D01*
X106932365Y-151305688D01*
X106862773Y-151299461D01*
X106807596Y-151256597D01*
X106784352Y-151190708D01*
X106793612Y-151136620D01*
X106821658Y-151068913D01*
X106850500Y-150923918D01*
X106850500Y-150776082D01*
X106850500Y-150776079D01*
X106821659Y-150631092D01*
X106821658Y-150631091D01*
X106821658Y-150631087D01*
X106803781Y-150587927D01*
X106765087Y-150494511D01*
X106765080Y-150494498D01*
X106682951Y-150371584D01*
X106682948Y-150371580D01*
X106649049Y-150337681D01*
X106615564Y-150276358D01*
X106620548Y-150206666D01*
X106649049Y-150162319D01*
X106682948Y-150128419D01*
X106682951Y-150128416D01*
X106765084Y-150005495D01*
X106821658Y-149868913D01*
X106843946Y-149756868D01*
X106850500Y-149723920D01*
X106850500Y-149576079D01*
X106821659Y-149431092D01*
X106821658Y-149431091D01*
X106821658Y-149431087D01*
X106821656Y-149431082D01*
X106765087Y-149294511D01*
X106765080Y-149294498D01*
X106682951Y-149171584D01*
X106682948Y-149171580D01*
X106649049Y-149137681D01*
X106615564Y-149076358D01*
X106620548Y-149006666D01*
X106649049Y-148962319D01*
X106682948Y-148928419D01*
X106682951Y-148928416D01*
X106765084Y-148805495D01*
X106821658Y-148668913D01*
X106843265Y-148560289D01*
X106850500Y-148523920D01*
X106850500Y-148376079D01*
X106821659Y-148231092D01*
X106821658Y-148231091D01*
X106821658Y-148231087D01*
X106821656Y-148231082D01*
X106765087Y-148094511D01*
X106765080Y-148094498D01*
X106682951Y-147971584D01*
X106682948Y-147971580D01*
X106649049Y-147937681D01*
X106615564Y-147876358D01*
X106620548Y-147806666D01*
X106649049Y-147762319D01*
X106682948Y-147728419D01*
X106682951Y-147728416D01*
X106765084Y-147605495D01*
X106821658Y-147468913D01*
X106839312Y-147380165D01*
X106850500Y-147323920D01*
X106850500Y-147176079D01*
X106821659Y-147031092D01*
X106821658Y-147031091D01*
X106821658Y-147031087D01*
X106768597Y-146902986D01*
X106765087Y-146894511D01*
X106765080Y-146894498D01*
X106682951Y-146771584D01*
X106682948Y-146771580D01*
X106578419Y-146667051D01*
X106578415Y-146667048D01*
X106455501Y-146584919D01*
X106455488Y-146584912D01*
X106318917Y-146528343D01*
X106318907Y-146528340D01*
X106173920Y-146499500D01*
X106173918Y-146499500D01*
X106026082Y-146499500D01*
X106026080Y-146499500D01*
X105881092Y-146528340D01*
X105881082Y-146528343D01*
X105744511Y-146584912D01*
X105744498Y-146584919D01*
X105621584Y-146667048D01*
X105621580Y-146667051D01*
X105587681Y-146700951D01*
X105526358Y-146734436D01*
X105456666Y-146729452D01*
X105412319Y-146700951D01*
X105378419Y-146667051D01*
X105378415Y-146667048D01*
X105255501Y-146584919D01*
X105255488Y-146584912D01*
X105118917Y-146528343D01*
X105118907Y-146528340D01*
X104973920Y-146499500D01*
X104973918Y-146499500D01*
X104826082Y-146499500D01*
X104826080Y-146499500D01*
X104681092Y-146528340D01*
X104681082Y-146528343D01*
X104544511Y-146584912D01*
X104544498Y-146584919D01*
X104421584Y-146667048D01*
X104421580Y-146667051D01*
X104387681Y-146700951D01*
X104326358Y-146734436D01*
X104256666Y-146729452D01*
X104212319Y-146700951D01*
X104178419Y-146667051D01*
X104178415Y-146667048D01*
X104055501Y-146584919D01*
X104055488Y-146584912D01*
X103918917Y-146528343D01*
X103918907Y-146528340D01*
X103773920Y-146499500D01*
X103773918Y-146499500D01*
X103626082Y-146499500D01*
X103626080Y-146499500D01*
X103481092Y-146528340D01*
X103481082Y-146528343D01*
X103344511Y-146584912D01*
X103344498Y-146584919D01*
X103221584Y-146667048D01*
X103221580Y-146667051D01*
X103187681Y-146700951D01*
X103126358Y-146734436D01*
X103056666Y-146729452D01*
X103012319Y-146700951D01*
X102978419Y-146667051D01*
X102978415Y-146667048D01*
X102855501Y-146584919D01*
X102855488Y-146584912D01*
X102718917Y-146528343D01*
X102718907Y-146528340D01*
X102573920Y-146499500D01*
X102573918Y-146499500D01*
X102426082Y-146499500D01*
X102426080Y-146499500D01*
X102281092Y-146528340D01*
X102281082Y-146528343D01*
X102144511Y-146584912D01*
X102144498Y-146584919D01*
X102021584Y-146667048D01*
X102021580Y-146667051D01*
X101917051Y-146771580D01*
X101917048Y-146771584D01*
X101834919Y-146894498D01*
X101834912Y-146894511D01*
X101778343Y-147031082D01*
X101778340Y-147031092D01*
X101749500Y-147176079D01*
X101749500Y-147176082D01*
X101749500Y-147323918D01*
X101749500Y-147323920D01*
X101749499Y-147323920D01*
X100108158Y-147323920D01*
X100121789Y-147310289D01*
X100209394Y-147179179D01*
X100269737Y-147033497D01*
X100294658Y-146908207D01*
X100296183Y-146902986D01*
X100312211Y-146877958D01*
X100325983Y-146851631D01*
X100330845Y-146848861D01*
X100333864Y-146844149D01*
X100360876Y-146831760D01*
X100386698Y-146817057D01*
X100392285Y-146817356D01*
X100397374Y-146815023D01*
X100426797Y-146819205D01*
X100456468Y-146820796D01*
X100462623Y-146823154D01*
X100516503Y-146845472D01*
X100671153Y-146876234D01*
X100671156Y-146876235D01*
X100671158Y-146876235D01*
X100828844Y-146876235D01*
X100828845Y-146876234D01*
X100983497Y-146845472D01*
X101129179Y-146785129D01*
X101260289Y-146697524D01*
X101371789Y-146586024D01*
X101459394Y-146454914D01*
X101519737Y-146309232D01*
X101550500Y-146154577D01*
X101550500Y-145996893D01*
X101550500Y-145996890D01*
X101550499Y-145996888D01*
X101545721Y-145972870D01*
X101519737Y-145842238D01*
X101469845Y-145721786D01*
X101459397Y-145696562D01*
X101459390Y-145696549D01*
X101371789Y-145565446D01*
X101371786Y-145565442D01*
X101260292Y-145453948D01*
X101260288Y-145453945D01*
X101129185Y-145366344D01*
X101129172Y-145366337D01*
X100983501Y-145305999D01*
X100983489Y-145305996D01*
X100828845Y-145275235D01*
X100828842Y-145275235D01*
X100724500Y-145275235D01*
X100657461Y-145255550D01*
X100611706Y-145202746D01*
X100600500Y-145151235D01*
X100600500Y-145021155D01*
X100600499Y-145021153D01*
X100575860Y-144897287D01*
X100569737Y-144866503D01*
X100534935Y-144782482D01*
X100509397Y-144720827D01*
X100509390Y-144720814D01*
X100423807Y-144592731D01*
X100402929Y-144526054D01*
X100421413Y-144458674D01*
X100473392Y-144411983D01*
X100479080Y-144409446D01*
X100479172Y-144409396D01*
X100479179Y-144409394D01*
X100610289Y-144321789D01*
X100721789Y-144210289D01*
X100809394Y-144079179D01*
X100869737Y-143933497D01*
X100872429Y-143919961D01*
X100875776Y-143903135D01*
X105307698Y-143903135D01*
X105307698Y-144060828D01*
X105338459Y-144215471D01*
X105338462Y-144215483D01*
X105398800Y-144361154D01*
X105398807Y-144361167D01*
X105486408Y-144492270D01*
X105486411Y-144492274D01*
X105597905Y-144603768D01*
X105597909Y-144603771D01*
X105729012Y-144691372D01*
X105729025Y-144691379D01*
X105874696Y-144751717D01*
X105874701Y-144751719D01*
X106029351Y-144782481D01*
X106029354Y-144782482D01*
X106029356Y-144782482D01*
X106187042Y-144782482D01*
X106187043Y-144782481D01*
X106341695Y-144751719D01*
X106487377Y-144691376D01*
X106618487Y-144603771D01*
X106729987Y-144492271D01*
X106817592Y-144361161D01*
X106877935Y-144215479D01*
X106908698Y-144060824D01*
X106908698Y-143903140D01*
X106908698Y-143903137D01*
X106908697Y-143903135D01*
X106877936Y-143748492D01*
X106877935Y-143748485D01*
X106825193Y-143621153D01*
X106817595Y-143602809D01*
X106817593Y-143602805D01*
X106817592Y-143602803D01*
X106817587Y-143602796D01*
X106805000Y-143583957D01*
X106763035Y-143521153D01*
X108199500Y-143521153D01*
X108199500Y-143678846D01*
X108230261Y-143833489D01*
X108230264Y-143833501D01*
X108290602Y-143979172D01*
X108290609Y-143979185D01*
X108378210Y-144110288D01*
X108378213Y-144110292D01*
X108489707Y-144221786D01*
X108489711Y-144221789D01*
X108620814Y-144309390D01*
X108620827Y-144309397D01*
X108745813Y-144361167D01*
X108766503Y-144369737D01*
X108921153Y-144400499D01*
X108921156Y-144400500D01*
X108921158Y-144400500D01*
X109078844Y-144400500D01*
X109078845Y-144400499D01*
X109233497Y-144369737D01*
X109379179Y-144309394D01*
X109510289Y-144221789D01*
X109621789Y-144110289D01*
X109709394Y-143979179D01*
X109769737Y-143833497D01*
X109800500Y-143678842D01*
X109800500Y-143521158D01*
X109800500Y-143521155D01*
X109800499Y-143521153D01*
X109769738Y-143366510D01*
X109769737Y-143366503D01*
X109767123Y-143360192D01*
X109709397Y-143220827D01*
X109709390Y-143220814D01*
X109621789Y-143089711D01*
X109621786Y-143089707D01*
X109510292Y-142978213D01*
X109510288Y-142978210D01*
X109379185Y-142890609D01*
X109379172Y-142890602D01*
X109233501Y-142830264D01*
X109233489Y-142830261D01*
X109078845Y-142799500D01*
X109078842Y-142799500D01*
X108921158Y-142799500D01*
X108921155Y-142799500D01*
X108766510Y-142830261D01*
X108766498Y-142830264D01*
X108620827Y-142890602D01*
X108620814Y-142890609D01*
X108489711Y-142978210D01*
X108489707Y-142978213D01*
X108378213Y-143089707D01*
X108378210Y-143089711D01*
X108290609Y-143220814D01*
X108290602Y-143220827D01*
X108230264Y-143366498D01*
X108230261Y-143366510D01*
X108199500Y-143521153D01*
X106763035Y-143521153D01*
X106729987Y-143471693D01*
X106729984Y-143471689D01*
X106618490Y-143360195D01*
X106618486Y-143360192D01*
X106487383Y-143272591D01*
X106487370Y-143272584D01*
X106341699Y-143212246D01*
X106341687Y-143212243D01*
X106187043Y-143181482D01*
X106187040Y-143181482D01*
X106029356Y-143181482D01*
X106029353Y-143181482D01*
X105874708Y-143212243D01*
X105874696Y-143212246D01*
X105729025Y-143272584D01*
X105729012Y-143272591D01*
X105597909Y-143360192D01*
X105597905Y-143360195D01*
X105486411Y-143471689D01*
X105486408Y-143471693D01*
X105398807Y-143602796D01*
X105398800Y-143602809D01*
X105338462Y-143748480D01*
X105338459Y-143748492D01*
X105307698Y-143903135D01*
X100875776Y-143903135D01*
X100881800Y-143872856D01*
X100881800Y-143872855D01*
X100900499Y-143778846D01*
X100900500Y-143778844D01*
X100900500Y-143621155D01*
X100900499Y-143621153D01*
X100896848Y-143602797D01*
X100869737Y-143466503D01*
X100815571Y-143335735D01*
X100808103Y-143266267D01*
X100839378Y-143203788D01*
X100899467Y-143168136D01*
X100960339Y-143169494D01*
X100960528Y-143168549D01*
X100965907Y-143169619D01*
X100966129Y-143169624D01*
X100966503Y-143169737D01*
X101121153Y-143200499D01*
X101121156Y-143200500D01*
X101121158Y-143200500D01*
X101278844Y-143200500D01*
X101278845Y-143200499D01*
X101433497Y-143169737D01*
X101579179Y-143109394D01*
X101710289Y-143021789D01*
X101821789Y-142910289D01*
X101909394Y-142779179D01*
X101969737Y-142633497D01*
X102000500Y-142478842D01*
X102000500Y-142431941D01*
X102020185Y-142364902D01*
X102072989Y-142319147D01*
X102142147Y-142309203D01*
X102205703Y-142338228D01*
X102212181Y-142344260D01*
X102289707Y-142421786D01*
X102289711Y-142421789D01*
X102420814Y-142509390D01*
X102420827Y-142509397D01*
X102566498Y-142569735D01*
X102566503Y-142569737D01*
X102685912Y-142593489D01*
X102721153Y-142600499D01*
X102721156Y-142600500D01*
X102721158Y-142600500D01*
X102878844Y-142600500D01*
X102878845Y-142600499D01*
X103033497Y-142569737D01*
X103179179Y-142509394D01*
X103310289Y-142421789D01*
X103421789Y-142310289D01*
X103509394Y-142179179D01*
X103569737Y-142033497D01*
X103600500Y-141878842D01*
X103600500Y-141721158D01*
X103600500Y-141721155D01*
X103600499Y-141721153D01*
X103592150Y-141679179D01*
X103569737Y-141566503D01*
X103525168Y-141458903D01*
X103509397Y-141420827D01*
X103509390Y-141420814D01*
X103421789Y-141289711D01*
X103421786Y-141289707D01*
X103310292Y-141178213D01*
X103310288Y-141178210D01*
X103179185Y-141090609D01*
X103179172Y-141090602D01*
X103033501Y-141030264D01*
X103033489Y-141030261D01*
X102878845Y-140999500D01*
X102878842Y-140999500D01*
X102721158Y-140999500D01*
X102721155Y-140999500D01*
X102566510Y-141030261D01*
X102560676Y-141032031D01*
X102559872Y-141029381D01*
X102502167Y-141035508D01*
X102439729Y-141004150D01*
X102404157Y-140944014D01*
X102400942Y-140925653D01*
X102400500Y-140921167D01*
X102400500Y-140921158D01*
X102397823Y-140907702D01*
X102383289Y-140834635D01*
X102369737Y-140766503D01*
X102346080Y-140709390D01*
X102309397Y-140620827D01*
X102309390Y-140620814D01*
X102221789Y-140489711D01*
X102221786Y-140489707D01*
X102110292Y-140378213D01*
X102110288Y-140378210D01*
X101979185Y-140290609D01*
X101979172Y-140290602D01*
X101833501Y-140230264D01*
X101833489Y-140230261D01*
X101678845Y-140199500D01*
X101678842Y-140199500D01*
X101521158Y-140199500D01*
X101521155Y-140199500D01*
X101366510Y-140230261D01*
X101366498Y-140230264D01*
X101220827Y-140290602D01*
X101220814Y-140290609D01*
X101089711Y-140378210D01*
X101089707Y-140378213D01*
X100978213Y-140489707D01*
X100978210Y-140489711D01*
X100890609Y-140620814D01*
X100890604Y-140620824D01*
X100836911Y-140750451D01*
X100793070Y-140804854D01*
X100726776Y-140826919D01*
X100659076Y-140809640D01*
X100611466Y-140758502D01*
X100599061Y-140689743D01*
X100600401Y-140680978D01*
X100600500Y-140679982D01*
X100600500Y-140522293D01*
X100600499Y-140522291D01*
X100571840Y-140378213D01*
X100569737Y-140367641D01*
X100544698Y-140307190D01*
X100509397Y-140221965D01*
X100509390Y-140221952D01*
X100421789Y-140090849D01*
X100421786Y-140090845D01*
X100310292Y-139979351D01*
X100310288Y-139979348D01*
X100179185Y-139891747D01*
X100179172Y-139891740D01*
X100033501Y-139831402D01*
X100033489Y-139831399D01*
X99878845Y-139800638D01*
X99878842Y-139800638D01*
X99721158Y-139800638D01*
X99721155Y-139800638D01*
X99566510Y-139831399D01*
X99566498Y-139831402D01*
X99420827Y-139891740D01*
X99420814Y-139891747D01*
X99289711Y-139979348D01*
X99289707Y-139979351D01*
X99178213Y-140090845D01*
X99178210Y-140090849D01*
X99090609Y-140221952D01*
X99090602Y-140221965D01*
X99038252Y-140348354D01*
X98994412Y-140402758D01*
X98928118Y-140424823D01*
X98923691Y-140424902D01*
X98846557Y-140424902D01*
X98691912Y-140455663D01*
X98691900Y-140455666D01*
X98546229Y-140516004D01*
X98546216Y-140516011D01*
X98415113Y-140603612D01*
X98415109Y-140603615D01*
X98303615Y-140715109D01*
X98303612Y-140715113D01*
X98216011Y-140846216D01*
X98216004Y-140846229D01*
X98155666Y-140991900D01*
X98155663Y-140991912D01*
X98124902Y-141146555D01*
X98124902Y-141304248D01*
X98155663Y-141458891D01*
X98155666Y-141458903D01*
X98216004Y-141604574D01*
X98216011Y-141604587D01*
X98303612Y-141735690D01*
X98303615Y-141735694D01*
X98415109Y-141847188D01*
X98415113Y-141847191D01*
X98546216Y-141934792D01*
X98546225Y-141934797D01*
X98628062Y-141968695D01*
X98682465Y-142012536D01*
X98704530Y-142078830D01*
X98702227Y-142107443D01*
X98699500Y-142121153D01*
X98699500Y-142278846D01*
X98730261Y-142433489D01*
X98730264Y-142433501D01*
X98790602Y-142579172D01*
X98790609Y-142579185D01*
X98878210Y-142710288D01*
X98878213Y-142710292D01*
X98989707Y-142821786D01*
X98989711Y-142821789D01*
X99120814Y-142909390D01*
X99120827Y-142909397D01*
X99266498Y-142969735D01*
X99266503Y-142969737D01*
X99354318Y-142987204D01*
X99401098Y-142996510D01*
X99463009Y-143028895D01*
X99497583Y-143089610D01*
X99493844Y-143159380D01*
X99480009Y-143187017D01*
X99390612Y-143320809D01*
X99390602Y-143320827D01*
X99330264Y-143466498D01*
X99330261Y-143466510D01*
X99299500Y-143621153D01*
X99299500Y-143778846D01*
X99330261Y-143933489D01*
X99330264Y-143933501D01*
X99390602Y-144079172D01*
X99390609Y-144079185D01*
X99476192Y-144207268D01*
X99497070Y-144273946D01*
X99478586Y-144341326D01*
X99426607Y-144388016D01*
X99420929Y-144390548D01*
X99420814Y-144390609D01*
X99289711Y-144478210D01*
X99289707Y-144478213D01*
X99178213Y-144589707D01*
X99178210Y-144589711D01*
X99090609Y-144720814D01*
X99090602Y-144720827D01*
X99030264Y-144866498D01*
X99030261Y-144866510D01*
X98999500Y-145021153D01*
X98999500Y-145178846D01*
X99030261Y-145333489D01*
X99030264Y-145333501D01*
X99090602Y-145479172D01*
X99090609Y-145479185D01*
X99178210Y-145610288D01*
X99178213Y-145610292D01*
X99289707Y-145721786D01*
X99289711Y-145721789D01*
X99391232Y-145789624D01*
X99436037Y-145843236D01*
X99444744Y-145912561D01*
X99414589Y-145975589D01*
X99355146Y-146012308D01*
X99346533Y-146014343D01*
X99266508Y-146030261D01*
X99266498Y-146030264D01*
X99120827Y-146090602D01*
X99120814Y-146090609D01*
X98989711Y-146178210D01*
X98989707Y-146178213D01*
X98878213Y-146289707D01*
X98878210Y-146289711D01*
X98847505Y-146335665D01*
X98793893Y-146380470D01*
X98724568Y-146389177D01*
X98696951Y-146381335D01*
X98599728Y-146341064D01*
X98599716Y-146341061D01*
X98445072Y-146310300D01*
X98445069Y-146310300D01*
X98287385Y-146310300D01*
X98287382Y-146310300D01*
X98132737Y-146341061D01*
X98132725Y-146341064D01*
X97987054Y-146401402D01*
X97987041Y-146401409D01*
X97855938Y-146489010D01*
X97855934Y-146489013D01*
X97744440Y-146600507D01*
X97744436Y-146600512D01*
X97735105Y-146614477D01*
X97681491Y-146659280D01*
X97612166Y-146667986D01*
X97549140Y-146637829D01*
X97512422Y-146578385D01*
X97510387Y-146569772D01*
X97509737Y-146566503D01*
X97493931Y-146528343D01*
X97449397Y-146420827D01*
X97449390Y-146420814D01*
X97361789Y-146289711D01*
X97361786Y-146289707D01*
X97250292Y-146178213D01*
X97250288Y-146178210D01*
X97119185Y-146090609D01*
X97119172Y-146090602D01*
X96973501Y-146030264D01*
X96973489Y-146030261D01*
X96818845Y-145999500D01*
X96818842Y-145999500D01*
X96661158Y-145999500D01*
X96661155Y-145999500D01*
X96506510Y-146030261D01*
X96506498Y-146030264D01*
X96360827Y-146090602D01*
X96360814Y-146090609D01*
X96229711Y-146178210D01*
X96229707Y-146178213D01*
X96118213Y-146289707D01*
X96118210Y-146289711D01*
X96030609Y-146420814D01*
X96030602Y-146420827D01*
X95970264Y-146566498D01*
X95970261Y-146566510D01*
X95939500Y-146721153D01*
X93500500Y-146721153D01*
X93500500Y-145527350D01*
X93520185Y-145460311D01*
X93572989Y-145414556D01*
X93642147Y-145404612D01*
X93693391Y-145424248D01*
X93820814Y-145509390D01*
X93820827Y-145509397D01*
X93966498Y-145569735D01*
X93966503Y-145569737D01*
X94121153Y-145600499D01*
X94121156Y-145600500D01*
X94121158Y-145600500D01*
X94278844Y-145600500D01*
X94278845Y-145600499D01*
X94433497Y-145569737D01*
X94458795Y-145559258D01*
X94528265Y-145551788D01*
X94553705Y-145559258D01*
X94579003Y-145569737D01*
X94733653Y-145600499D01*
X94733656Y-145600500D01*
X94733658Y-145600500D01*
X94891344Y-145600500D01*
X94891345Y-145600499D01*
X95045997Y-145569737D01*
X95191679Y-145509394D01*
X95322789Y-145421789D01*
X95434289Y-145310289D01*
X95521894Y-145179179D01*
X95582237Y-145033497D01*
X95590883Y-144990033D01*
X95623268Y-144928122D01*
X95683983Y-144893548D01*
X95753753Y-144897287D01*
X95810425Y-144938154D01*
X95834117Y-144990033D01*
X95842761Y-145033489D01*
X95842764Y-145033501D01*
X95903102Y-145179172D01*
X95903109Y-145179185D01*
X95990710Y-145310288D01*
X95990713Y-145310292D01*
X96102207Y-145421786D01*
X96102211Y-145421789D01*
X96233314Y-145509390D01*
X96233327Y-145509397D01*
X96378998Y-145569735D01*
X96379003Y-145569737D01*
X96533653Y-145600499D01*
X96533656Y-145600500D01*
X96533658Y-145600500D01*
X96691344Y-145600500D01*
X96691345Y-145600499D01*
X96845997Y-145569737D01*
X96991679Y-145509394D01*
X97122789Y-145421789D01*
X97234289Y-145310289D01*
X97321894Y-145179179D01*
X97382237Y-145033497D01*
X97413000Y-144878842D01*
X97413000Y-144721158D01*
X97413000Y-144721155D01*
X97412999Y-144721153D01*
X97409331Y-144702712D01*
X97382237Y-144566503D01*
X97351491Y-144492274D01*
X97321897Y-144420827D01*
X97321890Y-144420814D01*
X97234289Y-144289711D01*
X97234286Y-144289707D01*
X97122792Y-144178213D01*
X97122788Y-144178210D01*
X96991685Y-144090609D01*
X96991672Y-144090602D01*
X96846001Y-144030264D01*
X96845989Y-144030261D01*
X96691345Y-143999500D01*
X96691342Y-143999500D01*
X96533658Y-143999500D01*
X96533655Y-143999500D01*
X96379010Y-144030261D01*
X96378998Y-144030264D01*
X96233327Y-144090602D01*
X96233314Y-144090609D01*
X96102211Y-144178210D01*
X96102207Y-144178213D01*
X95990713Y-144289707D01*
X95990710Y-144289711D01*
X95903109Y-144420814D01*
X95903102Y-144420827D01*
X95842764Y-144566498D01*
X95842761Y-144566508D01*
X95834117Y-144609967D01*
X95801732Y-144671878D01*
X95741016Y-144706452D01*
X95671247Y-144702712D01*
X95614575Y-144661845D01*
X95590883Y-144609967D01*
X95582238Y-144566508D01*
X95582237Y-144566507D01*
X95582237Y-144566503D01*
X95551491Y-144492274D01*
X95521897Y-144420827D01*
X95521890Y-144420814D01*
X95434289Y-144289711D01*
X95434286Y-144289707D01*
X95322792Y-144178213D01*
X95322788Y-144178210D01*
X95191685Y-144090609D01*
X95191672Y-144090602D01*
X95046001Y-144030264D01*
X95045989Y-144030261D01*
X94891345Y-143999500D01*
X94891342Y-143999500D01*
X94733658Y-143999500D01*
X94733655Y-143999500D01*
X94579011Y-144030260D01*
X94579001Y-144030263D01*
X94553702Y-144040743D01*
X94484233Y-144048212D01*
X94458798Y-144040743D01*
X94433498Y-144030263D01*
X94433488Y-144030260D01*
X94278845Y-143999500D01*
X94278842Y-143999500D01*
X94121158Y-143999500D01*
X94121155Y-143999500D01*
X93966510Y-144030261D01*
X93966498Y-144030264D01*
X93820827Y-144090602D01*
X93820814Y-144090609D01*
X93693391Y-144175751D01*
X93626713Y-144196629D01*
X93559333Y-144178144D01*
X93512643Y-144126165D01*
X93500500Y-144072649D01*
X93500500Y-142281153D01*
X95619500Y-142281153D01*
X95619500Y-142438846D01*
X95650261Y-142593489D01*
X95650264Y-142593501D01*
X95710602Y-142739172D01*
X95710609Y-142739185D01*
X95798210Y-142870288D01*
X95798213Y-142870292D01*
X95909707Y-142981786D01*
X95909711Y-142981789D01*
X96040814Y-143069390D01*
X96040827Y-143069397D01*
X96186498Y-143129735D01*
X96186503Y-143129737D01*
X96341153Y-143160499D01*
X96341156Y-143160500D01*
X96341158Y-143160500D01*
X96498844Y-143160500D01*
X96498845Y-143160499D01*
X96653497Y-143129737D01*
X96799179Y-143069394D01*
X96930289Y-142981789D01*
X97041789Y-142870289D01*
X97129394Y-142739179D01*
X97189737Y-142593497D01*
X97220500Y-142438842D01*
X97220500Y-142281158D01*
X97220500Y-142281155D01*
X97220499Y-142281153D01*
X97200215Y-142179179D01*
X97189737Y-142126503D01*
X97181842Y-142107443D01*
X97129397Y-141980827D01*
X97129390Y-141980814D01*
X97041789Y-141849711D01*
X97041786Y-141849707D01*
X96930292Y-141738213D01*
X96930288Y-141738210D01*
X96799185Y-141650609D01*
X96799172Y-141650602D01*
X96653501Y-141590264D01*
X96653489Y-141590261D01*
X96498845Y-141559500D01*
X96498842Y-141559500D01*
X96341158Y-141559500D01*
X96341155Y-141559500D01*
X96186510Y-141590261D01*
X96186498Y-141590264D01*
X96040827Y-141650602D01*
X96040814Y-141650609D01*
X95909711Y-141738210D01*
X95909707Y-141738213D01*
X95798213Y-141849707D01*
X95798210Y-141849711D01*
X95710609Y-141980814D01*
X95710602Y-141980827D01*
X95650264Y-142126498D01*
X95650261Y-142126510D01*
X95619500Y-142281153D01*
X93500500Y-142281153D01*
X93500500Y-140907702D01*
X93520185Y-140840663D01*
X93572989Y-140794908D01*
X93642147Y-140784964D01*
X93648667Y-140786080D01*
X93705435Y-140797372D01*
X93721157Y-140800500D01*
X93721158Y-140800500D01*
X93878844Y-140800500D01*
X93878845Y-140800499D01*
X94033497Y-140769737D01*
X94179179Y-140709394D01*
X94310289Y-140621789D01*
X94421789Y-140510289D01*
X94509394Y-140379179D01*
X94516677Y-140361593D01*
X94560514Y-140307190D01*
X94626807Y-140285122D01*
X94655431Y-140287426D01*
X94721155Y-140300500D01*
X94721158Y-140300500D01*
X94878844Y-140300500D01*
X94878845Y-140300499D01*
X95033497Y-140269737D01*
X95179179Y-140209394D01*
X95310289Y-140121789D01*
X95370144Y-140061933D01*
X95431463Y-140028450D01*
X95501155Y-140033434D01*
X95526714Y-140046514D01*
X95620814Y-140109390D01*
X95620827Y-140109397D01*
X95766498Y-140169735D01*
X95766503Y-140169737D01*
X95910269Y-140198334D01*
X95921153Y-140200499D01*
X95921156Y-140200500D01*
X95921158Y-140200500D01*
X96078844Y-140200500D01*
X96078845Y-140200499D01*
X96233497Y-140169737D01*
X96379179Y-140109394D01*
X96510289Y-140021789D01*
X96621789Y-139910289D01*
X96709394Y-139779179D01*
X96769737Y-139633497D01*
X96800500Y-139478842D01*
X96800500Y-139321158D01*
X96800500Y-139321155D01*
X96800499Y-139321153D01*
X96783248Y-139234426D01*
X96769737Y-139166503D01*
X96769732Y-139166492D01*
X96767969Y-139160676D01*
X96770720Y-139159841D01*
X96764497Y-139102641D01*
X96795691Y-139040122D01*
X96855734Y-139004392D01*
X96886555Y-139000500D01*
X107975500Y-139000500D01*
X108042539Y-139020185D01*
G37*
%TD.AperFunction*%
%TD*%
M02*
