%TF.GenerationSoftware,KiCad,Pcbnew,10.0.1+dfsg-1*%
%TF.CreationDate,2026-04-19T22:08:52+09:00*%
%TF.ProjectId,slimevr-nugget,736c696d-6576-4722-9d6e-75676765742e,rev?*%
%TF.SameCoordinates,Original*%
%TF.FileFunction,Legend,Bot*%
%TF.FilePolarity,Positive*%
%FSLAX46Y46*%
G04 Gerber Fmt 4.6, Leading zero omitted, Abs format (unit mm)*
G04 Created by KiCad (PCBNEW 10.0.1+dfsg-1) date 2026-04-19 22:08:52*
%MOMM*%
%LPD*%
G01*
G04 APERTURE LIST*
%ADD10C,0.100000*%
%ADD11C,0.078125*%
%ADD12C,0.120000*%
%ADD13C,1.500000*%
G04 APERTURE END LIST*
D10*
X98500000Y-153800000D02*
X108500000Y-153800000D01*
X108500000Y-155800000D01*
X98500000Y-155800000D01*
X98500000Y-153800000D01*
G36*
X98500000Y-153800000D02*
G01*
X108500000Y-153800000D01*
X108500000Y-155800000D01*
X98500000Y-155800000D01*
X98500000Y-153800000D01*
G37*
D11*
X95814563Y-151749999D02*
X95783610Y-151657142D01*
X95783610Y-151657142D02*
X95783610Y-151502380D01*
X95783610Y-151502380D02*
X95814563Y-151440475D01*
X95814563Y-151440475D02*
X95845515Y-151409523D01*
X95845515Y-151409523D02*
X95907420Y-151378570D01*
X95907420Y-151378570D02*
X95969324Y-151378570D01*
X95969324Y-151378570D02*
X96031229Y-151409523D01*
X96031229Y-151409523D02*
X96062182Y-151440475D01*
X96062182Y-151440475D02*
X96093134Y-151502380D01*
X96093134Y-151502380D02*
X96124086Y-151626189D01*
X96124086Y-151626189D02*
X96155039Y-151688094D01*
X96155039Y-151688094D02*
X96185991Y-151719047D01*
X96185991Y-151719047D02*
X96247896Y-151749999D01*
X96247896Y-151749999D02*
X96309801Y-151749999D01*
X96309801Y-151749999D02*
X96371705Y-151719047D01*
X96371705Y-151719047D02*
X96402658Y-151688094D01*
X96402658Y-151688094D02*
X96433610Y-151626189D01*
X96433610Y-151626189D02*
X96433610Y-151471428D01*
X96433610Y-151471428D02*
X96402658Y-151378570D01*
X96433610Y-151161903D02*
X95783610Y-151007141D01*
X95783610Y-151007141D02*
X96247896Y-150883332D01*
X96247896Y-150883332D02*
X95783610Y-150759522D01*
X95783610Y-150759522D02*
X96433610Y-150604761D01*
X95783610Y-150357142D02*
X96433610Y-150357142D01*
X96433610Y-150357142D02*
X96433610Y-150202380D01*
X96433610Y-150202380D02*
X96402658Y-150109523D01*
X96402658Y-150109523D02*
X96340753Y-150047618D01*
X96340753Y-150047618D02*
X96278848Y-150016665D01*
X96278848Y-150016665D02*
X96155039Y-149985713D01*
X96155039Y-149985713D02*
X96062182Y-149985713D01*
X96062182Y-149985713D02*
X95938372Y-150016665D01*
X95938372Y-150016665D02*
X95876467Y-150047618D01*
X95876467Y-150047618D02*
X95814563Y-150109523D01*
X95814563Y-150109523D02*
X95783610Y-150202380D01*
X95783610Y-150202380D02*
X95783610Y-150357142D01*
X95814563Y-149242856D02*
X95783610Y-149149999D01*
X95783610Y-149149999D02*
X95783610Y-148995237D01*
X95783610Y-148995237D02*
X95814563Y-148933332D01*
X95814563Y-148933332D02*
X95845515Y-148902380D01*
X95845515Y-148902380D02*
X95907420Y-148871427D01*
X95907420Y-148871427D02*
X95969324Y-148871427D01*
X95969324Y-148871427D02*
X96031229Y-148902380D01*
X96031229Y-148902380D02*
X96062182Y-148933332D01*
X96062182Y-148933332D02*
X96093134Y-148995237D01*
X96093134Y-148995237D02*
X96124086Y-149119046D01*
X96124086Y-149119046D02*
X96155039Y-149180951D01*
X96155039Y-149180951D02*
X96185991Y-149211904D01*
X96185991Y-149211904D02*
X96247896Y-149242856D01*
X96247896Y-149242856D02*
X96309801Y-149242856D01*
X96309801Y-149242856D02*
X96371705Y-149211904D01*
X96371705Y-149211904D02*
X96402658Y-149180951D01*
X96402658Y-149180951D02*
X96433610Y-149119046D01*
X96433610Y-149119046D02*
X96433610Y-148964285D01*
X96433610Y-148964285D02*
X96402658Y-148871427D01*
X96433610Y-148654760D02*
X95783610Y-148499998D01*
X95783610Y-148499998D02*
X96247896Y-148376189D01*
X96247896Y-148376189D02*
X95783610Y-148252379D01*
X95783610Y-148252379D02*
X96433610Y-148097618D01*
X95845515Y-147478570D02*
X95814563Y-147509522D01*
X95814563Y-147509522D02*
X95783610Y-147602380D01*
X95783610Y-147602380D02*
X95783610Y-147664284D01*
X95783610Y-147664284D02*
X95814563Y-147757141D01*
X95814563Y-147757141D02*
X95876467Y-147819046D01*
X95876467Y-147819046D02*
X95938372Y-147849999D01*
X95938372Y-147849999D02*
X96062182Y-147880951D01*
X96062182Y-147880951D02*
X96155039Y-147880951D01*
X96155039Y-147880951D02*
X96278848Y-147849999D01*
X96278848Y-147849999D02*
X96340753Y-147819046D01*
X96340753Y-147819046D02*
X96402658Y-147757141D01*
X96402658Y-147757141D02*
X96433610Y-147664284D01*
X96433610Y-147664284D02*
X96433610Y-147602380D01*
X96433610Y-147602380D02*
X96402658Y-147509522D01*
X96402658Y-147509522D02*
X96371705Y-147478570D01*
X96402658Y-146364284D02*
X96433610Y-146426189D01*
X96433610Y-146426189D02*
X96433610Y-146519046D01*
X96433610Y-146519046D02*
X96402658Y-146611903D01*
X96402658Y-146611903D02*
X96340753Y-146673808D01*
X96340753Y-146673808D02*
X96278848Y-146704761D01*
X96278848Y-146704761D02*
X96155039Y-146735713D01*
X96155039Y-146735713D02*
X96062182Y-146735713D01*
X96062182Y-146735713D02*
X95938372Y-146704761D01*
X95938372Y-146704761D02*
X95876467Y-146673808D01*
X95876467Y-146673808D02*
X95814563Y-146611903D01*
X95814563Y-146611903D02*
X95783610Y-146519046D01*
X95783610Y-146519046D02*
X95783610Y-146457142D01*
X95783610Y-146457142D02*
X95814563Y-146364284D01*
X95814563Y-146364284D02*
X95845515Y-146333332D01*
X95845515Y-146333332D02*
X96062182Y-146333332D01*
X96062182Y-146333332D02*
X96062182Y-146457142D01*
X95783610Y-146054761D02*
X96433610Y-146054761D01*
X96433610Y-146054761D02*
X95783610Y-145683332D01*
X95783610Y-145683332D02*
X96433610Y-145683332D01*
X95783610Y-145373809D02*
X96433610Y-145373809D01*
X96433610Y-145373809D02*
X96433610Y-145219047D01*
X96433610Y-145219047D02*
X96402658Y-145126190D01*
X96402658Y-145126190D02*
X96340753Y-145064285D01*
X96340753Y-145064285D02*
X96278848Y-145033332D01*
X96278848Y-145033332D02*
X96155039Y-145002380D01*
X96155039Y-145002380D02*
X96062182Y-145002380D01*
X96062182Y-145002380D02*
X95938372Y-145033332D01*
X95938372Y-145033332D02*
X95876467Y-145064285D01*
X95876467Y-145064285D02*
X95814563Y-145126190D01*
X95814563Y-145126190D02*
X95783610Y-145219047D01*
X95783610Y-145219047D02*
X95783610Y-145373809D01*
X96031229Y-144228571D02*
X96031229Y-143733333D01*
X95783610Y-143980952D02*
X96278848Y-143980952D01*
X96433610Y-143114285D02*
X96433610Y-143423809D01*
X96433610Y-143423809D02*
X96124086Y-143454761D01*
X96124086Y-143454761D02*
X96155039Y-143423809D01*
X96155039Y-143423809D02*
X96185991Y-143361904D01*
X96185991Y-143361904D02*
X96185991Y-143207142D01*
X96185991Y-143207142D02*
X96155039Y-143145237D01*
X96155039Y-143145237D02*
X96124086Y-143114285D01*
X96124086Y-143114285D02*
X96062182Y-143083332D01*
X96062182Y-143083332D02*
X95907420Y-143083332D01*
X95907420Y-143083332D02*
X95845515Y-143114285D01*
X95845515Y-143114285D02*
X95814563Y-143145237D01*
X95814563Y-143145237D02*
X95783610Y-143207142D01*
X95783610Y-143207142D02*
X95783610Y-143361904D01*
X95783610Y-143361904D02*
X95814563Y-143423809D01*
X95814563Y-143423809D02*
X95845515Y-143454761D01*
X96433610Y-142897618D02*
X95783610Y-142680951D01*
X95783610Y-142680951D02*
X96433610Y-142464284D01*
X95845515Y-141380951D02*
X95814563Y-141411903D01*
X95814563Y-141411903D02*
X95783610Y-141504761D01*
X95783610Y-141504761D02*
X95783610Y-141566665D01*
X95783610Y-141566665D02*
X95814563Y-141659522D01*
X95814563Y-141659522D02*
X95876467Y-141721427D01*
X95876467Y-141721427D02*
X95938372Y-141752380D01*
X95938372Y-141752380D02*
X96062182Y-141783332D01*
X96062182Y-141783332D02*
X96155039Y-141783332D01*
X96155039Y-141783332D02*
X96278848Y-141752380D01*
X96278848Y-141752380D02*
X96340753Y-141721427D01*
X96340753Y-141721427D02*
X96402658Y-141659522D01*
X96402658Y-141659522D02*
X96433610Y-141566665D01*
X96433610Y-141566665D02*
X96433610Y-141504761D01*
X96433610Y-141504761D02*
X96402658Y-141411903D01*
X96402658Y-141411903D02*
X96371705Y-141380951D01*
X95783610Y-141102380D02*
X96433610Y-141102380D01*
X96124086Y-141102380D02*
X96124086Y-140730951D01*
X95783610Y-140730951D02*
X96433610Y-140730951D01*
X96402658Y-140080951D02*
X96433610Y-140142856D01*
X96433610Y-140142856D02*
X96433610Y-140235713D01*
X96433610Y-140235713D02*
X96402658Y-140328570D01*
X96402658Y-140328570D02*
X96340753Y-140390475D01*
X96340753Y-140390475D02*
X96278848Y-140421428D01*
X96278848Y-140421428D02*
X96155039Y-140452380D01*
X96155039Y-140452380D02*
X96062182Y-140452380D01*
X96062182Y-140452380D02*
X95938372Y-140421428D01*
X95938372Y-140421428D02*
X95876467Y-140390475D01*
X95876467Y-140390475D02*
X95814563Y-140328570D01*
X95814563Y-140328570D02*
X95783610Y-140235713D01*
X95783610Y-140235713D02*
X95783610Y-140173809D01*
X95783610Y-140173809D02*
X95814563Y-140080951D01*
X95814563Y-140080951D02*
X95845515Y-140049999D01*
X95845515Y-140049999D02*
X96062182Y-140049999D01*
X96062182Y-140049999D02*
X96062182Y-140173809D01*
D10*
X106396115Y-139872419D02*
X106396115Y-139205752D01*
X106396115Y-138872419D02*
X106443734Y-138920038D01*
X106443734Y-138920038D02*
X106396115Y-138967657D01*
X106396115Y-138967657D02*
X106348496Y-138920038D01*
X106348496Y-138920038D02*
X106396115Y-138872419D01*
X106396115Y-138872419D02*
X106396115Y-138967657D01*
X105919925Y-139205752D02*
X105919925Y-139872419D01*
X105919925Y-139300990D02*
X105872306Y-139253371D01*
X105872306Y-139253371D02*
X105777068Y-139205752D01*
X105777068Y-139205752D02*
X105634211Y-139205752D01*
X105634211Y-139205752D02*
X105538973Y-139253371D01*
X105538973Y-139253371D02*
X105491354Y-139348609D01*
X105491354Y-139348609D02*
X105491354Y-139872419D01*
X105158020Y-139205752D02*
X104777068Y-139205752D01*
X105015163Y-139872419D02*
X105015163Y-139015276D01*
X105015163Y-139015276D02*
X104967544Y-138920038D01*
X104967544Y-138920038D02*
X104872306Y-138872419D01*
X104872306Y-138872419D02*
X104777068Y-138872419D01*
X104300877Y-139872419D02*
X104396115Y-139824800D01*
X104396115Y-139824800D02*
X104443734Y-139777180D01*
X104443734Y-139777180D02*
X104491353Y-139681942D01*
X104491353Y-139681942D02*
X104491353Y-139396228D01*
X104491353Y-139396228D02*
X104443734Y-139300990D01*
X104443734Y-139300990D02*
X104396115Y-139253371D01*
X104396115Y-139253371D02*
X104300877Y-139205752D01*
X104300877Y-139205752D02*
X104158020Y-139205752D01*
X104158020Y-139205752D02*
X104062782Y-139253371D01*
X104062782Y-139253371D02*
X104015163Y-139300990D01*
X104015163Y-139300990D02*
X103967544Y-139396228D01*
X103967544Y-139396228D02*
X103967544Y-139681942D01*
X103967544Y-139681942D02*
X104015163Y-139777180D01*
X104015163Y-139777180D02*
X104062782Y-139824800D01*
X104062782Y-139824800D02*
X104158020Y-139872419D01*
X104158020Y-139872419D02*
X104300877Y-139872419D01*
X103491353Y-138872419D02*
X103586591Y-139062895D01*
X103110401Y-139824800D02*
X103015163Y-139872419D01*
X103015163Y-139872419D02*
X102824687Y-139872419D01*
X102824687Y-139872419D02*
X102729449Y-139824800D01*
X102729449Y-139824800D02*
X102681830Y-139729561D01*
X102681830Y-139729561D02*
X102681830Y-139681942D01*
X102681830Y-139681942D02*
X102729449Y-139586704D01*
X102729449Y-139586704D02*
X102824687Y-139539085D01*
X102824687Y-139539085D02*
X102967544Y-139539085D01*
X102967544Y-139539085D02*
X103062782Y-139491466D01*
X103062782Y-139491466D02*
X103110401Y-139396228D01*
X103110401Y-139396228D02*
X103110401Y-139348609D01*
X103110401Y-139348609D02*
X103062782Y-139253371D01*
X103062782Y-139253371D02*
X102967544Y-139205752D01*
X102967544Y-139205752D02*
X102824687Y-139205752D01*
X102824687Y-139205752D02*
X102729449Y-139253371D01*
X101491353Y-139205752D02*
X101491353Y-139872419D01*
X101491353Y-139300990D02*
X101443734Y-139253371D01*
X101443734Y-139253371D02*
X101348496Y-139205752D01*
X101348496Y-139205752D02*
X101205639Y-139205752D01*
X101205639Y-139205752D02*
X101110401Y-139253371D01*
X101110401Y-139253371D02*
X101062782Y-139348609D01*
X101062782Y-139348609D02*
X101062782Y-139872419D01*
X100158020Y-139205752D02*
X100158020Y-139872419D01*
X100586591Y-139205752D02*
X100586591Y-139729561D01*
X100586591Y-139729561D02*
X100538972Y-139824800D01*
X100538972Y-139824800D02*
X100443734Y-139872419D01*
X100443734Y-139872419D02*
X100300877Y-139872419D01*
X100300877Y-139872419D02*
X100205639Y-139824800D01*
X100205639Y-139824800D02*
X100158020Y-139777180D01*
X99253258Y-139205752D02*
X99253258Y-140015276D01*
X99253258Y-140015276D02*
X99300877Y-140110514D01*
X99300877Y-140110514D02*
X99348496Y-140158133D01*
X99348496Y-140158133D02*
X99443734Y-140205752D01*
X99443734Y-140205752D02*
X99586591Y-140205752D01*
X99586591Y-140205752D02*
X99681829Y-140158133D01*
X99253258Y-139824800D02*
X99348496Y-139872419D01*
X99348496Y-139872419D02*
X99538972Y-139872419D01*
X99538972Y-139872419D02*
X99634210Y-139824800D01*
X99634210Y-139824800D02*
X99681829Y-139777180D01*
X99681829Y-139777180D02*
X99729448Y-139681942D01*
X99729448Y-139681942D02*
X99729448Y-139396228D01*
X99729448Y-139396228D02*
X99681829Y-139300990D01*
X99681829Y-139300990D02*
X99634210Y-139253371D01*
X99634210Y-139253371D02*
X99538972Y-139205752D01*
X99538972Y-139205752D02*
X99348496Y-139205752D01*
X99348496Y-139205752D02*
X99253258Y-139253371D01*
X98348496Y-139205752D02*
X98348496Y-140015276D01*
X98348496Y-140015276D02*
X98396115Y-140110514D01*
X98396115Y-140110514D02*
X98443734Y-140158133D01*
X98443734Y-140158133D02*
X98538972Y-140205752D01*
X98538972Y-140205752D02*
X98681829Y-140205752D01*
X98681829Y-140205752D02*
X98777067Y-140158133D01*
X98348496Y-139824800D02*
X98443734Y-139872419D01*
X98443734Y-139872419D02*
X98634210Y-139872419D01*
X98634210Y-139872419D02*
X98729448Y-139824800D01*
X98729448Y-139824800D02*
X98777067Y-139777180D01*
X98777067Y-139777180D02*
X98824686Y-139681942D01*
X98824686Y-139681942D02*
X98824686Y-139396228D01*
X98824686Y-139396228D02*
X98777067Y-139300990D01*
X98777067Y-139300990D02*
X98729448Y-139253371D01*
X98729448Y-139253371D02*
X98634210Y-139205752D01*
X98634210Y-139205752D02*
X98443734Y-139205752D01*
X98443734Y-139205752D02*
X98348496Y-139253371D01*
X97491353Y-139824800D02*
X97586591Y-139872419D01*
X97586591Y-139872419D02*
X97777067Y-139872419D01*
X97777067Y-139872419D02*
X97872305Y-139824800D01*
X97872305Y-139824800D02*
X97919924Y-139729561D01*
X97919924Y-139729561D02*
X97919924Y-139348609D01*
X97919924Y-139348609D02*
X97872305Y-139253371D01*
X97872305Y-139253371D02*
X97777067Y-139205752D01*
X97777067Y-139205752D02*
X97586591Y-139205752D01*
X97586591Y-139205752D02*
X97491353Y-139253371D01*
X97491353Y-139253371D02*
X97443734Y-139348609D01*
X97443734Y-139348609D02*
X97443734Y-139443847D01*
X97443734Y-139443847D02*
X97919924Y-139539085D01*
X97158019Y-139205752D02*
X96777067Y-139205752D01*
X97015162Y-138872419D02*
X97015162Y-139729561D01*
X97015162Y-139729561D02*
X96967543Y-139824800D01*
X96967543Y-139824800D02*
X96872305Y-139872419D01*
X96872305Y-139872419D02*
X96777067Y-139872419D01*
X108196115Y-142772419D02*
X108196115Y-142105752D01*
X108196115Y-142296228D02*
X108148496Y-142200990D01*
X108148496Y-142200990D02*
X108100877Y-142153371D01*
X108100877Y-142153371D02*
X108005639Y-142105752D01*
X108005639Y-142105752D02*
X107910401Y-142105752D01*
X107196115Y-142724800D02*
X107291353Y-142772419D01*
X107291353Y-142772419D02*
X107481829Y-142772419D01*
X107481829Y-142772419D02*
X107577067Y-142724800D01*
X107577067Y-142724800D02*
X107624686Y-142629561D01*
X107624686Y-142629561D02*
X107624686Y-142248609D01*
X107624686Y-142248609D02*
X107577067Y-142153371D01*
X107577067Y-142153371D02*
X107481829Y-142105752D01*
X107481829Y-142105752D02*
X107291353Y-142105752D01*
X107291353Y-142105752D02*
X107196115Y-142153371D01*
X107196115Y-142153371D02*
X107148496Y-142248609D01*
X107148496Y-142248609D02*
X107148496Y-142343847D01*
X107148496Y-142343847D02*
X107624686Y-142439085D01*
X106815162Y-142105752D02*
X106577067Y-142772419D01*
X106577067Y-142772419D02*
X106338972Y-142105752D01*
X105958019Y-142677180D02*
X105910400Y-142724800D01*
X105910400Y-142724800D02*
X105958019Y-142772419D01*
X105958019Y-142772419D02*
X106005638Y-142724800D01*
X106005638Y-142724800D02*
X105958019Y-142677180D01*
X105958019Y-142677180D02*
X105958019Y-142772419D01*
X105529448Y-141867657D02*
X105481829Y-141820038D01*
X105481829Y-141820038D02*
X105386591Y-141772419D01*
X105386591Y-141772419D02*
X105148496Y-141772419D01*
X105148496Y-141772419D02*
X105053258Y-141820038D01*
X105053258Y-141820038D02*
X105005639Y-141867657D01*
X105005639Y-141867657D02*
X104958020Y-141962895D01*
X104958020Y-141962895D02*
X104958020Y-142058133D01*
X104958020Y-142058133D02*
X105005639Y-142200990D01*
X105005639Y-142200990D02*
X105577067Y-142772419D01*
X105577067Y-142772419D02*
X104958020Y-142772419D01*
%TO.C,TP2*%
D12*
X95350000Y-145796000D02*
G75*
G02*
X93450000Y-145796000I-950000J0D01*
G01*
X93450000Y-145796000D02*
G75*
G02*
X95350000Y-145796000I950000J0D01*
G01*
%TO.C,TP1*%
X95350000Y-143256000D02*
G75*
G02*
X93450000Y-143256000I-950000J0D01*
G01*
X93450000Y-143256000D02*
G75*
G02*
X95350000Y-143256000I950000J0D01*
G01*
%TO.C,TP4*%
X95350000Y-150876000D02*
G75*
G02*
X93450000Y-150876000I-950000J0D01*
G01*
X93450000Y-150876000D02*
G75*
G02*
X95350000Y-150876000I950000J0D01*
G01*
%TO.C,TP7*%
X95350000Y-140716000D02*
G75*
G02*
X93450000Y-140716000I-950000J0D01*
G01*
X93450000Y-140716000D02*
G75*
G02*
X95350000Y-140716000I950000J0D01*
G01*
%TO.C,TP3*%
X95350000Y-148336000D02*
G75*
G02*
X93450000Y-148336000I-950000J0D01*
G01*
X93450000Y-148336000D02*
G75*
G02*
X95350000Y-148336000I950000J0D01*
G01*
%TD*%
%LPC*%
D13*
%TO.C,TP2*%
X94400000Y-145796000D03*
%TD*%
%TO.C,TP1*%
X94400000Y-143256000D03*
%TD*%
%TO.C,TP4*%
X94400000Y-150876000D03*
%TD*%
%TO.C,TP7*%
X94400000Y-140716000D03*
%TD*%
%TO.C,TP3*%
X94400000Y-148336000D03*
%TD*%
%LPD*%
M02*
