%TF.GenerationSoftware,KiCad,Pcbnew,10.0.1*%
%TF.CreationDate,2026-04-20T11:43:07+09:00*%
%TF.ProjectId,slimevr-nugget,736c696d-6576-4722-9d6e-75676765742e,rev?*%
%TF.SameCoordinates,Original*%
%TF.FileFunction,Legend,Top*%
%TF.FilePolarity,Positive*%
%FSLAX46Y46*%
G04 Gerber Fmt 4.6, Leading zero omitted, Abs format (unit mm)*
G04 Created by KiCad (PCBNEW 10.0.1) date 2026-04-20 11:43:07*
%MOMM*%
%LPD*%
G01*
G04 APERTURE LIST*
G04 Aperture macros list*
%AMRoundRect*
0 Rectangle with rounded corners*
0 $1 Rounding radius*
0 $2 $3 $4 $5 $6 $7 $8 $9 X,Y pos of 4 corners*
0 Add a 4 corners polygon primitive as box body*
4,1,4,$2,$3,$4,$5,$6,$7,$8,$9,$2,$3,0*
0 Add four circle primitives for the rounded corners*
1,1,$1+$1,$2,$3*
1,1,$1+$1,$4,$5*
1,1,$1+$1,$6,$7*
1,1,$1+$1,$8,$9*
0 Add four rect primitives between the rounded corners*
20,1,$1+$1,$2,$3,$4,$5,0*
20,1,$1+$1,$4,$5,$6,$7,0*
20,1,$1+$1,$6,$7,$8,$9,0*
20,1,$1+$1,$8,$9,$2,$3,0*%
G04 Aperture macros list end*
%ADD10C,0.100000*%
%ADD11C,0.062500*%
%ADD12C,1.000000*%
%ADD13C,0.120000*%
%ADD14RoundRect,0.140000X-0.140000X-0.170000X0.140000X-0.170000X0.140000X0.170000X-0.140000X0.170000X0*%
%ADD15RoundRect,0.140000X0.170000X-0.140000X0.170000X0.140000X-0.170000X0.140000X-0.170000X-0.140000X0*%
%ADD16RoundRect,0.250000X0.350000X-0.450000X0.350000X0.450000X-0.350000X0.450000X-0.350000X-0.450000X0*%
%ADD17RoundRect,0.135000X-0.135000X-0.185000X0.135000X-0.185000X0.135000X0.185000X-0.135000X0.185000X0*%
%ADD18RoundRect,0.140000X0.140000X0.170000X-0.140000X0.170000X-0.140000X-0.170000X0.140000X-0.170000X0*%
%ADD19RoundRect,0.135000X0.185000X-0.135000X0.185000X0.135000X-0.185000X0.135000X-0.185000X-0.135000X0*%
%ADD20RoundRect,0.062500X0.375000X0.062500X-0.375000X0.062500X-0.375000X-0.062500X0.375000X-0.062500X0*%
%ADD21RoundRect,0.062500X0.062500X0.375000X-0.062500X0.375000X-0.062500X-0.375000X0.062500X-0.375000X0*%
%ADD22R,1.600000X1.600000*%
%ADD23C,1.000000*%
%ADD24RoundRect,0.147500X0.147500X0.172500X-0.147500X0.172500X-0.147500X-0.172500X0.147500X-0.172500X0*%
%ADD25RoundRect,0.140000X-0.170000X0.140000X-0.170000X-0.140000X0.170000X-0.140000X0.170000X0.140000X0*%
%ADD26RoundRect,0.135000X0.135000X0.185000X-0.135000X0.185000X-0.135000X-0.185000X0.135000X-0.185000X0*%
%ADD27C,0.200000*%
%ADD28RoundRect,0.250000X0.450000X0.350000X-0.450000X0.350000X-0.450000X-0.350000X0.450000X-0.350000X0*%
%ADD29RoundRect,0.147500X-0.172500X0.147500X-0.172500X-0.147500X0.172500X-0.147500X0.172500X0.147500X0*%
%ADD30R,0.675000X0.250000*%
%ADD31R,0.250000X0.675000*%
%ADD32RoundRect,0.150000X-0.512500X-0.150000X0.512500X-0.150000X0.512500X0.150000X-0.512500X0.150000X0*%
%ADD33RoundRect,0.147500X0.172500X-0.147500X0.172500X0.147500X-0.172500X0.147500X-0.172500X-0.147500X0*%
%ADD34RoundRect,0.050000X-0.350000X-0.050000X0.350000X-0.050000X0.350000X0.050000X-0.350000X0.050000X0*%
%ADD35RoundRect,0.050000X-0.050000X-0.350000X0.050000X-0.350000X0.050000X0.350000X-0.050000X0.350000X0*%
%ADD36R,4.600000X4.600000*%
%ADD37RoundRect,0.147500X-0.147500X-0.172500X0.147500X-0.172500X0.147500X0.172500X-0.147500X0.172500X0*%
G04 APERTURE END LIST*
D10*
X89750000Y-145250000D02*
G75*
G02*
X63250000Y-145250000I-13250000J0D01*
G01*
X63250000Y-145250000D02*
G75*
G02*
X89750000Y-145250000I13250000J0D01*
G01*
X103900000Y-153600000D02*
X106900000Y-153600000D01*
X106900000Y-155800000D01*
X103900000Y-155800000D01*
X103900000Y-153600000D01*
D11*
X107160165Y-155735559D02*
X107160165Y-155402226D01*
X107160165Y-155497464D02*
X107183975Y-155449845D01*
X107183975Y-155449845D02*
X107207784Y-155426035D01*
X107207784Y-155426035D02*
X107255403Y-155402226D01*
X107255403Y-155402226D02*
X107303022Y-155402226D01*
X107469689Y-155735559D02*
X107469689Y-155402226D01*
X107469689Y-155449845D02*
X107493499Y-155426035D01*
X107493499Y-155426035D02*
X107541118Y-155402226D01*
X107541118Y-155402226D02*
X107612546Y-155402226D01*
X107612546Y-155402226D02*
X107660165Y-155426035D01*
X107660165Y-155426035D02*
X107683975Y-155473654D01*
X107683975Y-155473654D02*
X107683975Y-155735559D01*
X107683975Y-155473654D02*
X107707784Y-155426035D01*
X107707784Y-155426035D02*
X107755403Y-155402226D01*
X107755403Y-155402226D02*
X107826832Y-155402226D01*
X107826832Y-155402226D02*
X107874451Y-155426035D01*
X107874451Y-155426035D02*
X107898261Y-155473654D01*
X107898261Y-155473654D02*
X107898261Y-155735559D01*
X108207785Y-155687940D02*
X108231594Y-155711750D01*
X108231594Y-155711750D02*
X108207785Y-155735559D01*
X108207785Y-155735559D02*
X108183975Y-155711750D01*
X108183975Y-155711750D02*
X108207785Y-155687940D01*
X108207785Y-155687940D02*
X108207785Y-155735559D01*
X108112547Y-155259369D02*
X108160166Y-155235559D01*
X108160166Y-155235559D02*
X108279213Y-155235559D01*
X108279213Y-155235559D02*
X108326832Y-155259369D01*
X108326832Y-155259369D02*
X108350642Y-155306988D01*
X108350642Y-155306988D02*
X108350642Y-155354607D01*
X108350642Y-155354607D02*
X108326832Y-155402226D01*
X108326832Y-155402226D02*
X108303023Y-155426035D01*
X108303023Y-155426035D02*
X108255404Y-155449845D01*
X108255404Y-155449845D02*
X108231594Y-155473654D01*
X108231594Y-155473654D02*
X108207785Y-155521273D01*
X108207785Y-155521273D02*
X108207785Y-155545083D01*
D10*
X93866390Y-150256265D02*
X93890200Y-150208646D01*
X93890200Y-150208646D02*
X93914009Y-150184836D01*
X93914009Y-150184836D02*
X93961628Y-150161027D01*
X93961628Y-150161027D02*
X94104485Y-150161027D01*
X94104485Y-150161027D02*
X94152104Y-150184836D01*
X94152104Y-150184836D02*
X94175914Y-150208646D01*
X94175914Y-150208646D02*
X94199723Y-150256265D01*
X94199723Y-150256265D02*
X94199723Y-150327693D01*
X94199723Y-150327693D02*
X94175914Y-150375312D01*
X94175914Y-150375312D02*
X94152104Y-150399122D01*
X94152104Y-150399122D02*
X94104485Y-150422931D01*
X94104485Y-150422931D02*
X93961628Y-150422931D01*
X93961628Y-150422931D02*
X93914009Y-150399122D01*
X93914009Y-150399122D02*
X93890200Y-150375312D01*
X93890200Y-150375312D02*
X93866390Y-150327693D01*
X93866390Y-150327693D02*
X93866390Y-150256265D01*
X94199723Y-150589598D02*
X93866390Y-150684836D01*
X93866390Y-150684836D02*
X94104485Y-150780074D01*
X94104485Y-150780074D02*
X93866390Y-150875312D01*
X93866390Y-150875312D02*
X94199723Y-150970550D01*
X93866390Y-151232456D02*
X93890200Y-151184837D01*
X93890200Y-151184837D02*
X93914009Y-151161027D01*
X93914009Y-151161027D02*
X93961628Y-151137218D01*
X93961628Y-151137218D02*
X94104485Y-151137218D01*
X94104485Y-151137218D02*
X94152104Y-151161027D01*
X94152104Y-151161027D02*
X94175914Y-151184837D01*
X94175914Y-151184837D02*
X94199723Y-151232456D01*
X94199723Y-151232456D02*
X94199723Y-151303884D01*
X94199723Y-151303884D02*
X94175914Y-151351503D01*
X94175914Y-151351503D02*
X94152104Y-151375313D01*
X94152104Y-151375313D02*
X94104485Y-151399122D01*
X94104485Y-151399122D02*
X93961628Y-151399122D01*
X93961628Y-151399122D02*
X93914009Y-151375313D01*
X93914009Y-151375313D02*
X93890200Y-151351503D01*
X93890200Y-151351503D02*
X93866390Y-151303884D01*
X93866390Y-151303884D02*
X93866390Y-151232456D01*
X97037217Y-140948609D02*
X97180074Y-140996228D01*
X97180074Y-140996228D02*
X97227693Y-141043847D01*
X97227693Y-141043847D02*
X97275312Y-141139085D01*
X97275312Y-141139085D02*
X97275312Y-141281942D01*
X97275312Y-141281942D02*
X97227693Y-141377180D01*
X97227693Y-141377180D02*
X97180074Y-141424800D01*
X97180074Y-141424800D02*
X97084836Y-141472419D01*
X97084836Y-141472419D02*
X96703884Y-141472419D01*
X96703884Y-141472419D02*
X96703884Y-140472419D01*
X96703884Y-140472419D02*
X97037217Y-140472419D01*
X97037217Y-140472419D02*
X97132455Y-140520038D01*
X97132455Y-140520038D02*
X97180074Y-140567657D01*
X97180074Y-140567657D02*
X97227693Y-140662895D01*
X97227693Y-140662895D02*
X97227693Y-140758133D01*
X97227693Y-140758133D02*
X97180074Y-140853371D01*
X97180074Y-140853371D02*
X97132455Y-140900990D01*
X97132455Y-140900990D02*
X97037217Y-140948609D01*
X97037217Y-140948609D02*
X96703884Y-140948609D01*
X97703884Y-141091466D02*
X98465789Y-141091466D01*
X98084836Y-141472419D02*
X98084836Y-140710514D01*
X102394360Y-140472419D02*
X102489598Y-140472419D01*
X102489598Y-140472419D02*
X102584836Y-140520038D01*
X102584836Y-140520038D02*
X102632455Y-140567657D01*
X102632455Y-140567657D02*
X102680074Y-140662895D01*
X102680074Y-140662895D02*
X102727693Y-140853371D01*
X102727693Y-140853371D02*
X102727693Y-141091466D01*
X102727693Y-141091466D02*
X102680074Y-141281942D01*
X102680074Y-141281942D02*
X102632455Y-141377180D01*
X102632455Y-141377180D02*
X102584836Y-141424800D01*
X102584836Y-141424800D02*
X102489598Y-141472419D01*
X102489598Y-141472419D02*
X102394360Y-141472419D01*
X102394360Y-141472419D02*
X102299122Y-141424800D01*
X102299122Y-141424800D02*
X102251503Y-141377180D01*
X102251503Y-141377180D02*
X102203884Y-141281942D01*
X102203884Y-141281942D02*
X102156265Y-141091466D01*
X102156265Y-141091466D02*
X102156265Y-140853371D01*
X102156265Y-140853371D02*
X102203884Y-140662895D01*
X102203884Y-140662895D02*
X102251503Y-140567657D01*
X102251503Y-140567657D02*
X102299122Y-140520038D01*
X102299122Y-140520038D02*
X102394360Y-140472419D01*
D12*
X71372179Y-141468952D02*
X67562655Y-141468952D01*
X67562655Y-141468952D02*
X67181703Y-145278476D01*
X67181703Y-145278476D02*
X67562655Y-144897523D01*
X67562655Y-144897523D02*
X68324560Y-144516571D01*
X68324560Y-144516571D02*
X70229322Y-144516571D01*
X70229322Y-144516571D02*
X70991227Y-144897523D01*
X70991227Y-144897523D02*
X71372179Y-145278476D01*
X71372179Y-145278476D02*
X71753132Y-146040380D01*
X71753132Y-146040380D02*
X71753132Y-147945142D01*
X71753132Y-147945142D02*
X71372179Y-148707047D01*
X71372179Y-148707047D02*
X70991227Y-149088000D01*
X70991227Y-149088000D02*
X70229322Y-149468952D01*
X70229322Y-149468952D02*
X68324560Y-149468952D01*
X68324560Y-149468952D02*
X67562655Y-149088000D01*
X67562655Y-149088000D02*
X67181703Y-148707047D01*
X76705513Y-141468952D02*
X77467418Y-141468952D01*
X77467418Y-141468952D02*
X78229322Y-141849904D01*
X78229322Y-141849904D02*
X78610275Y-142230857D01*
X78610275Y-142230857D02*
X78991227Y-142992761D01*
X78991227Y-142992761D02*
X79372180Y-144516571D01*
X79372180Y-144516571D02*
X79372180Y-146421333D01*
X79372180Y-146421333D02*
X78991227Y-147945142D01*
X78991227Y-147945142D02*
X78610275Y-148707047D01*
X78610275Y-148707047D02*
X78229322Y-149088000D01*
X78229322Y-149088000D02*
X77467418Y-149468952D01*
X77467418Y-149468952D02*
X76705513Y-149468952D01*
X76705513Y-149468952D02*
X75943608Y-149088000D01*
X75943608Y-149088000D02*
X75562656Y-148707047D01*
X75562656Y-148707047D02*
X75181703Y-147945142D01*
X75181703Y-147945142D02*
X74800751Y-146421333D01*
X74800751Y-146421333D02*
X74800751Y-144516571D01*
X74800751Y-144516571D02*
X75181703Y-142992761D01*
X75181703Y-142992761D02*
X75562656Y-142230857D01*
X75562656Y-142230857D02*
X75943608Y-141849904D01*
X75943608Y-141849904D02*
X76705513Y-141468952D01*
X84324561Y-141468952D02*
X85086466Y-141468952D01*
X85086466Y-141468952D02*
X85848370Y-141849904D01*
X85848370Y-141849904D02*
X86229323Y-142230857D01*
X86229323Y-142230857D02*
X86610275Y-142992761D01*
X86610275Y-142992761D02*
X86991228Y-144516571D01*
X86991228Y-144516571D02*
X86991228Y-146421333D01*
X86991228Y-146421333D02*
X86610275Y-147945142D01*
X86610275Y-147945142D02*
X86229323Y-148707047D01*
X86229323Y-148707047D02*
X85848370Y-149088000D01*
X85848370Y-149088000D02*
X85086466Y-149468952D01*
X85086466Y-149468952D02*
X84324561Y-149468952D01*
X84324561Y-149468952D02*
X83562656Y-149088000D01*
X83562656Y-149088000D02*
X83181704Y-148707047D01*
X83181704Y-148707047D02*
X82800751Y-147945142D01*
X82800751Y-147945142D02*
X82419799Y-146421333D01*
X82419799Y-146421333D02*
X82419799Y-144516571D01*
X82419799Y-144516571D02*
X82800751Y-142992761D01*
X82800751Y-142992761D02*
X83181704Y-142230857D01*
X83181704Y-142230857D02*
X83562656Y-141849904D01*
X83562656Y-141849904D02*
X84324561Y-141468952D01*
%TO.C,C13*%
D13*
X105992164Y-144340000D02*
X106207836Y-144340000D01*
X105992164Y-145060000D02*
X106207836Y-145060000D01*
%TO.C,C22*%
X101087500Y-154740336D02*
X101087500Y-154524664D01*
X101807500Y-154740336D02*
X101807500Y-154524664D01*
%TO.C,Y1*%
X107240000Y-145660000D02*
X110660000Y-145660000D01*
X110660000Y-145660000D02*
X110660000Y-141540000D01*
%TO.C,R10*%
X94873859Y-153982500D02*
X95181141Y-153982500D01*
X94873859Y-154742500D02*
X95181141Y-154742500D01*
%TO.C,C4*%
X109987836Y-151440000D02*
X109772164Y-151440000D01*
X109987836Y-152160000D02*
X109772164Y-152160000D01*
%TO.C,R7*%
X104020000Y-154843641D02*
X104020000Y-154536359D01*
X104780000Y-154843641D02*
X104780000Y-154536359D01*
%TO.C,R6*%
X105020000Y-154843641D02*
X105020000Y-154536359D01*
X105780000Y-154843641D02*
X105780000Y-154536359D01*
%TO.C,C21*%
X96012164Y-155040000D02*
X96227836Y-155040000D01*
X96012164Y-155760000D02*
X96227836Y-155760000D01*
%TO.C,R1*%
X101320000Y-143353641D02*
X101320000Y-143046359D01*
X102080000Y-143353641D02*
X102080000Y-143046359D01*
%TO.C,C1*%
X109407836Y-145840000D02*
X109192164Y-145840000D01*
X109407836Y-146560000D02*
X109192164Y-146560000D01*
%TO.C,U7*%
X96440000Y-142040000D02*
X96915000Y-142040000D01*
X96440000Y-142515000D02*
X96440000Y-142040000D01*
X96440000Y-145260000D02*
X96440000Y-144785000D01*
X96915000Y-145260000D02*
X96440000Y-145260000D01*
X99185000Y-142040000D02*
X99660000Y-142040000D01*
X99660000Y-142040000D02*
X99660000Y-142515000D01*
X99660000Y-144785000D02*
X99660000Y-145260000D01*
X99660000Y-145260000D02*
X99185000Y-145260000D01*
X100520000Y-144640000D02*
X100190000Y-144400000D01*
X100520000Y-144160000D01*
X100520000Y-144640000D01*
G36*
X100520000Y-144640000D02*
G01*
X100190000Y-144400000D01*
X100520000Y-144160000D01*
X100520000Y-144640000D01*
G37*
%TO.C,TP5*%
X102100000Y-139600000D02*
G75*
G02*
X100700000Y-139600000I-700000J0D01*
G01*
X100700000Y-139600000D02*
G75*
G02*
X102100000Y-139600000I700000J0D01*
G01*
%TO.C,C10*%
X100692164Y-144940000D02*
X100907836Y-144940000D01*
X100692164Y-145660000D02*
X100907836Y-145660000D01*
%TO.C,D1*%
D10*
X98340000Y-140800000D02*
G75*
G02*
X98240000Y-140800000I-50000J0D01*
G01*
X98240000Y-140800000D02*
G75*
G02*
X98340000Y-140800000I50000J0D01*
G01*
%TO.C,R14*%
D13*
X101736359Y-152790000D02*
X102043641Y-152790000D01*
X101736359Y-153550000D02*
X102043641Y-153550000D01*
%TO.C,C6*%
X110040000Y-149212164D02*
X110040000Y-149427836D01*
X110760000Y-149212164D02*
X110760000Y-149427836D01*
%TO.C,C17*%
X100352500Y-143092164D02*
X100352500Y-143307836D01*
X101072500Y-143092164D02*
X101072500Y-143307836D01*
%TO.C,TP6*%
X100000000Y-139600000D02*
G75*
G02*
X98600000Y-139600000I-700000J0D01*
G01*
X98600000Y-139600000D02*
G75*
G02*
X100000000Y-139600000I700000J0D01*
G01*
%TO.C,C23*%
X110040000Y-154307836D02*
X110040000Y-154092164D01*
X110760000Y-154307836D02*
X110760000Y-154092164D01*
%TO.C,C20*%
X99740000Y-148027836D02*
X99740000Y-147812164D01*
X100460000Y-148027836D02*
X100460000Y-147812164D01*
%TO.C,C2*%
X109307836Y-140640000D02*
X109092164Y-140640000D01*
X109307836Y-141360000D02*
X109092164Y-141360000D01*
%TO.C,L5*%
X109736359Y-152420000D02*
X110043641Y-152420000D01*
X109736359Y-153180000D02*
X110043641Y-153180000D01*
%TO.C,R3*%
X99273641Y-145920000D02*
X98966359Y-145920000D01*
X99273641Y-146680000D02*
X98966359Y-146680000D01*
%TO.C,C11*%
X102040000Y-154727836D02*
X102040000Y-154512164D01*
X102760000Y-154727836D02*
X102760000Y-154512164D01*
%TO.C,U6*%
D10*
X94947500Y-152752500D02*
X95947500Y-152752500D01*
X94947500Y-153752500D02*
X94947500Y-152752500D01*
X95697500Y-153752500D02*
X94947500Y-153752500D01*
X95947500Y-152752500D02*
X95947500Y-153502500D01*
X95947500Y-153502500D02*
X95697500Y-153752500D01*
%TO.C,C15*%
D13*
X102340000Y-143092164D02*
X102340000Y-143307836D01*
X103060000Y-143092164D02*
X103060000Y-143307836D01*
%TO.C,C9*%
X104327836Y-144340000D02*
X104112164Y-144340000D01*
X104327836Y-145060000D02*
X104112164Y-145060000D01*
%TO.C,C12*%
X99740000Y-149692164D02*
X99740000Y-149907836D01*
X100460000Y-149692164D02*
X100460000Y-149907836D01*
%TO.C,C8*%
X105340000Y-143092164D02*
X105340000Y-143307836D01*
X106060000Y-143092164D02*
X106060000Y-143307836D01*
%TO.C,U5*%
X106860000Y-138740000D02*
X102740000Y-138740000D01*
X106860000Y-142160000D02*
X106860000Y-138740000D01*
%TO.C,R13*%
X94943641Y-142620000D02*
X94636359Y-142620000D01*
X94943641Y-143380000D02*
X94636359Y-143380000D01*
%TO.C,U4*%
D10*
X97500000Y-154612500D02*
X97500000Y-154392500D01*
X97500000Y-154612500D02*
X98220000Y-154612500D01*
X97700000Y-151912500D02*
X98220000Y-151912500D01*
X99980000Y-151912500D02*
X100700000Y-151912500D01*
X100700000Y-151912500D02*
X100700000Y-152132500D01*
X100700000Y-154392500D02*
X100700000Y-154612500D01*
X100700000Y-154612500D02*
X99980000Y-154612500D01*
X97500000Y-151912500D02*
X97140000Y-151912500D01*
X97500000Y-151552500D01*
X97500000Y-151912500D01*
G36*
X97500000Y-151912500D02*
G01*
X97140000Y-151912500D01*
X97500000Y-151552500D01*
X97500000Y-151912500D01*
G37*
%TO.C,C14*%
D13*
X107340000Y-154007836D02*
X107340000Y-153792164D01*
X108060000Y-154007836D02*
X108060000Y-153792164D01*
%TO.C,R12*%
X95453641Y-139680000D02*
X95146359Y-139680000D01*
X95453641Y-140440000D02*
X95146359Y-140440000D01*
%TO.C,C16*%
X97327836Y-145940000D02*
X97112164Y-145940000D01*
X97327836Y-146660000D02*
X97112164Y-146660000D01*
%TO.C,C19*%
X94150000Y-147407836D02*
X94150000Y-147192164D01*
X94870000Y-147407836D02*
X94870000Y-147192164D01*
%TO.C,U3*%
X96162500Y-147490000D02*
X97982500Y-147490000D01*
X96162500Y-147540000D02*
X96162500Y-147490000D01*
X96162500Y-150610000D02*
X96162500Y-150560000D01*
X97982500Y-147490000D02*
X97982500Y-147540000D01*
X97982500Y-148660000D02*
X97982500Y-149440000D01*
X97982500Y-150560000D02*
X97982500Y-150610000D01*
X97982500Y-150610000D02*
X96162500Y-150610000D01*
X95622500Y-147540000D02*
X95382500Y-147210000D01*
X95862500Y-147210000D01*
X95622500Y-147540000D01*
G36*
X95622500Y-147540000D02*
G01*
X95382500Y-147210000D01*
X95862500Y-147210000D01*
X95622500Y-147540000D01*
G37*
%TO.C,C5*%
X108040000Y-149427836D02*
X108040000Y-149212164D01*
X108760000Y-149427836D02*
X108760000Y-149212164D01*
%TO.C,R8*%
X103020000Y-154843641D02*
X103020000Y-154536359D01*
X103780000Y-154843641D02*
X103780000Y-154536359D01*
%TO.C,C3*%
X96187500Y-153044664D02*
X96187500Y-153260336D01*
X96907500Y-153044664D02*
X96907500Y-153260336D01*
%TO.C,C24*%
X107340000Y-140392164D02*
X107340000Y-140607836D01*
X108060000Y-140392164D02*
X108060000Y-140607836D01*
%TO.C,R9*%
X94883859Y-151782500D02*
X95191141Y-151782500D01*
X94883859Y-152542500D02*
X95191141Y-152542500D01*
%TO.C,U1*%
X101190000Y-145940000D02*
X101740000Y-145940000D01*
X101190000Y-146490000D02*
X101190000Y-145940000D01*
X101190000Y-152160000D02*
X101190000Y-151610000D01*
X101740000Y-152160000D02*
X101190000Y-152160000D01*
X106860000Y-145940000D02*
X107410000Y-145940000D01*
X107410000Y-145940000D02*
X107410000Y-146490000D01*
X107410000Y-151610000D02*
X107410000Y-152160000D01*
X107410000Y-152160000D02*
X106860000Y-152160000D01*
X100690000Y-146850000D02*
X100360000Y-147090000D01*
X100360000Y-146610000D01*
X100690000Y-146850000D01*
G36*
X100690000Y-146850000D02*
G01*
X100360000Y-147090000D01*
X100360000Y-146610000D01*
X100690000Y-146850000D01*
G37*
%TO.C,R2*%
X95453641Y-141620000D02*
X95146359Y-141620000D01*
X95453641Y-142380000D02*
X95146359Y-142380000D01*
%TO.C,C18*%
X94692164Y-143640000D02*
X94907836Y-143640000D01*
X94692164Y-144360000D02*
X94907836Y-144360000D01*
%TO.C,R11*%
X95453641Y-140665000D02*
X95146359Y-140665000D01*
X95453641Y-141425000D02*
X95146359Y-141425000D01*
%TO.C,R4*%
X101343641Y-141320000D02*
X101036359Y-141320000D01*
X101343641Y-142080000D02*
X101036359Y-142080000D01*
%TO.C,C7*%
X109427836Y-146840000D02*
X109212164Y-146840000D01*
X109427836Y-147560000D02*
X109212164Y-147560000D01*
%TO.C,R5*%
X106020000Y-154853641D02*
X106020000Y-154546359D01*
X106780000Y-154853641D02*
X106780000Y-154546359D01*
%TO.C,D2*%
D10*
X96160000Y-139800000D02*
G75*
G02*
X96060000Y-139800000I-50000J0D01*
G01*
X96060000Y-139800000D02*
G75*
G02*
X96160000Y-139800000I50000J0D01*
G01*
%TD*%
%LPC*%
D14*
%TO.C,C13*%
X105620000Y-144700000D03*
X106580000Y-144700000D03*
%TD*%
D15*
%TO.C,C22*%
X101447500Y-155112500D03*
X101447500Y-154152500D03*
%TD*%
D16*
%TO.C,Y1*%
X109800000Y-144700000D03*
X109800000Y-142500000D03*
X108100000Y-142500000D03*
X108100000Y-144700000D03*
%TD*%
D17*
%TO.C,R10*%
X94517500Y-154362500D03*
X95537500Y-154362500D03*
%TD*%
D18*
%TO.C,C4*%
X110360000Y-151800000D03*
X109400000Y-151800000D03*
%TD*%
D19*
%TO.C,R7*%
X104400000Y-155200000D03*
X104400000Y-154180000D03*
%TD*%
%TO.C,R6*%
X105400000Y-155200000D03*
X105400000Y-154180000D03*
%TD*%
D14*
%TO.C,C21*%
X95640000Y-155400000D03*
X96600000Y-155400000D03*
%TD*%
D19*
%TO.C,R1*%
X101700000Y-143710000D03*
X101700000Y-142690000D03*
%TD*%
D18*
%TO.C,C1*%
X109780000Y-146200000D03*
X108820000Y-146200000D03*
%TD*%
D20*
%TO.C,U7*%
X99487500Y-144400000D03*
X99487500Y-143900000D03*
X99487500Y-143400000D03*
X99487500Y-142900000D03*
D21*
X98800000Y-142212500D03*
X98300000Y-142212500D03*
X97800000Y-142212500D03*
X97300000Y-142212500D03*
D20*
X96612500Y-142900000D03*
X96612500Y-143400000D03*
X96612500Y-143900000D03*
X96612500Y-144400000D03*
D21*
X97300000Y-145087500D03*
X97800000Y-145087500D03*
X98300000Y-145087500D03*
X98800000Y-145087500D03*
D22*
X98050000Y-143650000D03*
%TD*%
D23*
%TO.C,TP5*%
X101400000Y-139600000D03*
%TD*%
D14*
%TO.C,C10*%
X100320000Y-145300000D03*
X101280000Y-145300000D03*
%TD*%
D24*
%TO.C,D1*%
X97685000Y-140800000D03*
X96715000Y-140800000D03*
%TD*%
D17*
%TO.C,R14*%
X101380000Y-153170000D03*
X102400000Y-153170000D03*
%TD*%
D25*
%TO.C,C6*%
X110400000Y-148840000D03*
X110400000Y-149800000D03*
%TD*%
%TO.C,C17*%
X100712500Y-142720000D03*
X100712500Y-143680000D03*
%TD*%
D23*
%TO.C,TP6*%
X99300000Y-139600000D03*
%TD*%
D15*
%TO.C,C23*%
X110400000Y-154680000D03*
X110400000Y-153720000D03*
%TD*%
%TO.C,C20*%
X100100000Y-148400000D03*
X100100000Y-147440000D03*
%TD*%
D18*
%TO.C,C2*%
X109680000Y-141000000D03*
X108720000Y-141000000D03*
%TD*%
D17*
%TO.C,L5*%
X109380000Y-152800000D03*
X110400000Y-152800000D03*
%TD*%
D26*
%TO.C,R3*%
X99630000Y-146300000D03*
X98610000Y-146300000D03*
%TD*%
D15*
%TO.C,C11*%
X102400000Y-155100000D03*
X102400000Y-154140000D03*
%TD*%
D27*
%TO.C,U6*%
X95647500Y-153452500D03*
X95247500Y-153452500D03*
X95647500Y-153052500D03*
X95247500Y-153052500D03*
%TD*%
D25*
%TO.C,C15*%
X102700000Y-142720000D03*
X102700000Y-143680000D03*
%TD*%
D18*
%TO.C,C9*%
X104700000Y-144700000D03*
X103740000Y-144700000D03*
%TD*%
D25*
%TO.C,C12*%
X100100000Y-149320000D03*
X100100000Y-150280000D03*
%TD*%
%TO.C,C8*%
X105700000Y-142720000D03*
X105700000Y-143680000D03*
%TD*%
D28*
%TO.C,U5*%
X105900000Y-139600000D03*
X103700000Y-139600000D03*
X103700000Y-141300000D03*
X105900000Y-141300000D03*
%TD*%
D26*
%TO.C,R13*%
X95300000Y-143000000D03*
X94280000Y-143000000D03*
%TD*%
D29*
%TO.C,L4*%
X104700000Y-142730000D03*
X104700000Y-143700000D03*
%TD*%
D30*
%TO.C,U4*%
X97837500Y-152512500D03*
X97837500Y-153012500D03*
X97837500Y-153512500D03*
X97837500Y-154012500D03*
D31*
X98600000Y-154275000D03*
X99100000Y-154275000D03*
X99600000Y-154275000D03*
D30*
X100362500Y-154012500D03*
X100362500Y-153512500D03*
X100362500Y-153012500D03*
X100362500Y-152512500D03*
D31*
X99600000Y-152250000D03*
X99100000Y-152250000D03*
X98600000Y-152250000D03*
%TD*%
D15*
%TO.C,C14*%
X107700000Y-154380000D03*
X107700000Y-153420000D03*
%TD*%
D26*
%TO.C,R12*%
X95810000Y-140060000D03*
X94790000Y-140060000D03*
%TD*%
D18*
%TO.C,C16*%
X97700000Y-146300000D03*
X96740000Y-146300000D03*
%TD*%
D15*
%TO.C,C19*%
X94510000Y-147780000D03*
X94510000Y-146820000D03*
%TD*%
D32*
%TO.C,U3*%
X95935000Y-148100000D03*
X95935000Y-149050000D03*
X95935000Y-150000000D03*
X98210000Y-150000000D03*
X98210000Y-148100000D03*
%TD*%
D15*
%TO.C,C5*%
X108400000Y-149800000D03*
X108400000Y-148840000D03*
%TD*%
D19*
%TO.C,R8*%
X103400000Y-155200000D03*
X103400000Y-154180000D03*
%TD*%
D25*
%TO.C,C3*%
X96547500Y-152672500D03*
X96547500Y-153632500D03*
%TD*%
D33*
%TO.C,L3*%
X103700000Y-143700000D03*
X103700000Y-142730000D03*
%TD*%
D25*
%TO.C,C24*%
X107700000Y-140020000D03*
X107700000Y-140980000D03*
%TD*%
D17*
%TO.C,R9*%
X94527500Y-152162500D03*
X95547500Y-152162500D03*
%TD*%
D34*
%TO.C,U1*%
X101350000Y-146850000D03*
X101350000Y-147250000D03*
X101350000Y-147650000D03*
X101350000Y-148050000D03*
X101350000Y-148450000D03*
X101350000Y-148850000D03*
X101350000Y-149250000D03*
X101350000Y-149650000D03*
X101350000Y-150050000D03*
X101350000Y-150450000D03*
X101350000Y-150850000D03*
X101350000Y-151250000D03*
D35*
X102100000Y-152000000D03*
X102500000Y-152000000D03*
X102900000Y-152000000D03*
X103300000Y-152000000D03*
X103700000Y-152000000D03*
X104100000Y-152000000D03*
X104500000Y-152000000D03*
X104900000Y-152000000D03*
X105300000Y-152000000D03*
X105700000Y-152000000D03*
X106100000Y-152000000D03*
X106500000Y-152000000D03*
D34*
X107250000Y-151250000D03*
X107250000Y-150850000D03*
X107250000Y-150450000D03*
X107250000Y-150050000D03*
X107250000Y-149650000D03*
X107250000Y-149250000D03*
X107250000Y-148850000D03*
X107250000Y-148450000D03*
X107250000Y-148050000D03*
X107250000Y-147650000D03*
X107250000Y-147250000D03*
X107250000Y-146850000D03*
D35*
X106500000Y-146100000D03*
X106100000Y-146100000D03*
X105700000Y-146100000D03*
X105300000Y-146100000D03*
X104900000Y-146100000D03*
X104500000Y-146100000D03*
X104100000Y-146100000D03*
X103700000Y-146100000D03*
X103300000Y-146100000D03*
X102900000Y-146100000D03*
X102500000Y-146100000D03*
X102100000Y-146100000D03*
D36*
X104300000Y-149050000D03*
%TD*%
D26*
%TO.C,R2*%
X95810000Y-142000000D03*
X94790000Y-142000000D03*
%TD*%
D14*
%TO.C,C18*%
X94320000Y-144000000D03*
X95280000Y-144000000D03*
%TD*%
D26*
%TO.C,R11*%
X95810000Y-141045000D03*
X94790000Y-141045000D03*
%TD*%
%TO.C,R4*%
X101700000Y-141700000D03*
X100680000Y-141700000D03*
%TD*%
D18*
%TO.C,C7*%
X109800000Y-147200000D03*
X108840000Y-147200000D03*
%TD*%
D19*
%TO.C,R5*%
X106400000Y-155210000D03*
X106400000Y-154190000D03*
%TD*%
D37*
%TO.C,D2*%
X96715000Y-139800000D03*
X97685000Y-139800000D03*
%TD*%
D29*
%TO.C,L1*%
X109400000Y-148830000D03*
X109400000Y-149800000D03*
%TD*%
D24*
%TO.C,L2*%
X110400000Y-150800000D03*
X109430000Y-150800000D03*
%TD*%
%LPD*%
M02*
