M48
; DRILL file KiCad 10.0.0 date 2026-04-13T19:23:20
; FORMAT={-:-/ absolute / inch / decimal}
; #@! TF.CreationDate,2026-04-13T19:23:20+09:00
; #@! TF.GenerationSoftware,Kicad,Pcbnew,10.0.0
; #@! TF.FileFunction,Plated,1,4,PTH
FMAT,2
INCH
; #@! TA.AperFunction,Plated,PTH,ComponentDrill
T1C0.0079
; #@! TA.AperFunction,Plated,PTH,ViaDrill
T2C0.0118
; #@! TA.AperFunction,Plated,PTH,ComponentDrill
T3C0.0118
%
G90
G05
T1
X4.0354Y-5.7972
X4.0354Y-5.8445
X4.0354Y-5.8917
X4.0354Y-5.939
X4.0827Y-5.7972
X4.0827Y-5.8445
X4.0827Y-5.8917
X4.0827Y-5.939
X4.1299Y-5.7972
X4.1299Y-5.8445
X4.1299Y-5.8917
X4.1299Y-5.939
X4.1772Y-5.7972
X4.1772Y-5.8445
X4.1772Y-5.8917
X4.1772Y-5.939
T2
X3.689Y-6.0945
X3.7216Y-6.0315
X3.7402Y-5.6378
X3.748Y-6.1102
X3.784Y-6.0517
X3.7842Y-6.0199
X3.7953Y-6.1009
X3.8087Y-5.7795
X3.8189Y-5.5945
X3.8205Y-5.8473
X3.8307Y-5.9547
X3.8473Y-6.075
X3.8622Y-6.122
X3.8661Y-5.7953
X3.8661Y-5.9547
X3.8927Y-5.562
X3.9016Y-5.9547
X3.9055Y-5.7992
X3.9094Y-5.8307
X3.9173Y-5.5984
X3.9232Y-5.9075
X3.937Y-5.9547
X3.9409Y-5.6575
X3.9665Y-5.751
X3.9843Y-5.6063
X4.0168Y-5.6891
X4.0472Y-6.0255
X4.0472Y-5.5827
X4.0787Y-6.0374
X4.1142Y-6.0374
X4.1496Y-6.0374
X4.1775Y-5.6686
X4.185Y-6.0374
X4.2126Y-5.5551
X4.2165Y-5.9877
X4.2264Y-5.4783
X4.2638Y-5.9826
X4.2769Y-5.916
X4.2796Y-5.9554
X4.2913Y-5.6535
X4.311Y-6.0709
X4.315Y-5.5315
X4.3228Y-5.7756
X4.3263Y-5.8287
X4.3465Y-5.5
X4.3465Y-5.5315
X4.3465Y-5.563
X4.378Y-5.5
X4.378Y-5.5315
X4.378Y-5.563
X4.378Y-5.5945
X4.378Y-5.626
X4.378Y-5.6575
X4.378Y-5.689
X4.378Y-5.7205
X4.378Y-5.752
X4.378Y-5.7835
X4.378Y-5.815
X4.378Y-5.8465
X4.378Y-5.878
X4.378Y-5.9094
X4.378Y-5.9409
X4.378Y-5.9705
X4.378Y-6.0394
T3
X4.3819Y-6.0827
M30
