%TF.GenerationSoftware,KiCad,Pcbnew,10.0.1*%
%TF.CreationDate,2026-04-20T11:43:07+09:00*%
%TF.ProjectId,slimevr-nugget,736c696d-6576-4722-9d6e-75676765742e,rev?*%
%TF.SameCoordinates,Original*%
%TF.FileFunction,Copper,L4,Bot*%
%TF.FilePolarity,Positive*%
%FSLAX46Y46*%
G04 Gerber Fmt 4.6, Leading zero omitted, Abs format (unit mm)*
G04 Created by KiCad (PCBNEW 10.0.1) date 2026-04-20 11:43:07*
%MOMM*%
%LPD*%
G01*
G04 APERTURE LIST*
%TA.AperFunction,ComponentPad*%
%ADD10R,0.500000X0.900000*%
%TD*%
%TA.AperFunction,HeatsinkPad*%
%ADD11C,0.500000*%
%TD*%
%TA.AperFunction,HeatsinkPad*%
%ADD12R,4.100000X4.100000*%
%TD*%
%TA.AperFunction,SMDPad,CuDef*%
%ADD13C,1.500000*%
%TD*%
%TA.AperFunction,ViaPad*%
%ADD14C,0.600000*%
%TD*%
%TA.AperFunction,Conductor*%
%ADD15C,0.200000*%
%TD*%
G04 APERTURE END LIST*
D10*
%TO.P,AE1,2,Shield_2*%
%TO.N,GND*%
X111300000Y-154500000D03*
%TD*%
D11*
%TO.P,U1,49,VSS_49*%
%TO.N,GND*%
X102500000Y-147250000D03*
X102500000Y-148450000D03*
X102500000Y-149650000D03*
X102500000Y-150850000D03*
X103700000Y-147250000D03*
X103700000Y-148450000D03*
X103700000Y-149650000D03*
X103700000Y-150850000D03*
D12*
X104300000Y-149050000D03*
D11*
X104900000Y-147250000D03*
X104900000Y-148450000D03*
X104900000Y-149650000D03*
X104900000Y-150850000D03*
X106100000Y-147250000D03*
X106100000Y-148450000D03*
X106100000Y-149650000D03*
X106100000Y-150850000D03*
%TD*%
D13*
%TO.P,TP2,1,1_1*%
%TO.N,GND*%
X94400000Y-145796000D03*
%TD*%
%TO.P,TP1,1,1_1*%
%TO.N,VBUS*%
X94400000Y-143256000D03*
%TD*%
%TO.P,TP4,1,1_1*%
%TO.N,SWD*%
X94400000Y-150876000D03*
%TD*%
%TO.P,TP7,1,1_1*%
%TO.N,CHG*%
X94400000Y-140716000D03*
%TD*%
%TO.P,TP3,1,1_1*%
%TO.N,SWC*%
X94400000Y-148336000D03*
%TD*%
D14*
%TO.N,GND*%
X109600000Y-140500000D03*
X110400000Y-141300000D03*
X111200000Y-142100000D03*
X96112500Y-153712500D03*
X99800000Y-140601138D03*
X111200000Y-139700000D03*
X111200000Y-147700000D03*
X94200000Y-144800000D03*
X99800000Y-145100000D03*
X111200000Y-146100000D03*
X111200000Y-141300000D03*
X111200000Y-143700000D03*
X111200000Y-150900000D03*
X111200000Y-145300000D03*
X94812500Y-144800000D03*
X111200000Y-153400000D03*
X111200000Y-149300000D03*
X111200000Y-148500000D03*
X98366227Y-147110800D03*
X98100000Y-155500000D03*
X111200000Y-151649998D03*
X111200000Y-146900000D03*
X111200000Y-150100000D03*
X110400000Y-139700000D03*
X111200000Y-142900000D03*
X108632843Y-150267157D03*
X95900000Y-139400000D03*
X101200000Y-142400000D03*
X95200000Y-155200000D03*
X109800000Y-146700000D03*
X110400000Y-140500000D03*
X109000000Y-143600000D03*
X93700000Y-154800000D03*
X111200000Y-144500000D03*
X101600000Y-141000000D03*
X111200000Y-140500000D03*
%TO.N,VDD*%
X99650000Y-150050000D03*
X99100000Y-148100000D03*
X102025738Y-144502790D03*
X107000000Y-141100000D03*
X107150000Y-139350000D03*
X96118511Y-152904294D03*
X107700000Y-152800000D03*
X96400000Y-154962500D03*
X94527500Y-153200000D03*
%TO.N,SCL*%
X104500000Y-153350000D03*
X99100000Y-151250000D03*
%TO.N,SDA*%
X105400000Y-153350000D03*
X98200000Y-151250000D03*
%TO.N,BAT+*%
X99500000Y-142200000D03*
X98925402Y-141225402D03*
X100100000Y-143700000D03*
%TO.N,CHG*%
X93800000Y-141400000D03*
%TO.N,Net-(U7-ILIM)*%
X94800000Y-139500000D03*
X96612500Y-144800000D03*
%TO.N,VBUS*%
X96740000Y-146800000D03*
%TO.N,Net-(R3-Pad1)*%
X100150000Y-141650000D03*
X99500000Y-146800000D03*
%TO.N,Net-(U1-DEC4)*%
X109887550Y-148050000D03*
X106108198Y-143981982D03*
%TO.N,CLK*%
X102800000Y-141800000D03*
X100750000Y-146075735D03*
%TO.N,SDO*%
X97300000Y-151250000D03*
X106300000Y-153350000D03*
%TO.N,INT1*%
X107100000Y-152088527D03*
X97721727Y-154304743D03*
%TO.N,CS*%
X100000000Y-151250000D03*
X103600000Y-153350000D03*
%TO.N,SWD*%
X108690000Y-153430000D03*
%TO.N,SWC*%
X108703035Y-151266569D03*
%TO.N,Net-(D2-A)*%
X101380000Y-152700000D03*
X98200000Y-139800000D03*
%TD*%
%TO.N,GND*%
D15*
X96004000Y-147400000D02*
X94400000Y-145796000D01*
X106800000Y-154200000D02*
X105600000Y-155400000D01*
X98601138Y-140701138D02*
X98701138Y-140601138D01*
X99800000Y-140601138D02*
X101201138Y-140601138D01*
X94400000Y-145300000D02*
X94400000Y-145796000D01*
X94400000Y-145000000D02*
X94200000Y-144800000D01*
X98077027Y-147400000D02*
X96004000Y-147400000D01*
X94351413Y-145348424D02*
X94294424Y-145348424D01*
X98366227Y-147110800D02*
X98077027Y-147400000D01*
X98601138Y-140701138D02*
X98275754Y-141026521D01*
X94812500Y-144800000D02*
X94812500Y-144887500D01*
X105600000Y-155400000D02*
X98400000Y-155400000D01*
X98275754Y-141026521D02*
X98275754Y-143575754D01*
X94812500Y-144887500D02*
X94400000Y-145300000D01*
X101201138Y-140601138D02*
X101600000Y-141000000D01*
X94400000Y-145796000D02*
X94400000Y-145000000D01*
X97200000Y-145500000D02*
X97212500Y-145487500D01*
X98701138Y-140601138D02*
X99800000Y-140601138D01*
X94294424Y-145348424D02*
X94234000Y-145288000D01*
X98275754Y-143575754D02*
X99800000Y-145100000D01*
%TO.N,VDD*%
X99100000Y-148100000D02*
X99700000Y-148100000D01*
X102025738Y-144502790D02*
X101900001Y-144628527D01*
X99700000Y-148100000D02*
X101900000Y-145900000D01*
X101900000Y-144628528D02*
X102025738Y-144502790D01*
X101900000Y-145900000D02*
X101900000Y-144628528D01*
X101900001Y-144628527D02*
X101871473Y-144628527D01*
%TO.N,SCL*%
X99100000Y-151250000D02*
X99100000Y-152065685D01*
X99100000Y-152065685D02*
X101081315Y-154047000D01*
X101081315Y-154047000D02*
X103803000Y-154047000D01*
X103803000Y-154047000D02*
X104500000Y-153350000D01*
%TO.N,SDA*%
X100915630Y-154447000D02*
X104303000Y-154447000D01*
X98200000Y-151250000D02*
X98200000Y-151731371D01*
X98200000Y-151731371D02*
X100915630Y-154447000D01*
X104303000Y-154447000D02*
X105400000Y-153350000D01*
%TO.N,BAT+*%
X100200000Y-143600000D02*
X100100000Y-143700000D01*
X98925402Y-141225402D02*
X98875754Y-141275050D01*
X99500000Y-142200000D02*
X100200000Y-142900000D01*
X98875754Y-141575754D02*
X99500000Y-142200000D01*
X98875754Y-141275050D02*
X98875754Y-141575754D01*
X100200000Y-142900000D02*
X100200000Y-143600000D01*
%TO.N,Net-(U7-ILIM)*%
X96612500Y-141312500D02*
X94800000Y-139500000D01*
X96612500Y-144800000D02*
X96612500Y-141312500D01*
%TO.N,VBUS*%
X95870000Y-144726000D02*
X94400000Y-143256000D01*
X94400000Y-142700000D02*
X94400000Y-143256000D01*
X96740000Y-146800000D02*
X95870000Y-145930000D01*
X95870000Y-145930000D02*
X95870000Y-144780000D01*
X94000000Y-142856000D02*
X94400000Y-143256000D01*
X95870000Y-144780000D02*
X95870000Y-144726000D01*
%TO.N,Net-(R3-Pad1)*%
X100150000Y-141650000D02*
X100150000Y-142198529D01*
X100700000Y-145277206D02*
X99500000Y-146477206D01*
X100150000Y-142198529D02*
X100700000Y-142748529D01*
X99500000Y-146477206D02*
X99500000Y-146800000D01*
X100700000Y-142748529D02*
X100700000Y-145277206D01*
%TO.N,Net-(U1-DEC4)*%
X106108198Y-143981982D02*
X106116804Y-143990588D01*
X106116804Y-144279254D02*
X109887550Y-148050000D01*
X106116804Y-143990588D02*
X106116804Y-144279254D01*
%TO.N,CLK*%
X101400000Y-145400000D02*
X101400000Y-143240000D01*
X100750000Y-146050000D02*
X101400000Y-145400000D01*
X102800000Y-141840000D02*
X101400000Y-143240000D01*
X102800000Y-141800000D02*
X102800000Y-141840000D01*
X100750000Y-146075735D02*
X100750000Y-146050000D01*
%TO.N,SDO*%
X100749945Y-154847000D02*
X104803000Y-154847000D01*
X97300000Y-151250000D02*
X97300000Y-151397055D01*
X104803000Y-154847000D02*
X106300000Y-153350000D01*
X97300000Y-151397055D02*
X100749945Y-154847000D01*
%TO.N,INT1*%
X100300000Y-150650000D02*
X97051471Y-150650000D01*
X97583062Y-153583062D02*
X97583062Y-154166078D01*
X97051471Y-150650000D02*
X96700000Y-151001471D01*
X96700000Y-151001471D02*
X96700000Y-152700000D01*
X101697000Y-152047000D02*
X100300000Y-150650000D01*
X97583062Y-154166078D02*
X97721727Y-154304743D01*
X107100000Y-152088527D02*
X107058473Y-152047000D01*
X96700000Y-152700000D02*
X97583062Y-153583062D01*
X107058473Y-152047000D02*
X101697000Y-152047000D01*
%TO.N,CS*%
X100000000Y-151250000D02*
X100000000Y-152400000D01*
X103303000Y-153647000D02*
X103600000Y-153350000D01*
X101247000Y-153647000D02*
X103303000Y-153647000D01*
X100000000Y-152400000D02*
X101247000Y-153647000D01*
%TO.N,SWD*%
X95826000Y-149450000D02*
X94400000Y-150876000D01*
X108700000Y-153420000D02*
X108700000Y-152839998D01*
X107348529Y-151488527D02*
X101937056Y-151488527D01*
X99898529Y-149450000D02*
X95826000Y-149450000D01*
X108690000Y-153430000D02*
X108700000Y-153420000D01*
X108700000Y-152839998D02*
X107348529Y-151488527D01*
X101937056Y-151488527D02*
X99898529Y-149450000D01*
%TO.N,SWC*%
X94764000Y-148700000D02*
X99900056Y-148700000D01*
X99900056Y-148700000D02*
X101901057Y-146699000D01*
X94400000Y-148336000D02*
X94764000Y-148700000D01*
X101901057Y-146699000D02*
X106651000Y-146699000D01*
X107026000Y-147074000D02*
X107026000Y-149589534D01*
X106651000Y-146699000D02*
X107026000Y-147074000D01*
X107026000Y-149589534D02*
X108703035Y-151266569D01*
%TO.N,Net-(D2-A)*%
X103400000Y-142410979D02*
X103400000Y-141500000D01*
X103400000Y-141500000D02*
X101700000Y-139800000D01*
X108938529Y-154030000D02*
X109639021Y-153329508D01*
X109639021Y-148650000D02*
X103400000Y-142410979D01*
X109639021Y-153329508D02*
X109639021Y-148650000D01*
X101380000Y-152700000D02*
X106751471Y-152700000D01*
X101700000Y-139800000D02*
X98200000Y-139800000D01*
X108081471Y-154030000D02*
X108938529Y-154030000D01*
X106751471Y-152700000D02*
X108081471Y-154030000D01*
%TD*%
%TA.AperFunction,Conductor*%
%TO.N,GND*%
G36*
X93705703Y-153305429D02*
G01*
X93743477Y-153364207D01*
X93746117Y-153374951D01*
X93757761Y-153433489D01*
X93757764Y-153433501D01*
X93818102Y-153579172D01*
X93818109Y-153579185D01*
X93905710Y-153710288D01*
X93905713Y-153710292D01*
X94017207Y-153821786D01*
X94017211Y-153821789D01*
X94148314Y-153909390D01*
X94148327Y-153909397D01*
X94293998Y-153969735D01*
X94294003Y-153969737D01*
X94448653Y-154000499D01*
X94448656Y-154000500D01*
X94448658Y-154000500D01*
X94606344Y-154000500D01*
X94606345Y-154000499D01*
X94760997Y-153969737D01*
X94906679Y-153909394D01*
X95037789Y-153821789D01*
X95149289Y-153710289D01*
X95236894Y-153579179D01*
X95236895Y-153579176D01*
X95236897Y-153579173D01*
X95270135Y-153498926D01*
X95290186Y-153450518D01*
X95334026Y-153396115D01*
X95400320Y-153374050D01*
X95468020Y-153391329D01*
X95492428Y-153410290D01*
X95608218Y-153526080D01*
X95608222Y-153526083D01*
X95739325Y-153613684D01*
X95739338Y-153613691D01*
X95885009Y-153674029D01*
X95885014Y-153674031D01*
X96006640Y-153698224D01*
X96039664Y-153704793D01*
X96039667Y-153704794D01*
X96039669Y-153704794D01*
X96197355Y-153704794D01*
X96197356Y-153704793D01*
X96352008Y-153674031D01*
X96497690Y-153613688D01*
X96519005Y-153599446D01*
X96572989Y-153563375D01*
X96639666Y-153542497D01*
X96707046Y-153560981D01*
X96729561Y-153578796D01*
X96946243Y-153795478D01*
X96960946Y-153822405D01*
X96977539Y-153848224D01*
X96978430Y-153854424D01*
X96979728Y-153856801D01*
X96982562Y-153883159D01*
X96982562Y-153972774D01*
X96973123Y-154020226D01*
X96951990Y-154071244D01*
X96951988Y-154071252D01*
X96934891Y-154157203D01*
X96902506Y-154219114D01*
X96841790Y-154253688D01*
X96772020Y-154249947D01*
X96765822Y-154247573D01*
X96730390Y-154232897D01*
X96633497Y-154192763D01*
X96633492Y-154192762D01*
X96633489Y-154192761D01*
X96478845Y-154162000D01*
X96478842Y-154162000D01*
X96321158Y-154162000D01*
X96321155Y-154162000D01*
X96166510Y-154192761D01*
X96166498Y-154192764D01*
X96020827Y-154253102D01*
X96020814Y-154253109D01*
X95889711Y-154340710D01*
X95889707Y-154340713D01*
X95778213Y-154452207D01*
X95778210Y-154452211D01*
X95690609Y-154583314D01*
X95690602Y-154583327D01*
X95630264Y-154728998D01*
X95630261Y-154729010D01*
X95599500Y-154883653D01*
X95599500Y-155041346D01*
X95630261Y-155195989D01*
X95630264Y-155196001D01*
X95684928Y-155327973D01*
X95692397Y-155397442D01*
X95661121Y-155459921D01*
X95601032Y-155495573D01*
X95570372Y-155499425D01*
X94058669Y-155499488D01*
X93991629Y-155479806D01*
X93970983Y-155463169D01*
X93536819Y-155029005D01*
X93503334Y-154967682D01*
X93500500Y-154941324D01*
X93500500Y-153399142D01*
X93520185Y-153332103D01*
X93572989Y-153286348D01*
X93642147Y-153276404D01*
X93705703Y-153305429D01*
G37*
%TD.AperFunction*%
%TA.AperFunction,Conductor*%
G36*
X98314192Y-153291879D02*
G01*
X98340342Y-153296277D01*
X98350285Y-153303357D01*
X98355510Y-153305019D01*
X98359667Y-153310038D01*
X98373843Y-153320133D01*
X100269423Y-155215713D01*
X100269425Y-155215716D01*
X100303171Y-155249462D01*
X100341258Y-155287550D01*
X100374743Y-155348873D01*
X100372880Y-155374908D01*
X100369758Y-155418564D01*
X100338798Y-155459921D01*
X100327885Y-155474498D01*
X100302244Y-155484061D01*
X100262422Y-155498914D01*
X100253581Y-155499230D01*
X97229666Y-155499356D01*
X97162626Y-155479674D01*
X97116869Y-155426872D01*
X97106922Y-155357714D01*
X97115100Y-155327904D01*
X97169735Y-155196001D01*
X97169737Y-155195997D01*
X97186835Y-155110039D01*
X97219219Y-155048129D01*
X97279935Y-155013555D01*
X97349704Y-155017294D01*
X97355904Y-155019670D01*
X97488225Y-155074478D01*
X97488230Y-155074480D01*
X97642880Y-155105242D01*
X97642883Y-155105243D01*
X97642885Y-155105243D01*
X97800571Y-155105243D01*
X97800572Y-155105242D01*
X97955224Y-155074480D01*
X98100906Y-155014137D01*
X98232016Y-154926532D01*
X98343516Y-154815032D01*
X98431121Y-154683922D01*
X98491464Y-154538240D01*
X98522227Y-154383585D01*
X98522227Y-154225901D01*
X98522227Y-154225898D01*
X98522226Y-154225896D01*
X98508562Y-154157203D01*
X98491464Y-154071246D01*
X98470331Y-154020226D01*
X98431124Y-153925570D01*
X98431117Y-153925557D01*
X98343516Y-153794454D01*
X98343513Y-153794450D01*
X98232016Y-153682953D01*
X98228892Y-153680389D01*
X98212370Y-153656130D01*
X98193647Y-153633524D01*
X98192205Y-153626524D01*
X98189561Y-153622641D01*
X98184461Y-153599446D01*
X98183562Y-153592021D01*
X98183562Y-153504005D01*
X98177334Y-153480759D01*
X98164115Y-153431426D01*
X98163061Y-153422720D01*
X98167419Y-153396561D01*
X98168050Y-153370059D01*
X98173071Y-153362639D01*
X98174544Y-153353801D01*
X98192349Y-153334155D01*
X98207211Y-153312196D01*
X98215448Y-153308668D01*
X98221465Y-153302030D01*
X98247065Y-153295129D01*
X98271440Y-153284691D01*
X98280275Y-153286176D01*
X98288926Y-153283845D01*
X98314192Y-153291879D01*
G37*
%TD.AperFunction*%
%TA.AperFunction,Conductor*%
G36*
X107035490Y-153849101D02*
G01*
X107079838Y-153877602D01*
X107596610Y-154394374D01*
X107596620Y-154394385D01*
X107600950Y-154398715D01*
X107600951Y-154398716D01*
X107712755Y-154510520D01*
X107752746Y-154533608D01*
X107799566Y-154560639D01*
X107799568Y-154560641D01*
X107837622Y-154582611D01*
X107849686Y-154589577D01*
X108002414Y-154630501D01*
X108002417Y-154630501D01*
X108021060Y-154630501D01*
X108088099Y-154650186D01*
X108133854Y-154702990D01*
X108143798Y-154772148D01*
X108135622Y-154801951D01*
X108133609Y-154806810D01*
X108099500Y-154934108D01*
X108099500Y-155374908D01*
X108079815Y-155441947D01*
X108027011Y-155487702D01*
X107975505Y-155498908D01*
X105299583Y-155499019D01*
X105278334Y-155492780D01*
X105256246Y-155491201D01*
X105245464Y-155483130D01*
X105232543Y-155479337D01*
X105218041Y-155462602D01*
X105200312Y-155449331D01*
X105195605Y-155436711D01*
X105186786Y-155426535D01*
X105183633Y-155404616D01*
X105175894Y-155383867D01*
X105178756Y-155370707D01*
X105176839Y-155357377D01*
X105186038Y-155337232D01*
X105190745Y-155315593D01*
X105204013Y-155297868D01*
X105205862Y-155293820D01*
X105211882Y-155287353D01*
X105283520Y-155215716D01*
X105283521Y-155215713D01*
X106314664Y-154184571D01*
X106375985Y-154151088D01*
X106378152Y-154150637D01*
X106378841Y-154150500D01*
X106378842Y-154150500D01*
X106533497Y-154119737D01*
X106679179Y-154059394D01*
X106810289Y-153971789D01*
X106904477Y-153877600D01*
X106965798Y-153844117D01*
X107035490Y-153849101D01*
G37*
%TD.AperFunction*%
%TA.AperFunction,Conductor*%
G36*
X106319282Y-139020185D02*
G01*
X106365037Y-139072989D01*
X106374981Y-139142147D01*
X106373860Y-139148692D01*
X106349500Y-139271155D01*
X106349500Y-139428846D01*
X106380261Y-139583489D01*
X106380264Y-139583501D01*
X106440602Y-139729172D01*
X106440609Y-139729185D01*
X106528210Y-139860288D01*
X106528213Y-139860292D01*
X106639707Y-139971786D01*
X106639711Y-139971789D01*
X106770814Y-140059390D01*
X106770818Y-140059392D01*
X106770821Y-140059394D01*
X106833547Y-140085375D01*
X106887949Y-140129215D01*
X106910014Y-140195509D01*
X106892735Y-140263208D01*
X106841599Y-140310819D01*
X106810286Y-140321553D01*
X106766507Y-140330261D01*
X106766498Y-140330264D01*
X106620827Y-140390602D01*
X106620814Y-140390609D01*
X106489711Y-140478210D01*
X106489707Y-140478213D01*
X106378213Y-140589707D01*
X106378210Y-140589711D01*
X106290609Y-140720814D01*
X106290602Y-140720827D01*
X106230264Y-140866498D01*
X106230261Y-140866510D01*
X106199500Y-141021153D01*
X106199500Y-141178846D01*
X106230261Y-141333489D01*
X106230264Y-141333501D01*
X106290602Y-141479172D01*
X106290609Y-141479185D01*
X106378210Y-141610288D01*
X106378213Y-141610292D01*
X106489707Y-141721786D01*
X106489711Y-141721789D01*
X106620814Y-141809390D01*
X106620827Y-141809397D01*
X106664733Y-141827583D01*
X106766503Y-141869737D01*
X106921153Y-141900499D01*
X106921156Y-141900500D01*
X106921158Y-141900500D01*
X107078844Y-141900500D01*
X107078845Y-141900499D01*
X107233497Y-141869737D01*
X107379179Y-141809394D01*
X107510289Y-141721789D01*
X107621789Y-141610289D01*
X107709394Y-141479179D01*
X107769737Y-141333497D01*
X107800500Y-141178842D01*
X107800500Y-141021158D01*
X107800500Y-141021155D01*
X107800499Y-141021153D01*
X107798663Y-141011924D01*
X107769737Y-140866503D01*
X107755437Y-140831980D01*
X107709397Y-140720827D01*
X107709390Y-140720814D01*
X107621789Y-140589711D01*
X107621786Y-140589707D01*
X107510292Y-140478213D01*
X107510288Y-140478210D01*
X107379185Y-140390609D01*
X107379176Y-140390604D01*
X107316453Y-140364624D01*
X107262050Y-140320783D01*
X107239985Y-140254489D01*
X107257264Y-140186790D01*
X107308401Y-140139179D01*
X107339709Y-140128447D01*
X107383497Y-140119737D01*
X107529179Y-140059394D01*
X107660289Y-139971789D01*
X107771789Y-139860289D01*
X107859394Y-139729179D01*
X107891963Y-139650547D01*
X107935803Y-139596146D01*
X108002097Y-139574080D01*
X108069796Y-139591358D01*
X108117407Y-139642495D01*
X108126297Y-139665904D01*
X108133608Y-139693186D01*
X108199500Y-139807314D01*
X108292686Y-139900500D01*
X108406814Y-139966392D01*
X108534108Y-140000500D01*
X108534110Y-140000500D01*
X109665890Y-140000500D01*
X109665892Y-140000500D01*
X109793186Y-139966392D01*
X109907314Y-139900500D01*
X110000500Y-139807314D01*
X110066392Y-139693186D01*
X110100500Y-139565892D01*
X110100500Y-139124500D01*
X110120185Y-139057461D01*
X110172989Y-139011706D01*
X110224500Y-139000500D01*
X111426000Y-139000500D01*
X111493039Y-139020185D01*
X111538794Y-139072989D01*
X111550000Y-139124500D01*
X111550000Y-155374791D01*
X111530315Y-155441830D01*
X111477511Y-155487585D01*
X111425982Y-155498791D01*
X110224482Y-155498613D01*
X110157445Y-155478919D01*
X110111698Y-155426108D01*
X110100500Y-155374613D01*
X110100500Y-154934110D01*
X110100500Y-154934108D01*
X110066392Y-154806814D01*
X110000500Y-154692686D01*
X109907314Y-154599500D01*
X109850250Y-154566554D01*
X109793187Y-154533608D01*
X109729539Y-154516554D01*
X109665892Y-154499500D01*
X109665891Y-154499500D01*
X109617625Y-154499500D01*
X109550586Y-154479815D01*
X109504831Y-154427011D01*
X109494887Y-154357853D01*
X109523912Y-154294297D01*
X109529944Y-154287819D01*
X109758373Y-154059390D01*
X109997527Y-153820236D01*
X109997532Y-153820232D01*
X110007735Y-153810028D01*
X110007737Y-153810028D01*
X110119541Y-153698224D01*
X110143844Y-153656130D01*
X110172497Y-153606502D01*
X110172498Y-153606500D01*
X110198595Y-153561298D01*
X110198594Y-153561298D01*
X110198598Y-153561293D01*
X110239521Y-153408566D01*
X110239521Y-153250451D01*
X110239521Y-148843853D01*
X110259206Y-148776814D01*
X110294631Y-148740751D01*
X110357957Y-148698436D01*
X110397839Y-148671789D01*
X110509339Y-148560289D01*
X110596944Y-148429179D01*
X110657287Y-148283497D01*
X110688050Y-148128842D01*
X110688050Y-147971158D01*
X110688050Y-147971155D01*
X110688049Y-147971153D01*
X110657287Y-147816503D01*
X110616916Y-147719037D01*
X110596947Y-147670827D01*
X110596940Y-147670814D01*
X110509339Y-147539711D01*
X110509336Y-147539707D01*
X110397842Y-147428213D01*
X110397838Y-147428210D01*
X110266735Y-147340609D01*
X110266722Y-147340602D01*
X110121051Y-147280264D01*
X110121041Y-147280261D01*
X109965699Y-147249361D01*
X109903788Y-147216976D01*
X109902210Y-147215425D01*
X106928838Y-144242053D01*
X106895353Y-144180730D01*
X106894902Y-144130180D01*
X106908698Y-144060826D01*
X106908698Y-143903137D01*
X106908697Y-143903135D01*
X106886868Y-143793396D01*
X106877935Y-143748485D01*
X106845034Y-143669054D01*
X106817595Y-143602809D01*
X106817588Y-143602796D01*
X106729987Y-143471693D01*
X106729984Y-143471689D01*
X106618490Y-143360195D01*
X106618486Y-143360192D01*
X106487383Y-143272591D01*
X106487370Y-143272584D01*
X106341699Y-143212246D01*
X106341687Y-143212243D01*
X106187043Y-143181482D01*
X106187040Y-143181482D01*
X106029356Y-143181482D01*
X106029353Y-143181482D01*
X105874708Y-143212243D01*
X105874696Y-143212246D01*
X105729025Y-143272584D01*
X105729012Y-143272591D01*
X105597909Y-143360192D01*
X105485859Y-143472242D01*
X105424536Y-143505726D01*
X105354844Y-143500742D01*
X105310497Y-143472241D01*
X104036819Y-142198563D01*
X104003334Y-142137240D01*
X104000500Y-142110882D01*
X104000500Y-141420945D01*
X104000500Y-141420943D01*
X103966680Y-141294724D01*
X103959577Y-141268215D01*
X103907613Y-141178211D01*
X103880520Y-141131284D01*
X103768716Y-141019480D01*
X103768713Y-141019478D01*
X102187590Y-139438355D01*
X102187588Y-139438352D01*
X102068717Y-139319481D01*
X102068716Y-139319480D01*
X101976956Y-139266503D01*
X101931785Y-139240423D01*
X101927184Y-139239190D01*
X101916241Y-139233178D01*
X101896202Y-139213035D01*
X101874090Y-139195214D01*
X101871886Y-139188593D01*
X101866964Y-139183645D01*
X101860996Y-139155867D01*
X101852029Y-139128919D01*
X101853754Y-139122158D01*
X101852289Y-139115334D01*
X101862285Y-139088743D01*
X101869312Y-139061220D01*
X101874420Y-139056464D01*
X101876876Y-139049933D01*
X101899660Y-139032968D01*
X101920452Y-139013613D01*
X101928073Y-139011812D01*
X101932917Y-139008206D01*
X101947626Y-139007192D01*
X101975950Y-139000500D01*
X106252243Y-139000500D01*
X106319282Y-139020185D01*
G37*
%TD.AperFunction*%
%TA.AperFunction,Conductor*%
G36*
X106368539Y-147319185D02*
G01*
X106414294Y-147371989D01*
X106425500Y-147423500D01*
X106425500Y-149502864D01*
X106425499Y-149502882D01*
X106425499Y-149668588D01*
X106425498Y-149668588D01*
X106427871Y-149677445D01*
X106466423Y-149821319D01*
X106482075Y-149848429D01*
X106488902Y-149860252D01*
X106488903Y-149860256D01*
X106488904Y-149860256D01*
X106545479Y-149958248D01*
X106545481Y-149958251D01*
X106664349Y-150077119D01*
X106664355Y-150077124D01*
X107263577Y-150676346D01*
X107297062Y-150737669D01*
X107292078Y-150807361D01*
X107250206Y-150863294D01*
X107184742Y-150887711D01*
X107175896Y-150888027D01*
X102237154Y-150888027D01*
X102170115Y-150868342D01*
X102149473Y-150851708D01*
X101348265Y-150050500D01*
X100461207Y-149163443D01*
X100427723Y-149102121D01*
X100432707Y-149032429D01*
X100461208Y-148988082D01*
X102113473Y-147335819D01*
X102174796Y-147302334D01*
X102201154Y-147299500D01*
X106301500Y-147299500D01*
X106368539Y-147319185D01*
G37*
%TD.AperFunction*%
%TA.AperFunction,Conductor*%
G36*
X107831703Y-147692363D02*
G01*
X107838181Y-147698395D01*
X109002202Y-148862416D01*
X109035687Y-148923739D01*
X109038521Y-148950097D01*
X109038521Y-150366024D01*
X109032585Y-150386237D01*
X109031458Y-150407277D01*
X109022938Y-150419091D01*
X109018836Y-150433063D01*
X109002915Y-150446858D01*
X108990591Y-150463949D01*
X108977037Y-150469281D01*
X108966032Y-150478818D01*
X108945177Y-150481816D01*
X108925573Y-150489530D01*
X108900776Y-150488200D01*
X108896874Y-150488762D01*
X108890330Y-150487641D01*
X108781187Y-150465931D01*
X108719276Y-150433546D01*
X108717697Y-150431995D01*
X107662819Y-149377117D01*
X107629334Y-149315794D01*
X107626500Y-149289436D01*
X107626500Y-147786076D01*
X107646185Y-147719037D01*
X107698989Y-147673282D01*
X107768147Y-147663338D01*
X107831703Y-147692363D01*
G37*
%TD.AperFunction*%
%TA.AperFunction,Conductor*%
G36*
X97635098Y-139020185D02*
G01*
X97680853Y-139072989D01*
X97690797Y-139142147D01*
X97661772Y-139205703D01*
X97655740Y-139212181D01*
X97578213Y-139289707D01*
X97578210Y-139289711D01*
X97490609Y-139420814D01*
X97490602Y-139420827D01*
X97430264Y-139566498D01*
X97430261Y-139566510D01*
X97399500Y-139721153D01*
X97399500Y-139878846D01*
X97430261Y-140033489D01*
X97430264Y-140033501D01*
X97490602Y-140179172D01*
X97490609Y-140179185D01*
X97578210Y-140310288D01*
X97578213Y-140310292D01*
X97689707Y-140421786D01*
X97689711Y-140421789D01*
X97820814Y-140509390D01*
X97820827Y-140509397D01*
X97966498Y-140569735D01*
X97966503Y-140569737D01*
X98121153Y-140600499D01*
X98121156Y-140600500D01*
X98148207Y-140600500D01*
X98215246Y-140620185D01*
X98261001Y-140672989D01*
X98270945Y-140742147D01*
X98251309Y-140793391D01*
X98216011Y-140846217D01*
X98216004Y-140846229D01*
X98155666Y-140991900D01*
X98155663Y-140991912D01*
X98124902Y-141146555D01*
X98124902Y-141304248D01*
X98155663Y-141458891D01*
X98155666Y-141458903D01*
X98216004Y-141604574D01*
X98216011Y-141604587D01*
X98281072Y-141701957D01*
X98293344Y-141725408D01*
X98295926Y-141731964D01*
X98316177Y-141807539D01*
X98341502Y-141851402D01*
X98346109Y-141859382D01*
X98346110Y-141859384D01*
X98395233Y-141944468D01*
X98395235Y-141944471D01*
X98514103Y-142063339D01*
X98514109Y-142063344D01*
X98665425Y-142214660D01*
X98698910Y-142275983D01*
X98699361Y-142278149D01*
X98730261Y-142433491D01*
X98730264Y-142433501D01*
X98790602Y-142579172D01*
X98790609Y-142579185D01*
X98878210Y-142710288D01*
X98878213Y-142710292D01*
X98989707Y-142821786D01*
X98989711Y-142821789D01*
X99120814Y-142909390D01*
X99120827Y-142909397D01*
X99250656Y-142963173D01*
X99266503Y-142969737D01*
X99354318Y-142987204D01*
X99401098Y-142996510D01*
X99463009Y-143028895D01*
X99497583Y-143089610D01*
X99493844Y-143159380D01*
X99480009Y-143187017D01*
X99390612Y-143320809D01*
X99390602Y-143320827D01*
X99330264Y-143466498D01*
X99330261Y-143466510D01*
X99299500Y-143621153D01*
X99299500Y-143778846D01*
X99330261Y-143933489D01*
X99330264Y-143933501D01*
X99390602Y-144079172D01*
X99390609Y-144079185D01*
X99478210Y-144210288D01*
X99478213Y-144210292D01*
X99589707Y-144321786D01*
X99589711Y-144321789D01*
X99720814Y-144409390D01*
X99720827Y-144409397D01*
X99866498Y-144469735D01*
X99866503Y-144469737D01*
X99937856Y-144483930D01*
X99999691Y-144496230D01*
X100061602Y-144528615D01*
X100096176Y-144589330D01*
X100099500Y-144617847D01*
X100099500Y-144977108D01*
X100079815Y-145044147D01*
X100063181Y-145064789D01*
X99019481Y-146108488D01*
X99019480Y-146108490D01*
X98988711Y-146161785D01*
X98981372Y-146174496D01*
X98981367Y-146174504D01*
X98973064Y-146188883D01*
X98953364Y-146214556D01*
X98878208Y-146289714D01*
X98790609Y-146420814D01*
X98790602Y-146420827D01*
X98730264Y-146566498D01*
X98730261Y-146566510D01*
X98699500Y-146721153D01*
X98699500Y-146878846D01*
X98730261Y-147033489D01*
X98730264Y-147033501D01*
X98790602Y-147179172D01*
X98790609Y-147179185D01*
X98802181Y-147196503D01*
X98823059Y-147263180D01*
X98804575Y-147330560D01*
X98752596Y-147377251D01*
X98746535Y-147379954D01*
X98720823Y-147390604D01*
X98720814Y-147390609D01*
X98589711Y-147478210D01*
X98589707Y-147478213D01*
X98478213Y-147589707D01*
X98478210Y-147589711D01*
X98390609Y-147720814D01*
X98390602Y-147720827D01*
X98330264Y-147866498D01*
X98330261Y-147866508D01*
X98303769Y-147999692D01*
X98271384Y-148061603D01*
X98210668Y-148096177D01*
X98182152Y-148099500D01*
X95728102Y-148099500D01*
X95661063Y-148079815D01*
X95615308Y-148027011D01*
X95610171Y-148013819D01*
X95562306Y-147866508D01*
X95558884Y-147855975D01*
X95558882Y-147855972D01*
X95558882Y-147855970D01*
X95469523Y-147680594D01*
X95353828Y-147521354D01*
X95214646Y-147382172D01*
X95055405Y-147266476D01*
X95021815Y-147249361D01*
X94880029Y-147177117D01*
X94692826Y-147116290D01*
X94498422Y-147085500D01*
X94498417Y-147085500D01*
X94301583Y-147085500D01*
X94301578Y-147085500D01*
X94107173Y-147116290D01*
X93919970Y-147177117D01*
X93744590Y-147266478D01*
X93697385Y-147300775D01*
X93631578Y-147324255D01*
X93563525Y-147308429D01*
X93514830Y-147258323D01*
X93500500Y-147200457D01*
X93500500Y-144391542D01*
X93520185Y-144324503D01*
X93572989Y-144278748D01*
X93642147Y-144268804D01*
X93697384Y-144291223D01*
X93744595Y-144325524D01*
X93827455Y-144367743D01*
X93919970Y-144414882D01*
X93919972Y-144414882D01*
X93919975Y-144414884D01*
X94020317Y-144447487D01*
X94107173Y-144475709D01*
X94301578Y-144506500D01*
X94301583Y-144506500D01*
X94498422Y-144506500D01*
X94697454Y-144474976D01*
X94766747Y-144483930D01*
X94804533Y-144509768D01*
X95233181Y-144938416D01*
X95266666Y-144999739D01*
X95269500Y-145026097D01*
X95269500Y-145843330D01*
X95269499Y-145843348D01*
X95269499Y-146009054D01*
X95269498Y-146009054D01*
X95269499Y-146009057D01*
X95310423Y-146161785D01*
X95310425Y-146161788D01*
X95317766Y-146174503D01*
X95389477Y-146298712D01*
X95389481Y-146298717D01*
X95508349Y-146417585D01*
X95508355Y-146417590D01*
X95905425Y-146814660D01*
X95938910Y-146875983D01*
X95939361Y-146878149D01*
X95970261Y-147033491D01*
X95970264Y-147033501D01*
X96030602Y-147179172D01*
X96030609Y-147179185D01*
X96118210Y-147310288D01*
X96118213Y-147310292D01*
X96229707Y-147421786D01*
X96229711Y-147421789D01*
X96360814Y-147509390D01*
X96360827Y-147509397D01*
X96434013Y-147539711D01*
X96506503Y-147569737D01*
X96661153Y-147600499D01*
X96661156Y-147600500D01*
X96661158Y-147600500D01*
X96818844Y-147600500D01*
X96818845Y-147600499D01*
X96973497Y-147569737D01*
X97119179Y-147509394D01*
X97250289Y-147421789D01*
X97361789Y-147310289D01*
X97449394Y-147179179D01*
X97509737Y-147033497D01*
X97540500Y-146878842D01*
X97540500Y-146721158D01*
X97540500Y-146721155D01*
X97540499Y-146721153D01*
X97509738Y-146566510D01*
X97509737Y-146566503D01*
X97509735Y-146566498D01*
X97449397Y-146420827D01*
X97449390Y-146420814D01*
X97361789Y-146289711D01*
X97361786Y-146289707D01*
X97250292Y-146178213D01*
X97250288Y-146178210D01*
X97119185Y-146090609D01*
X97119172Y-146090602D01*
X96973501Y-146030264D01*
X96973491Y-146030261D01*
X96818151Y-145999362D01*
X96801394Y-145990596D01*
X96782916Y-145986577D01*
X96757877Y-145967832D01*
X96756241Y-145966977D01*
X96754662Y-145965426D01*
X96601417Y-145812181D01*
X96567932Y-145750858D01*
X96572916Y-145681166D01*
X96614788Y-145625233D01*
X96680252Y-145600816D01*
X96689098Y-145600500D01*
X96691344Y-145600500D01*
X96691345Y-145600499D01*
X96845997Y-145569737D01*
X96991679Y-145509394D01*
X97122789Y-145421789D01*
X97234289Y-145310289D01*
X97321894Y-145179179D01*
X97382237Y-145033497D01*
X97413000Y-144878842D01*
X97413000Y-144721158D01*
X97413000Y-144721155D01*
X97412999Y-144721153D01*
X97392450Y-144617847D01*
X97382237Y-144566503D01*
X97382235Y-144566498D01*
X97321897Y-144420827D01*
X97321890Y-144420814D01*
X97233898Y-144289125D01*
X97213020Y-144222447D01*
X97213000Y-144220234D01*
X97213000Y-141233445D01*
X97213000Y-141233443D01*
X97185627Y-141131284D01*
X97172077Y-141080715D01*
X97142948Y-141030263D01*
X97142948Y-141030262D01*
X97093022Y-140943787D01*
X97093021Y-140943786D01*
X97093020Y-140943784D01*
X96981216Y-140831980D01*
X96981215Y-140831979D01*
X96976885Y-140827649D01*
X96976874Y-140827639D01*
X95634574Y-139485339D01*
X95601089Y-139424016D01*
X95600638Y-139421849D01*
X95574353Y-139289711D01*
X95569737Y-139266503D01*
X95530572Y-139171951D01*
X95523104Y-139102483D01*
X95554379Y-139040004D01*
X95614468Y-139004352D01*
X95645134Y-139000500D01*
X97568059Y-139000500D01*
X97635098Y-139020185D01*
G37*
%TD.AperFunction*%
%TA.AperFunction,Conductor*%
G36*
X101466942Y-140420185D02*
G01*
X101487584Y-140436819D01*
X102171883Y-141121118D01*
X102205368Y-141182441D01*
X102200384Y-141252133D01*
X102180053Y-141287467D01*
X102178207Y-141289715D01*
X102090609Y-141420814D01*
X102090602Y-141420827D01*
X102030264Y-141566498D01*
X102030261Y-141566510D01*
X101999500Y-141721153D01*
X101999500Y-141739902D01*
X101979815Y-141806941D01*
X101963181Y-141827583D01*
X101379132Y-142411632D01*
X101317809Y-142445117D01*
X101248117Y-142440133D01*
X101201196Y-142408980D01*
X101191286Y-142398461D01*
X101180520Y-142379813D01*
X101068716Y-142268009D01*
X101068713Y-142268007D01*
X100909337Y-142108631D01*
X100875852Y-142047308D01*
X100880836Y-141977616D01*
X100882436Y-141973548D01*
X100919737Y-141883497D01*
X100950500Y-141728842D01*
X100950500Y-141571158D01*
X100950500Y-141571155D01*
X100950499Y-141571153D01*
X100932204Y-141479179D01*
X100919737Y-141416503D01*
X100873240Y-141304248D01*
X100859397Y-141270827D01*
X100859390Y-141270814D01*
X100771789Y-141139711D01*
X100771786Y-141139707D01*
X100660292Y-141028213D01*
X100660288Y-141028210D01*
X100529185Y-140940609D01*
X100529172Y-140940602D01*
X100383501Y-140880264D01*
X100383489Y-140880261D01*
X100228845Y-140849500D01*
X100228842Y-140849500D01*
X100071158Y-140849500D01*
X100071155Y-140849500D01*
X99916510Y-140880261D01*
X99916498Y-140880264D01*
X99802646Y-140927423D01*
X99733177Y-140934892D01*
X99670698Y-140903616D01*
X99640632Y-140860313D01*
X99634796Y-140846223D01*
X99634792Y-140846216D01*
X99547191Y-140715113D01*
X99547188Y-140715109D01*
X99444260Y-140612181D01*
X99410775Y-140550858D01*
X99415759Y-140481166D01*
X99457631Y-140425233D01*
X99523095Y-140400816D01*
X99531941Y-140400500D01*
X101399903Y-140400500D01*
X101466942Y-140420185D01*
G37*
%TD.AperFunction*%
%TD*%
M02*
