M48
; DRILL file KiCad 10.0.1 date 2026-04-20T11:43:07
; FORMAT={-:-/ absolute / inch / decimal}
; #@! TF.CreationDate,2026-04-20T11:43:07+09:00
; #@! TF.GenerationSoftware,Kicad,Pcbnew,10.0.1
; #@! TF.FileFunction,Plated,1,4,PTH
FMAT,2
INCH
; #@! TA.AperFunction,Plated,PTH,ComponentDrill
T1C0.0079
; #@! TA.AperFunction,Plated,PTH,ViaDrill
T2C0.0118
; #@! TA.AperFunction,Plated,PTH,ComponentDrill
T3C0.0118
%
G90
G05
T1
X4.0354Y-5.7972
X4.0354Y-5.8445
X4.0354Y-5.8917
X4.0354Y-5.939
X4.0827Y-5.7972
X4.0827Y-5.8445
X4.0827Y-5.8917
X4.0827Y-5.939
X4.1299Y-5.7972
X4.1299Y-5.8445
X4.1299Y-5.8917
X4.1299Y-5.939
X4.1772Y-5.7972
X4.1772Y-5.8445
X4.1772Y-5.8917
X4.1772Y-5.939
T2
X3.689Y-6.0945
X3.6929Y-5.5669
X3.7087Y-5.7008
X3.7216Y-6.0315
X3.7323Y-5.4921
X3.7328Y-5.7008
X3.748Y-6.1102
X3.7756Y-5.4882
X3.784Y-6.0517
X3.7842Y-6.0199
X3.7953Y-6.1009
X3.8036Y-5.7008
X3.8087Y-5.7795
X3.8307Y-5.9547
X3.8473Y-6.075
X3.8622Y-6.122
X3.8661Y-5.5039
X3.8661Y-5.9547
X3.8727Y-5.7918
X3.8947Y-5.5601
X3.9016Y-5.8307
X3.9016Y-5.9547
X3.9173Y-5.5984
X3.9173Y-5.7795
X3.9232Y-5.9075
X3.9291Y-5.5355
X3.9291Y-5.7126
X3.937Y-5.9547
X3.9409Y-5.6575
X3.9429Y-5.5768
X3.9665Y-5.751
X3.9843Y-5.6063
X3.9913Y-6.0118
X4.0Y-5.5512
X4.0168Y-5.6891
X4.0472Y-5.5827
X4.0787Y-6.0374
X4.1142Y-6.0374
X4.1496Y-6.0374
X4.1775Y-5.6686
X4.185Y-6.0374
X4.2126Y-5.5551
X4.2165Y-5.9877
X4.2185Y-5.4862
X4.2402Y-6.0157
X4.2769Y-5.916
X4.2791Y-6.0406
X4.2796Y-5.9554
X4.2913Y-5.6535
X4.315Y-5.5315
X4.3228Y-5.7756
X4.3263Y-5.8287
X4.3465Y-5.5
X4.3465Y-5.5315
X4.3465Y-5.563
X4.378Y-5.5
X4.378Y-5.5315
X4.378Y-5.563
X4.378Y-5.5945
X4.378Y-5.626
X4.378Y-5.6575
X4.378Y-5.689
X4.378Y-5.7205
X4.378Y-5.752
X4.378Y-5.7835
X4.378Y-5.815
X4.378Y-5.8465
X4.378Y-5.878
X4.378Y-5.9094
X4.378Y-5.9409
X4.378Y-5.9705
X4.378Y-6.0394
T3
X4.3819Y-6.0827
M30
